SplineFontDB: 3.0
FontName: Bahiana-Regular
FullName: Bahiana-Regular
FamilyName: Bahiana
Weight: Regular
Copyright: Copyright (c) 2013 by Pablo Cosgaya & Dani Raskovsky. All rights reserved.
Version: 001.002
ItalicAngle: 0
UnderlinePosition: -49.8047
UnderlineWidth: 49.8047
Ascent: 762
Descent: 238
sfntRevision: 0x00010083
LayerCount: 2
Layer: 0 1 "Back"  1
Layer: 1 1 "Fore"  0
XUID: [1021 809 -2065993493 4996744]
FSType: 8
OS2Version: 3
OS2_WeightWidthSlopeOnly: 0
OS2_UseTypoMetrics: 1
CreationTime: 1387479871
ModificationTime: 1388327529
PfmFamily: 81
TTFWeight: 400
TTFWidth: 5
LineGap: 0
VLineGap: 0
Panose: 0 0 5 0 0 0 0 0 0 0
OS2TypoAscent: 762
OS2TypoAOffset: 0
OS2TypoDescent: -238
OS2TypoDOffset: 0
OS2TypoLinegap: 200
OS2WinAscent: 962
OS2WinAOffset: 0
OS2WinDescent: 238
OS2WinDOffset: 0
HheadAscent: 962
HheadAOffset: 0
HheadDescent: -238
HheadDOffset: 0
OS2SubXSize: 650
OS2SubYSize: 600
OS2SubXOff: 0
OS2SubYOff: 75
OS2SupXSize: 650
OS2SupYSize: 600
OS2SupXOff: 0
OS2SupYOff: 350
OS2StrikeYSize: 50
OS2StrikeYPos: 295
OS2Vendor: 'UKWN'
OS2CodePages: 20000093.00000000
OS2UnicodeRanges: 00000007.00000000.00000000.00000000
Lookup: 1 0 0 "'aalt' Access All Alternates lookup 0"  {"'aalt' Access All Alternates lookup 0 subtable"  } ['aalt' ('DFLT' <'dflt' > 'grek' <'dflt' > 'latn' <'CAT ' 'ESP ' 'MOL ' 'PLK ' 'ROM ' 'TRK ' 'dflt' > ) ]
Lookup: 3 0 0 "'aalt' Access All Alternates lookup 1"  {"'aalt' Access All Alternates lookup 1 subtable"  } ['aalt' ('DFLT' <'dflt' > 'grek' <'dflt' > 'latn' <'CAT ' 'ESP ' 'MOL ' 'PLK ' 'ROM ' 'TRK ' 'dflt' > ) ]
Lookup: 1 0 0 "'locl' Localized Forms in Latin lookup 2"  {"'locl' Localized Forms in Latin lookup 2 subtable"  } ['locl' ('latn' <'TRK ' > ) ]
Lookup: 1 0 0 "'locl' Localized Forms in Latin lookup 3"  {"'locl' Localized Forms in Latin lookup 3 subtable"  } ['locl' ('latn' <'AZE ' > ) ]

StartChar: .notdef
Encoding: 65536 -1 0
Width: 338
Flags: MW
HStem: 0 39<101 226 101 239> 676 34
VStem: 50 38<124 124 124 657> 237 42
LayerCount: 2
UndoRedoHistory
Layer: 0
Undoes
EndUndoes
Redoes
EndRedoes
EndUndoRedoHistory
UndoRedoHistory
Layer: 1
Undoes
EndUndoes
Redoes
EndRedoes
EndUndoRedoHistory
Fore
SplineSet
290 11 m 1,0,-1
 239 0 l 1,1,-1
 50 0 l 1,2,-1
 50 701 l 1,3,-1
 267 710 l 1,4,-1
 290 11 l 1,0,-1
164 411 m 1,5,-1
 233 672 l 1,6,-1
 225 676 l 1,7,-1
 101 676 l 1,8,-1
 164 411 l 1,5,-1
88 124 m 1,9,-1
 152 368 l 1,10,-1
 88 657 l 1,11,-1
 88 124 l 1,9,-1
237 618 m 1,12,-1
 174 367 l 1,13,-1
 237 106 l 1,14,-1
 237 618 l 1,12,-1
226 39 m 1,15,-1
 163 321 l 1,16,-1
 93 41 l 1,17,18
 97 39 97 39 101 39 c 2,19,-1
 226 39 l 1,15,-1
EndSplineSet
Validated: 1
EndChar

StartChar: A
Encoding: 65 65 1
Width: 303
Flags: MW
HStem: 0 21G<26 73 26 26 196 254 196 196> 278 47<142 170 119 185> 678 32<140 142 142 185>
VStem: 71 65 191 63<331 672 672 674>
LayerCount: 2
UndoRedoHistory
Layer: 0
Undoes
EndUndoes
Redoes
EndRedoes
EndUndoRedoHistory
UndoRedoHistory
Layer: 1
Undoes
EndUndoes
Redoes
EndRedoes
EndUndoRedoHistory
Fore
SplineSet
196 0 m 1,0,-1
 170 278 l 1,1,-1
 119 278 l 1,2,-1
 73 0 l 1,3,-1
 26 0 l 1,4,-1
 71 710 l 1,5,-1
 254 710 l 1,6,-1
 254 0 l 1,7,-1
 196 0 l 1,0,-1
191 672 m 2,8,9
 191 678 191 678 185 678 c 2,10,-1
 142 678 l 2,11,12
 136 678 136 678 136 672 c 2,13,-1
 136 330 l 2,14,15
 136 325 136 325 142 325 c 2,16,-1
 185 325 l 2,17,18
 191 325 191 325 191 331 c 2,19,-1
 191 672 l 2,8,9
EndSplineSet
Validated: 1
Substitution2: "Single Substitution lookup 21 subtable" a
Substitution2: "Single Substitution lookup 20 subtable" ordfeminine
AlternateSubs2: "'aalt' Access All Alternates lookup 1 subtable" ordfeminine a
Position2: "'cpsp' Capital Spacing lookup 0 subtable" dx=5 dy=0 dh=10 dv=0
EndChar

StartChar: Aacute
Encoding: 193 193 2
Width: 303
Flags: MW
HStem: 0 21G<26 73 26 26 196 254 196 196> 278 47<142 170 119 185> 678 32<140 142 142 185>
VStem: 71 65 191 63<331 672 672 674>
LayerCount: 2
UndoRedoHistory
Layer: 0
Undoes
EndUndoes
Redoes
EndRedoes
EndUndoRedoHistory
UndoRedoHistory
Layer: 1
Undoes
EndUndoes
Redoes
EndRedoes
EndUndoRedoHistory
Fore
SplineSet
248 852 m 1,0,-1
 152 768 l 1,1,-1
 118 792 l 1,2,-1
 202 900 l 1,3,-1
 248 852 l 1,0,-1
196 0 m 1,4,-1
 170 278 l 1,5,-1
 119 278 l 1,6,-1
 73 0 l 1,7,-1
 26 0 l 1,8,-1
 71 710 l 1,9,-1
 254 710 l 1,10,-1
 254 0 l 1,11,-1
 196 0 l 1,4,-1
191 672 m 2,12,13
 191 678 191 678 185 678 c 2,14,-1
 142 678 l 2,15,16
 136 678 136 678 136 672 c 2,17,-1
 136 330 l 2,18,19
 136 325 136 325 142 325 c 2,20,-1
 185 325 l 2,21,22
 191 325 191 325 191 331 c 2,23,-1
 191 672 l 2,12,13
EndSplineSet
Validated: 1
Substitution2: "Single Substitution lookup 21 subtable" aacute
Substitution2: "'aalt' Access All Alternates lookup 0 subtable" aacute
Position2: "'cpsp' Capital Spacing lookup 0 subtable" dx=5 dy=0 dh=10 dv=0
EndChar

StartChar: Abreve
Encoding: 258 258 3
Width: 303
Flags: MW
HStem: 0 21G<26 73 26 26 196 254 196 196> 278 47<142 170 119 185> 678 32<140 142 142 185> 785 47 846 48<108 108>
VStem: 62 48 71 65 191 63<331 672 672 674> 229 44
LayerCount: 2
UndoRedoHistory
Layer: 0
Undoes
EndUndoes
Redoes
EndRedoes
EndUndoRedoHistory
UndoRedoHistory
Layer: 1
Undoes
EndUndoes
Redoes
EndRedoes
EndUndoRedoHistory
Fore
SplineSet
108 846 m 1,0,-1
 120 835 l 1,1,-1
 230 830 l 1,2,-1
 227 896 l 1,3,-1
 273 900 l 1,4,-1
 273 824 l 1,5,-1
 234 785 l 1,6,-1
 109 785 l 1,7,-1
 64 813 l 1,8,-1
 60 894 l 1,9,-1
 113 894 l 1,10,-1
 108 846 l 1,0,-1
196 0 m 1,11,-1
 170 278 l 1,12,-1
 119 278 l 1,13,-1
 73 0 l 1,14,-1
 26 0 l 1,15,-1
 71 710 l 1,16,-1
 254 710 l 1,17,-1
 254 0 l 1,18,-1
 196 0 l 1,11,-1
191 672 m 2,19,20
 191 678 191 678 185 678 c 2,21,-1
 142 678 l 2,22,23
 136 678 136 678 136 672 c 2,24,-1
 136 330 l 2,25,26
 136 325 136 325 142 325 c 2,27,-1
 185 325 l 2,28,29
 191 325 191 325 191 331 c 2,30,-1
 191 672 l 2,19,20
EndSplineSet
Validated: 8388609
Substitution2: "Single Substitution lookup 21 subtable" abreve
Substitution2: "'aalt' Access All Alternates lookup 0 subtable" abreve
Position2: "'cpsp' Capital Spacing lookup 0 subtable" dx=5 dy=0 dh=10 dv=0
EndChar

StartChar: Acircumflex
Encoding: 194 194 4
Width: 303
Flags: MW
HStem: 0 21G<26 73 26 26 196 254 196 196> 278 47<142 170 119 185> 678 32<140 142 142 185>
VStem: 71 65 191 63<331 672 672 674>
LayerCount: 2
UndoRedoHistory
Layer: 0
Undoes
EndUndoes
Redoes
EndRedoes
EndUndoRedoHistory
UndoRedoHistory
Layer: 1
Undoes
EndUndoes
Redoes
EndRedoes
EndUndoRedoHistory
Fore
SplineSet
182 896 m 1,0,-1
 256 786 l 1,1,-1
 227 767 l 1,2,-1
 162 829 l 1,3,-1
 97 767 l 1,4,-1
 68 786 l 1,5,-1
 142 899 l 1,6,-1
 182 896 l 1,0,-1
196 0 m 1,7,-1
 170 278 l 1,8,-1
 119 278 l 1,9,-1
 73 0 l 1,10,-1
 26 0 l 1,11,-1
 71 710 l 1,12,-1
 254 710 l 1,13,-1
 254 0 l 1,14,-1
 196 0 l 1,7,-1
191 672 m 2,15,16
 191 678 191 678 185 678 c 2,17,-1
 142 678 l 2,18,19
 136 678 136 678 136 672 c 2,20,-1
 136 330 l 2,21,22
 136 325 136 325 142 325 c 2,23,-1
 185 325 l 2,24,25
 191 325 191 325 191 331 c 2,26,-1
 191 672 l 2,15,16
EndSplineSet
Validated: 1
Substitution2: "Single Substitution lookup 21 subtable" acircumflex
Substitution2: "'aalt' Access All Alternates lookup 0 subtable" acircumflex
Position2: "'cpsp' Capital Spacing lookup 0 subtable" dx=5 dy=0 dh=10 dv=0
EndChar

StartChar: Adieresis
Encoding: 196 196 5
Width: 303
Flags: MW
HStem: 0 21G<26 73 26 26 196 254 196 196> 278 47<142 170 119 185> 678 32<140 142 142 185> 817 82
VStem: 37 81 71 65 188 78 191 63<331 672 672 674>
LayerCount: 2
UndoRedoHistory
Layer: 0
Undoes
EndUndoes
Redoes
EndRedoes
EndUndoRedoHistory
UndoRedoHistory
Layer: 1
Undoes
EndUndoes
Redoes
EndRedoes
EndUndoRedoHistory
Fore
SplineSet
120 900 m 1,0,-1
 116 817 l 1,1,-1
 37 817 l 1,2,-1
 37 897 l 1,3,-1
 120 900 l 1,0,-1
266 900 m 1,4,-1
 266 820 l 1,5,-1
 190 817 l 1,6,-1
 187 900 l 1,7,-1
 266 900 l 1,4,-1
196 0 m 1,8,-1
 170 278 l 1,9,-1
 119 278 l 1,10,-1
 73 0 l 1,11,-1
 26 0 l 1,12,-1
 71 710 l 1,13,-1
 254 710 l 1,14,-1
 254 0 l 1,15,-1
 196 0 l 1,8,-1
191 672 m 2,16,17
 191 678 191 678 185 678 c 2,18,-1
 142 678 l 2,19,20
 136 678 136 678 136 672 c 2,21,-1
 136 330 l 2,22,23
 136 325 136 325 142 325 c 2,24,-1
 185 325 l 2,25,26
 191 325 191 325 191 331 c 2,27,-1
 191 672 l 2,16,17
EndSplineSet
Validated: 8388609
Substitution2: "Single Substitution lookup 21 subtable" adieresis
Substitution2: "'aalt' Access All Alternates lookup 0 subtable" adieresis
Position2: "'cpsp' Capital Spacing lookup 0 subtable" dx=5 dy=0 dh=10 dv=0
EndChar

StartChar: Agrave
Encoding: 192 192 6
Width: 303
Flags: MW
HStem: 0 21G<26 73 26 26 196 254 196 196> 278 47<142 170 119 185> 678 32<140 142 142 185>
VStem: 71 65 191 63<331 672 672 674>
LayerCount: 2
UndoRedoHistory
Layer: 0
Undoes
EndUndoes
Redoes
EndRedoes
EndUndoRedoHistory
UndoRedoHistory
Layer: 1
Undoes
EndUndoes
Redoes
EndRedoes
EndUndoRedoHistory
Fore
SplineSet
183 768 m 1,0,-1
 87 852 l 1,1,-1
 133 900 l 1,2,-1
 217 792 l 1,3,-1
 183 768 l 1,0,-1
196 0 m 1,4,-1
 170 278 l 1,5,-1
 119 278 l 1,6,-1
 73 0 l 1,7,-1
 26 0 l 1,8,-1
 71 710 l 1,9,-1
 254 710 l 1,10,-1
 254 0 l 1,11,-1
 196 0 l 1,4,-1
191 672 m 2,12,13
 191 678 191 678 185 678 c 2,14,-1
 142 678 l 2,15,16
 136 678 136 678 136 672 c 2,17,-1
 136 330 l 2,18,19
 136 325 136 325 142 325 c 2,20,-1
 185 325 l 2,21,22
 191 325 191 325 191 331 c 2,23,-1
 191 672 l 2,12,13
EndSplineSet
Validated: 1
Substitution2: "Single Substitution lookup 21 subtable" agrave
Substitution2: "'aalt' Access All Alternates lookup 0 subtable" agrave
Position2: "'cpsp' Capital Spacing lookup 0 subtable" dx=5 dy=0 dh=10 dv=0
EndChar

StartChar: Amacron
Encoding: 256 256 7
Width: 303
Flags: MW
HStem: 0 21G<26 73 26 26 196 254 196 196> 278 47<142 170 119 185> 678 32<140 142 142 185> 832 60
VStem: 71 65 191 63<331 672 672 674>
LayerCount: 2
UndoRedoHistory
Layer: 0
Undoes
EndUndoes
Redoes
EndRedoes
EndUndoRedoHistory
UndoRedoHistory
Layer: 1
Undoes
EndUndoes
Redoes
EndRedoes
EndUndoRedoHistory
Fore
SplineSet
298 836 m 1,0,-1
 33 827 l 1,1,-1
 30 891 l 1,2,-1
 298 891 l 1,3,-1
 298 836 l 1,0,-1
196 0 m 1,4,-1
 170 278 l 1,5,-1
 119 278 l 1,6,-1
 73 0 l 1,7,-1
 26 0 l 1,8,-1
 71 710 l 1,9,-1
 254 710 l 1,10,-1
 254 0 l 1,11,-1
 196 0 l 1,4,-1
191 672 m 2,12,13
 191 678 191 678 185 678 c 2,14,-1
 142 678 l 2,15,16
 136 678 136 678 136 672 c 2,17,-1
 136 330 l 2,18,19
 136 325 136 325 142 325 c 2,20,-1
 185 325 l 2,21,22
 191 325 191 325 191 331 c 2,23,-1
 191 672 l 2,12,13
EndSplineSet
Validated: 1
Substitution2: "Single Substitution lookup 21 subtable" amacron
Substitution2: "'aalt' Access All Alternates lookup 0 subtable" amacron
Position2: "'cpsp' Capital Spacing lookup 0 subtable" dx=5 dy=0 dh=10 dv=0
EndChar

StartChar: Aogonek
Encoding: 260 260 8
Width: 303
Flags: MW
HStem: 0 21G<26 73 26 26 235 254 235 235> 278 47<142 170 119 185> 678 32<140 142 142 185>
VStem: 71 65 191 63<331 672 672 674>
LayerCount: 2
UndoRedoHistory
Layer: 0
Undoes
EndUndoes
Redoes
EndRedoes
EndUndoRedoHistory
UndoRedoHistory
Layer: 1
Undoes
EndUndoes
Redoes
EndRedoes
EndUndoRedoHistory
Fore
SplineSet
235 0 m 1,0,-1
 209 -83 l 1,1,-1
 243 -145 l 1,2,-1
 332 -100 l 1,3,-1
 348 -146 l 1,4,-1
 235 -209 l 1,5,-1
 147 -95 l 1,6,-1
 196 2 l 1,7,-1
 170 278 l 1,8,-1
 119 278 l 1,9,-1
 73 0 l 1,10,-1
 26 0 l 1,11,-1
 71 710 l 1,12,-1
 254 710 l 1,13,-1
 254 0 l 1,14,-1
 235 0 l 1,0,-1
191 672 m 2,15,16
 191 678 191 678 185 678 c 2,17,-1
 142 678 l 2,18,19
 136 678 136 678 136 672 c 2,20,-1
 136 330 l 2,21,22
 136 325 136 325 142 325 c 2,23,-1
 185 325 l 2,24,25
 191 325 191 325 191 331 c 2,26,-1
 191 672 l 2,15,16
EndSplineSet
Validated: 1
Substitution2: "Single Substitution lookup 21 subtable" aogonek
Substitution2: "'aalt' Access All Alternates lookup 0 subtable" aogonek
Position2: "'cpsp' Capital Spacing lookup 0 subtable" dx=5 dy=0 dh=10 dv=0
EndChar

StartChar: Aring
Encoding: 197 197 9
Width: 303
Flags: MW
HStem: 0 21G<26 73 26 26 196 254 196 196> 278 47<142 170 119 185> 678 32<140 142 142 185> 764 35<148 189 189 191 148 213> 872 27<147 150>
VStem: 99 43<801 803 803 869> 191 63<331 672 672 674> 196 42<805 861 861 862>
LayerCount: 2
UndoRedoHistory
Layer: 0
Undoes
EndUndoes
Redoes
EndRedoes
EndUndoRedoHistory
UndoRedoHistory
Layer: 1
Undoes
EndUndoes
Redoes
EndRedoes
EndUndoRedoHistory
Fore
SplineSet
238 790 m 1,0,-1
 213 764 l 1,1,-1
 99 764 l 1,2,-1
 99 899 l 1,3,-1
 238 899 l 1,4,-1
 238 790 l 1,0,-1
189 799 m 2,5,6
 196 799 196 799 196 805 c 2,7,-1
 196 861 l 2,8,9
 196 864 196 864 190 867 c 1,10,-1
 150 872 l 1,11,12
 142 872 142 872 142 869 c 2,13,-1
 142 803 l 2,14,15
 142 799 142 799 148 799 c 2,16,-1
 189 799 l 2,5,6
196 0 m 1,17,-1
 170 278 l 1,18,-1
 119 278 l 1,19,-1
 73 0 l 1,20,-1
 26 0 l 1,21,-1
 71 710 l 1,22,-1
 254 710 l 1,23,-1
 254 0 l 1,24,-1
 196 0 l 1,17,-1
191 672 m 2,25,26
 191 678 191 678 185 678 c 2,27,-1
 142 678 l 2,28,29
 136 678 136 678 136 672 c 2,30,-1
 136 330 l 2,31,32
 136 325 136 325 142 325 c 2,33,-1
 185 325 l 2,34,35
 191 325 191 325 191 331 c 2,36,-1
 191 672 l 2,25,26
EndSplineSet
Validated: 8388609
Substitution2: "Single Substitution lookup 21 subtable" aring
Substitution2: "'aalt' Access All Alternates lookup 0 subtable" aring
Position2: "'cpsp' Capital Spacing lookup 0 subtable" dx=5 dy=0 dh=10 dv=0
EndChar

StartChar: Aringacute
Encoding: 506 506 10
Width: 303
Flags: MW
HStem: 0 21G<26 73 26 26 196 254 196 196> 278 47<142 170 119 185> 675 35<141 185 185 188> 783 27<144 146>
VStem: 95 41 191 63<331 672 672 672>
LayerCount: 2
UndoRedoHistory
Layer: 0
Undoes
EndUndoes
Redoes
EndRedoes
EndUndoRedoHistory
UndoRedoHistory
Layer: 1
Undoes
EndUndoes
Redoes
EndRedoes
EndUndoRedoHistory
Fore
SplineSet
250 845 m 1,0,-1
 124 823 l 1,1,-1
 108 861 l 1,2,-1
 241 900 l 1,3,-1
 250 845 l 1,0,-1
234 710 m 1,4,-1
 254 710 l 1,5,-1
 254 0 l 1,6,-1
 196 0 l 1,7,-1
 170 278 l 1,8,-1
 119 278 l 1,9,-1
 73 0 l 1,10,-1
 26 0 l 1,11,-1
 71 710 l 1,12,-1
 95 710 l 1,13,-1
 95 810 l 1,14,-1
 234 810 l 1,15,-1
 234 710 l 1,4,-1
185 710 m 2,16,17
 192 710 192 710 192 716 c 2,18,-1
 192 772 l 2,19,20
 192 775 192 775 186 778 c 1,21,-1
 146 783 l 1,22,23
 138 783 138 783 138 780 c 2,24,-1
 138 714 l 2,25,26
 138 710 138 710 141 710 c 2,27,-1
 185 710 l 2,16,17
191 672 m 2,28,29
 191 674 191 674 190 675 c 1,30,-1
 136 675 l 1,31,-1
 136 330 l 2,32,33
 136 325 136 325 142 325 c 2,34,-1
 185 325 l 2,35,36
 191 325 191 325 191 331 c 2,37,-1
 191 672 l 2,28,29
EndSplineSet
Validated: 1
Substitution2: "Single Substitution lookup 21 subtable" aringacute
Substitution2: "'aalt' Access All Alternates lookup 0 subtable" aringacute
Position2: "'cpsp' Capital Spacing lookup 0 subtable" dx=5 dy=0 dh=10 dv=0
EndChar

StartChar: Atilde
Encoding: 195 195 11
Width: 303
Flags: MW
HStem: 0 21G<26 73 26 26 196 254 196 196> 278 47<142 170 119 185> 678 32<140 142 142 185>
VStem: 60 77 191 63<331 672 672 674>
LayerCount: 2
UndoRedoHistory
Layer: 0
Undoes
EndUndoes
Redoes
EndRedoes
EndUndoRedoHistory
UndoRedoHistory
Layer: 1
Undoes
EndUndoes
Redoes
EndRedoes
EndUndoRedoHistory
Fore
SplineSet
84 883 m 1,0,1
 102 897 102 897 122 897 c 0,2,3
 147 897 147 897 176 877 c 1,4,-1
 214 852 l 1,5,-1
 286 900 l 1,6,-1
 286 840 l 1,7,-1
 262 817 l 1,8,9
 237 794 237 794 218 794 c 0,10,11
 200 794 200 794 173 813 c 2,12,-1
 129 844 l 1,13,-1
 61 791 l 1,14,-1
 58 860 l 1,15,-1
 84 883 l 1,0,1
196 0 m 1,16,-1
 170 278 l 1,17,-1
 119 278 l 1,18,-1
 73 0 l 1,19,-1
 26 0 l 1,20,-1
 71 710 l 1,21,-1
 254 710 l 1,22,-1
 254 0 l 1,23,-1
 196 0 l 1,16,-1
191 672 m 2,24,25
 191 678 191 678 185 678 c 2,26,-1
 142 678 l 2,27,28
 136 678 136 678 136 672 c 2,29,-1
 136 330 l 2,30,31
 136 325 136 325 142 325 c 2,32,-1
 185 325 l 2,33,34
 191 325 191 325 191 331 c 2,35,-1
 191 672 l 2,24,25
EndSplineSet
Validated: 1
Substitution2: "Single Substitution lookup 21 subtable" atilde
Substitution2: "'aalt' Access All Alternates lookup 0 subtable" atilde
Position2: "'cpsp' Capital Spacing lookup 0 subtable" dx=5 dy=0 dh=10 dv=0
EndChar

StartChar: AE
Encoding: 198 198 12
Width: 471
Flags: MW
HStem: 0 83<285 285 285 432 216 285> 0 101<420 420 420 432> 278 47<142 185 185 187 142 190 119 185> 411 50<280 389> 632 78<280 280 280 423> 678 32<140 142 142 185>
VStem: 71 65 191 89<461 632 461 672 461 674>
LayerCount: 2
UndoRedoHistory
Layer: 0
Undoes
EndUndoes
Redoes
EndRedoes
EndUndoRedoHistory
UndoRedoHistory
Layer: 1
Undoes
EndUndoes
Redoes
EndRedoes
EndUndoRedoHistory
Fore
SplineSet
280 632 m 1,0,-1
 280 461 l 1,1,-1
 389 461 l 1,2,-1
 389 411 l 1,3,-1
 285 393 l 1,4,-1
 285 83 l 1,5,-1
 420 101 l 1,6,-1
 432 0 l 1,7,-1
 216 0 l 1,8,-1
 190 278 l 1,9,-1
 119 278 l 1,10,-1
 73 0 l 1,11,-1
 26 0 l 1,12,-1
 71 710 l 1,13,-1
 423 710 l 1,14,-1
 423 632 l 1,15,-1
 280 632 l 1,0,-1
191 672 m 2,16,17
 191 678 191 678 185 678 c 2,18,-1
 142 678 l 2,19,20
 136 678 136 678 136 672 c 2,21,-1
 136 330 l 2,22,23
 136 325 136 325 142 325 c 2,24,-1
 185 325 l 2,25,26
 191 325 191 325 191 331 c 2,27,-1
 191 672 l 2,16,17
EndSplineSet
Validated: 8388609
Substitution2: "Single Substitution lookup 21 subtable" ae
Substitution2: "'aalt' Access All Alternates lookup 0 subtable" ae
Position2: "'cpsp' Capital Spacing lookup 0 subtable" dx=5 dy=0 dh=10 dv=0
EndChar

StartChar: AEacute
Encoding: 508 508 13
Width: 471
Flags: MW
HStem: 0 83<285 285 285 432 216 285> 0 101<420 420 420 432> 278 47<142 185 185 187 142 190 119 185> 411 50<280 389> 632 78<280 280 280 423> 678 32<140 142 142 185>
VStem: 71 65 191 89<461 632 461 672 461 674>
LayerCount: 2
UndoRedoHistory
Layer: 0
Undoes
EndUndoes
Redoes
EndRedoes
EndUndoRedoHistory
UndoRedoHistory
Layer: 1
Undoes
EndUndoes
Redoes
EndRedoes
EndUndoRedoHistory
Fore
SplineSet
318 852 m 1,0,-1
 222 768 l 1,1,-1
 188 792 l 1,2,-1
 272 900 l 1,3,-1
 318 852 l 1,0,-1
280 632 m 1,4,-1
 280 461 l 1,5,-1
 389 461 l 1,6,-1
 389 411 l 1,7,-1
 285 393 l 1,8,-1
 285 83 l 1,9,-1
 420 101 l 1,10,-1
 432 0 l 1,11,-1
 216 0 l 1,12,-1
 190 278 l 1,13,-1
 119 278 l 1,14,-1
 73 0 l 1,15,-1
 26 0 l 1,16,-1
 71 710 l 1,17,-1
 423 710 l 1,18,-1
 423 632 l 1,19,-1
 280 632 l 1,4,-1
191 672 m 2,20,21
 191 678 191 678 185 678 c 2,22,-1
 142 678 l 2,23,24
 136 678 136 678 136 672 c 2,25,-1
 136 330 l 2,26,27
 136 325 136 325 142 325 c 2,28,-1
 185 325 l 2,29,30
 191 325 191 325 191 331 c 2,31,-1
 191 672 l 2,20,21
EndSplineSet
Validated: 8388609
Substitution2: "Single Substitution lookup 21 subtable" aeacute
Substitution2: "'aalt' Access All Alternates lookup 0 subtable" aeacute
Position2: "'cpsp' Capital Spacing lookup 0 subtable" dx=5 dy=0 dh=10 dv=0
EndChar

StartChar: B
Encoding: 66 66 14
Width: 305
Flags: MW
HStem: 20 56<140 155 155 168 140 186> 337 37 651 59<115 119 119 162>
VStem: 50 57<413 415 415 647> 166 85 186 75<20 50 106 331 331 331>
LayerCount: 2
UndoRedoHistory
Layer: 0
Undoes
EndUndoes
Redoes
EndRedoes
EndUndoRedoHistory
UndoRedoHistory
Layer: 1
Undoes
EndUndoes
Redoes
EndRedoes
EndUndoRedoHistory
Fore
SplineSet
221 397 m 1,0,1
 221 386 221 386 219 382 c 128,-1,2
 217 378 217 378 210 374 c 1,3,4
 222 372 222 372 228.5 370.5 c 128,-1,5
 235 369 235 369 244 366.5 c 128,-1,6
 253 364 253 364 257 360.5 c 128,-1,7
 261 357 261 357 261 352 c 2,8,-1
 261 50 l 2,9,10
 261 40 261 40 252 33 c 128,-1,11
 243 26 243 26 228 23.5 c 128,-1,12
 213 21 213 21 203.5 20.5 c 128,-1,13
 194 20 194 20 186 20 c 2,14,-1
 50 20 l 1,15,-1
 50 710 l 1,16,-1
 163 710 l 2,17,18
 175 710 175 710 187.5 708.5 c 128,-1,19
 200 707 200 707 215.5 702.5 c 128,-1,20
 231 698 231 698 241 687.5 c 128,-1,21
 251 677 251 677 251 662 c 1,22,-1
 250 652 l 1,23,-1
 221 397 l 1,0,1
107 415 m 2,24,25
 107 407 107 407 119 407 c 1,26,-1
 157 422 l 1,27,28
 166 423 166 423 166 431 c 2,29,-1
 176 647 l 2,30,31
 176 651 176 651 162 651 c 2,32,-1
 119 651 l 2,33,34
 107 651 107 651 107 647 c 2,35,-1
 107 415 l 2,24,25
155 76 m 2,36,37
 173 76 173 76 180.5 84 c 128,-1,38
 188 92 188 92 188 100 c 0,39,40
 188 106 188 106 186 106 c 1,41,-1
 186 331 l 1,42,43
 189 332 189 332 189 334 c 0,44,45
 189 337 189 337 182 337 c 2,46,-1
 140 337 l 2,47,48
 138 337 138 337 135 335.5 c 128,-1,49
 132 334 132 334 130.5 333 c 128,-1,50
 129 332 129 332 129 331 c 2,51,-1
 129 79 l 2,52,53
 129 76 129 76 140 76 c 2,54,-1
 155 76 l 2,36,37
EndSplineSet
Validated: 8388609
Substitution2: "Single Substitution lookup 20 subtable" b
Substitution2: "'aalt' Access All Alternates lookup 0 subtable" b
Position2: "'cpsp' Capital Spacing lookup 0 subtable" dx=5 dy=0 dh=10 dv=0
EndChar

StartChar: C
Encoding: 67 67 15
Width: 333
Flags: MW
HStem: 0 83<141 151 151 200 200 204 141 294> 651 59<134 148 148 190>
VStem: 50 75 202 92
LayerCount: 2
UndoRedoHistory
Layer: 0
Undoes
EndUndoes
Redoes
EndRedoes
EndUndoRedoHistory
UndoRedoHistory
Layer: 1
Undoes
EndUndoes
Redoes
EndRedoes
EndUndoRedoHistory
Fore
SplineSet
294 0 m 1,0,-1
 151 0 l 2,1,2
 99 0 99 0 74.5 17.5 c 128,-1,3
 50 35 50 35 50 62 c 2,4,-1
 50 654 l 2,5,6
 50 678 50 678 71 694 c 128,-1,7
 92 710 92 710 130 710 c 2,8,-1
 294 710 l 1,9,-1
 294 654 l 1,10,-1
 278 529 l 1,11,-1
 212 529 l 1,12,-1
 202 642 l 1,13,14
 202 651 202 651 190 651 c 2,15,-1
 148 651 l 2,16,17
 129 651 129 651 120.5 635.5 c 128,-1,18
 112 620 112 620 112 601 c 0,19,20
 112 590 112 590 115 588 c 1,21,-1
 135 89 l 1,22,23
 132 88 132 88 132 86 c 0,24,25
 132 83 132 83 141 83 c 2,26,-1
 200 83 l 2,27,28
 212 83 212 83 212 89 c 1,29,-1
 232 167 l 1,30,-1
 294 167 l 1,31,-1
 294 0 l 1,0,-1
EndSplineSet
Validated: 1
Substitution2: "Single Substitution lookup 20 subtable" c
Substitution2: "'aalt' Access All Alternates lookup 0 subtable" c
Position2: "'cpsp' Capital Spacing lookup 0 subtable" dx=5 dy=0 dh=10 dv=0
EndChar

StartChar: Cacute
Encoding: 262 262 16
Width: 333
Flags: MW
HStem: 0 83<141 151 151 200 200 204 141 294> 651 59<134 148 148 190>
VStem: 50 75 202 92
LayerCount: 2
UndoRedoHistory
Layer: 0
Undoes
EndUndoes
Redoes
EndRedoes
EndUndoRedoHistory
UndoRedoHistory
Layer: 1
Undoes
EndUndoes
Redoes
EndRedoes
EndUndoRedoHistory
Fore
SplineSet
266 852 m 1,0,-1
 170 768 l 1,1,-1
 136 792 l 1,2,-1
 220 900 l 1,3,-1
 266 852 l 1,0,-1
294 0 m 1,4,-1
 151 0 l 2,5,6
 99 0 99 0 74.5 17.5 c 128,-1,7
 50 35 50 35 50 62 c 2,8,-1
 50 654 l 2,9,10
 50 678 50 678 71 694 c 128,-1,11
 92 710 92 710 130 710 c 2,12,-1
 294 710 l 1,13,-1
 294 654 l 1,14,-1
 278 529 l 1,15,-1
 212 529 l 1,16,-1
 202 642 l 1,17,18
 202 651 202 651 190 651 c 2,19,-1
 148 651 l 2,20,21
 129 651 129 651 120.5 635.5 c 128,-1,22
 112 620 112 620 112 601 c 0,23,24
 112 590 112 590 115 588 c 1,25,-1
 135 89 l 1,26,27
 132 88 132 88 132 86 c 0,28,29
 132 83 132 83 141 83 c 2,30,-1
 200 83 l 2,31,32
 212 83 212 83 212 89 c 1,33,-1
 232 167 l 1,34,-1
 294 167 l 1,35,-1
 294 0 l 1,4,-1
EndSplineSet
Validated: 1
Substitution2: "Single Substitution lookup 20 subtable" cacute
Substitution2: "'locl' Localized Forms in Latin lookup 11 subtable" Cacute.loclPLK
AlternateSubs2: "'aalt' Access All Alternates lookup 1 subtable" Cacute.loclPLK cacute
Position2: "'cpsp' Capital Spacing lookup 0 subtable" dx=5 dy=0 dh=10 dv=0
EndChar

StartChar: Ccaron
Encoding: 268 268 17
Width: 333
Flags: MW
HStem: 0 83<141 151 151 200 200 204 141 294> 651 59<134 148 148 190>
VStem: 50 75 202 92
LayerCount: 2
UndoRedoHistory
Layer: 0
Undoes
EndUndoes
Redoes
EndRedoes
EndUndoRedoHistory
UndoRedoHistory
Layer: 1
Undoes
EndUndoes
Redoes
EndRedoes
EndUndoRedoHistory
Fore
SplineSet
169 771 m 1,0,-1
 95 881 l 1,1,-1
 124 900 l 1,2,-1
 189 838 l 1,3,-1
 254 900 l 1,4,-1
 283 881 l 1,5,-1
 209 768 l 1,6,-1
 169 771 l 1,0,-1
294 0 m 1,7,-1
 151 0 l 2,8,9
 99 0 99 0 74.5 17.5 c 128,-1,10
 50 35 50 35 50 62 c 2,11,-1
 50 654 l 2,12,13
 50 678 50 678 71 694 c 128,-1,14
 92 710 92 710 130 710 c 2,15,-1
 294 710 l 1,16,-1
 294 654 l 1,17,-1
 278 529 l 1,18,-1
 212 529 l 1,19,-1
 202 642 l 1,20,21
 202 651 202 651 190 651 c 2,22,-1
 148 651 l 2,23,24
 129 651 129 651 120.5 635.5 c 128,-1,25
 112 620 112 620 112 601 c 0,26,27
 112 590 112 590 115 588 c 1,28,-1
 135 89 l 1,29,30
 132 88 132 88 132 86 c 0,31,32
 132 83 132 83 141 83 c 2,33,-1
 200 83 l 2,34,35
 212 83 212 83 212 89 c 1,36,-1
 232 167 l 1,37,-1
 294 167 l 1,38,-1
 294 0 l 1,7,-1
EndSplineSet
Validated: 1
Substitution2: "Single Substitution lookup 20 subtable" ccaron
Substitution2: "'aalt' Access All Alternates lookup 0 subtable" ccaron
Position2: "'cpsp' Capital Spacing lookup 0 subtable" dx=5 dy=0 dh=10 dv=0
EndChar

StartChar: Ccedilla
Encoding: 199 199 18
Width: 333
Flags: MW
HStem: -208 58<70 193 70 199> -93 48 0 83<192 200 200 204 141 294 192 192> 651 59<134 148 148 190>
VStem: 50 75 70 187<-162 -150 -150 -150> 202 92
LayerCount: 2
UndoRedoHistory
Layer: 0
Undoes
EndUndoes
Redoes
EndRedoes
EndUndoRedoHistory
UndoRedoHistory
Layer: 1
Undoes
EndUndoes
Redoes
EndRedoes
EndUndoRedoHistory
Fore
SplineSet
294 0 m 1,0,-1
 192 0 l 1,1,-1
 169 -45 l 1,2,-1
 281 -45 l 1,3,-1
 257 -148 l 1,4,5
 257 -169 257 -169 236 -188.5 c 128,-1,6
 215 -208 215 -208 193 -208 c 2,7,-1
 70 -208 l 1,8,-1
 70 -150 l 1,9,-1
 199 -150 l 1,10,-1
 209 -97 l 1,11,-1
 104 -89 l 1,12,-1
 129 1 l 1,13,14
 88 4 88 4 69 21 c 128,-1,15
 50 38 50 38 50 62 c 2,16,-1
 50 654 l 2,17,18
 50 678 50 678 71 694 c 128,-1,19
 92 710 92 710 130 710 c 2,20,-1
 294 710 l 1,21,-1
 294 654 l 1,22,-1
 278 529 l 1,23,-1
 212 529 l 1,24,-1
 202 642 l 1,25,26
 202 651 202 651 190 651 c 2,27,-1
 148 651 l 2,28,29
 129 651 129 651 120.5 635.5 c 128,-1,30
 112 620 112 620 112 601 c 0,31,32
 112 590 112 590 115 588 c 1,33,-1
 135 89 l 1,34,35
 132 88 132 88 132 86 c 0,36,37
 132 83 132 83 141 83 c 2,38,-1
 200 83 l 2,39,40
 212 83 212 83 212 89 c 1,41,-1
 232 167 l 1,42,-1
 294 167 l 1,43,-1
 294 0 l 1,0,-1
EndSplineSet
Validated: 8388609
Substitution2: "Single Substitution lookup 20 subtable" ccedilla
Substitution2: "'aalt' Access All Alternates lookup 0 subtable" ccedilla
Position2: "'cpsp' Capital Spacing lookup 0 subtable" dx=5 dy=0 dh=10 dv=0
EndChar

StartChar: Ccircumflex
Encoding: 264 264 19
Width: 333
Flags: MW
HStem: 0 83<141 151 151 200 200 204 141 294> 651 59<134 148 148 190>
VStem: 50 75 202 92
LayerCount: 2
UndoRedoHistory
Layer: 0
Undoes
EndUndoes
Redoes
EndRedoes
EndUndoRedoHistory
UndoRedoHistory
Layer: 1
Undoes
EndUndoes
Redoes
EndRedoes
EndUndoRedoHistory
Fore
SplineSet
206 897 m 1,0,-1
 280 787 l 1,1,-1
 251 768 l 1,2,-1
 186 830 l 1,3,-1
 121 768 l 1,4,-1
 92 787 l 1,5,-1
 166 900 l 1,6,-1
 206 897 l 1,0,-1
294 0 m 1,7,-1
 151 0 l 2,8,9
 99 0 99 0 74.5 17.5 c 128,-1,10
 50 35 50 35 50 62 c 2,11,-1
 50 654 l 2,12,13
 50 678 50 678 71 694 c 128,-1,14
 92 710 92 710 130 710 c 2,15,-1
 294 710 l 1,16,-1
 294 654 l 1,17,-1
 278 529 l 1,18,-1
 212 529 l 1,19,-1
 202 642 l 1,20,21
 202 651 202 651 190 651 c 2,22,-1
 148 651 l 2,23,24
 129 651 129 651 120.5 635.5 c 128,-1,25
 112 620 112 620 112 601 c 0,26,27
 112 590 112 590 115 588 c 1,28,-1
 135 89 l 1,29,30
 132 88 132 88 132 86 c 0,31,32
 132 83 132 83 141 83 c 2,33,-1
 200 83 l 2,34,35
 212 83 212 83 212 89 c 1,36,-1
 232 167 l 1,37,-1
 294 167 l 1,38,-1
 294 0 l 1,7,-1
EndSplineSet
Validated: 1
Substitution2: "Single Substitution lookup 20 subtable" ccircumflex
Substitution2: "'aalt' Access All Alternates lookup 0 subtable" ccircumflex
Position2: "'cpsp' Capital Spacing lookup 0 subtable" dx=5 dy=0 dh=10 dv=0
EndChar

StartChar: Cdotaccent
Encoding: 266 266 20
Width: 333
Flags: MW
HStem: 0 83<141 151 151 200 200 204 141 294> 651 59<134 148 148 190> 804 97
VStem: 50 75 142 91 202 92
LayerCount: 2
UndoRedoHistory
Layer: 0
Undoes
EndUndoes
Redoes
EndRedoes
EndUndoRedoHistory
UndoRedoHistory
Layer: 1
Undoes
EndUndoes
Redoes
EndRedoes
EndUndoRedoHistory
Fore
SplineSet
233 900 m 1,0,-1
 233 805 l 1,1,-1
 144 802 l 1,2,-1
 140 900 l 1,3,-1
 233 900 l 1,0,-1
294 0 m 1,4,-1
 151 0 l 2,5,6
 99 0 99 0 74.5 17.5 c 128,-1,7
 50 35 50 35 50 62 c 2,8,-1
 50 654 l 2,9,10
 50 678 50 678 71 694 c 128,-1,11
 92 710 92 710 130 710 c 2,12,-1
 294 710 l 1,13,-1
 294 654 l 1,14,-1
 278 529 l 1,15,-1
 212 529 l 1,16,-1
 202 642 l 1,17,18
 202 651 202 651 190 651 c 2,19,-1
 148 651 l 2,20,21
 129 651 129 651 120.5 635.5 c 128,-1,22
 112 620 112 620 112 601 c 0,23,24
 112 590 112 590 115 588 c 1,25,-1
 135 89 l 1,26,27
 132 88 132 88 132 86 c 0,28,29
 132 83 132 83 141 83 c 2,30,-1
 200 83 l 2,31,32
 212 83 212 83 212 89 c 1,33,-1
 232 167 l 1,34,-1
 294 167 l 1,35,-1
 294 0 l 1,4,-1
EndSplineSet
Validated: 8388609
Substitution2: "Single Substitution lookup 20 subtable" cdotaccent
Substitution2: "'aalt' Access All Alternates lookup 0 subtable" cdotaccent
Position2: "'cpsp' Capital Spacing lookup 0 subtable" dx=5 dy=0 dh=10 dv=0
EndChar

StartChar: D
Encoding: 68 68 21
Width: 311
Flags: MW
HStem: 0 68 644 66<129 131 131 165 165 176>
VStem: 50 72<72 638 72 710> 177 97
LayerCount: 2
UndoRedoHistory
Layer: 0
Undoes
EndUndoes
Redoes
EndRedoes
EndUndoRedoHistory
UndoRedoHistory
Layer: 1
Undoes
EndUndoes
Redoes
EndRedoes
EndUndoRedoHistory
Fore
SplineSet
165 710 m 2,0,1
 213 710 213 710 243.5 679 c 128,-1,2
 274 648 274 648 274 600 c 1,3,-1
 244 57 l 1,4,-1
 183 0 l 1,5,-1
 50 0 l 1,6,-1
 50 710 l 1,7,-1
 165 710 l 2,0,1
188 638 m 2,8,9
 188 644 188 644 176 644 c 2,10,-1
 131 644 l 2,11,12
 129 644 129 644 125.5 642 c 128,-1,13
 122 640 122 640 122 638 c 2,14,-1
 122 72 l 1,15,-1
 131 66 l 1,16,-1
 168 71 l 1,17,18
 177 77 177 77 177 84 c 2,19,-1
 188 638 l 2,8,9
EndSplineSet
Validated: 1
Substitution2: "Single Substitution lookup 20 subtable" d
Substitution2: "'aalt' Access All Alternates lookup 0 subtable" d
Position2: "'cpsp' Capital Spacing lookup 0 subtable" dx=5 dy=0 dh=10 dv=0
EndChar

StartChar: DZ
Encoding: 497 497 22
Width: 613
Flags: MW
HStem: 0 68 644 66<129 131 131 165 165 176>
VStem: 50 72<72 638 72 710> 177 97
LayerCount: 2
UndoRedoHistory
Layer: 0
Undoes
EndUndoes
Redoes
EndRedoes
EndUndoRedoHistory
UndoRedoHistory
Layer: 1
Undoes
EndUndoes
Redoes
EndRedoes
EndUndoRedoHistory
Fore
SplineSet
165 710 m 2,0,1
 213 710 213 710 243.5 679 c 128,-1,2
 274 648 274 648 274 600 c 1,3,-1
 244 57 l 1,4,-1
 183 0 l 1,5,-1
 50 0 l 1,6,-1
 50 710 l 1,7,-1
 165 710 l 2,0,1
576 65 m 1,8,-1
 584 0 l 1,9,-1
 360 0 l 1,10,-1
 342 22 l 1,11,-1
 376 88 l 1,12,-1
 494 638 l 1,13,-1
 358 670 l 1,14,-1
 358 710 l 1,15,-1
 553 710 l 1,16,-1
 584 679 l 1,17,-1
 442 84 l 1,18,-1
 576 65 l 1,8,-1
188 638 m 2,19,20
 188 644 188 644 176 644 c 2,21,-1
 131 644 l 2,22,23
 129 644 129 644 125.5 642 c 128,-1,24
 122 640 122 640 122 638 c 2,25,-1
 122 72 l 1,26,-1
 131 66 l 1,27,-1
 168 71 l 1,28,29
 177 77 177 77 177 84 c 2,30,-1
 188 638 l 2,19,20
EndSplineSet
Validated: 1
Substitution2: "Single Substitution lookup 20 subtable" dz
Substitution2: "'aalt' Access All Alternates lookup 0 subtable" dz
Position2: "'cpsp' Capital Spacing lookup 0 subtable" dx=5 dy=0 dh=10 dv=0
EndChar

StartChar: DZcaron
Encoding: 452 452 23
Width: 613
Flags: MW
HStem: 0 22<342 360 342 584> 0 68 644 66<129 131 131 165 165 176> 670 40<358 358> 679 31
VStem: 50 72<72 638 72 710> 177 97
LayerCount: 2
UndoRedoHistory
Layer: 0
Undoes
EndUndoes
Redoes
EndRedoes
EndUndoRedoHistory
UndoRedoHistory
Layer: 1
Undoes
EndUndoes
Redoes
EndRedoes
EndUndoRedoHistory
Fore
SplineSet
449 771 m 1,0,-1
 375 881 l 1,1,-1
 404 900 l 1,2,-1
 469 838 l 1,3,-1
 534 900 l 1,4,-1
 563 881 l 1,5,-1
 489 768 l 1,6,-1
 449 771 l 1,0,-1
165 710 m 2,7,8
 213 710 213 710 243.5 679 c 128,-1,9
 274 648 274 648 274 600 c 1,10,-1
 244 57 l 1,11,-1
 183 0 l 1,12,-1
 50 0 l 1,13,-1
 50 710 l 1,14,-1
 165 710 l 2,7,8
342 22 m 1,15,-1
 376 88 l 1,16,-1
 494 638 l 1,17,-1
 358 670 l 1,18,-1
 358 710 l 1,19,-1
 553 710 l 1,20,-1
 584 679 l 1,21,-1
 442 84 l 1,22,-1
 576 65 l 1,23,-1
 584 0 l 1,24,-1
 360 0 l 1,25,-1
 342 22 l 1,15,-1
188 638 m 2,26,27
 188 644 188 644 176 644 c 2,28,-1
 131 644 l 2,29,30
 129 644 129 644 125.5 642 c 128,-1,31
 122 640 122 640 122 638 c 2,32,-1
 122 72 l 1,33,-1
 131 66 l 1,34,-1
 168 71 l 1,35,36
 177 77 177 77 177 84 c 2,37,-1
 188 638 l 2,26,27
EndSplineSet
Validated: 8388609
Substitution2: "Single Substitution lookup 20 subtable" dzcaron
Substitution2: "'aalt' Access All Alternates lookup 0 subtable" dzcaron
Position2: "'cpsp' Capital Spacing lookup 0 subtable" dx=5 dy=0 dh=10 dv=0
EndChar

StartChar: Eth
Encoding: 208 208 24
Width: 311
Flags: MW
HStem: 0 68 338 57 644 66<129 131 131 165 165 176>
VStem: 50 72<72 338 72 338 72 338 393 638> 177 98
LayerCount: 2
UndoRedoHistory
Layer: 0
Undoes
EndUndoes
Redoes
EndRedoes
EndUndoRedoHistory
UndoRedoHistory
Layer: 1
Undoes
EndUndoes
Redoes
EndRedoes
EndUndoRedoHistory
Fore
SplineSet
50 710 m 1,0,-1
 165 710 l 2,1,2
 204 710 204 710 239.5 682.5 c 128,-1,3
 275 655 275 655 275 616 c 0,4,5
 275 615 275 615 274.5 609 c 128,-1,6
 274 603 274 603 274 600 c 2,7,-1
 244 57 l 2,8,9
 243 38 243 38 235 25.5 c 128,-1,10
 227 13 227 13 215.5 8 c 128,-1,11
 204 3 204 3 196 1.5 c 128,-1,12
 188 0 188 0 183 0 c 2,13,-1
 50 0 l 1,14,-1
 50 338 l 1,15,-1
 0 338 l 1,16,-1
 -3 396 l 1,17,-1
 50 393 l 1,18,-1
 50 710 l 1,0,-1
188 638 m 2,19,20
 188 644 188 644 176 644 c 2,21,-1
 131 644 l 2,22,23
 129 644 129 644 125.5 642 c 128,-1,24
 122 640 122 640 122 638 c 2,25,-1
 122 389 l 1,26,-1
 157 387 l 1,27,-1
 157 338 l 1,28,-1
 122 338 l 1,29,-1
 122 72 l 1,30,-1
 131 66 l 1,31,-1
 168 71 l 1,32,33
 177 77 177 77 177 84 c 2,34,-1
 188 638 l 2,19,20
EndSplineSet
Validated: 1
Substitution2: "Single Substitution lookup 20 subtable" eth
Substitution2: "'aalt' Access All Alternates lookup 0 subtable" eth
Position2: "'cpsp' Capital Spacing lookup 0 subtable" dx=5 dy=0 dh=10 dv=0
EndChar

StartChar: Dcaron
Encoding: 270 270 25
Width: 311
Flags: MW
HStem: 0 68 644 66<129 131 131 165 165 176>
VStem: 50 72<72 638 72 710> 177 97
LayerCount: 2
UndoRedoHistory
Layer: 0
Undoes
EndUndoes
Redoes
EndRedoes
EndUndoRedoHistory
UndoRedoHistory
Layer: 1
Undoes
EndUndoes
Redoes
EndRedoes
EndUndoRedoHistory
Fore
SplineSet
138 771 m 1,0,-1
 64 881 l 1,1,-1
 93 900 l 1,2,-1
 158 838 l 1,3,-1
 223 900 l 1,4,-1
 252 881 l 1,5,-1
 178 768 l 1,6,-1
 138 771 l 1,0,-1
165 710 m 2,7,8
 213 710 213 710 243.5 679 c 128,-1,9
 274 648 274 648 274 600 c 1,10,-1
 244 57 l 1,11,-1
 183 0 l 1,12,-1
 50 0 l 1,13,-1
 50 710 l 1,14,-1
 165 710 l 2,7,8
188 638 m 2,15,16
 188 644 188 644 176 644 c 2,17,-1
 131 644 l 2,18,19
 129 644 129 644 125.5 642 c 128,-1,20
 122 640 122 640 122 638 c 2,21,-1
 122 72 l 1,22,-1
 131 66 l 1,23,-1
 168 71 l 1,24,25
 177 77 177 77 177 84 c 2,26,-1
 188 638 l 2,15,16
EndSplineSet
Validated: 1
Substitution2: "Single Substitution lookup 20 subtable" dcaron
Substitution2: "'aalt' Access All Alternates lookup 0 subtable" dcaron
Position2: "'cpsp' Capital Spacing lookup 0 subtable" dx=5 dy=0 dh=10 dv=0
EndChar

StartChar: Dcroat
Encoding: 272 272 26
Width: 311
Flags: MW
HStem: 0 68 338 57 644 66<129 131 131 165 165 176>
VStem: 50 72<72 338 72 338 72 338 393 638> 177 98
LayerCount: 2
UndoRedoHistory
Layer: 0
Undoes
EndUndoes
Redoes
EndRedoes
EndUndoRedoHistory
UndoRedoHistory
Layer: 1
Undoes
EndUndoes
Redoes
EndRedoes
EndUndoRedoHistory
Fore
SplineSet
50 710 m 1,0,-1
 165 710 l 2,1,2
 204 710 204 710 239.5 682.5 c 128,-1,3
 275 655 275 655 275 616 c 0,4,5
 275 615 275 615 274.5 609 c 128,-1,6
 274 603 274 603 274 600 c 2,7,-1
 244 57 l 2,8,9
 243 38 243 38 235 25.5 c 128,-1,10
 227 13 227 13 215.5 8 c 128,-1,11
 204 3 204 3 196 1.5 c 128,-1,12
 188 0 188 0 183 0 c 2,13,-1
 50 0 l 1,14,-1
 50 338 l 1,15,-1
 0 338 l 1,16,-1
 -3 396 l 1,17,-1
 50 393 l 1,18,-1
 50 710 l 1,0,-1
188 638 m 2,19,20
 188 644 188 644 176 644 c 2,21,-1
 131 644 l 2,22,23
 129 644 129 644 125.5 642 c 128,-1,24
 122 640 122 640 122 638 c 2,25,-1
 122 389 l 1,26,-1
 157 387 l 1,27,-1
 157 338 l 1,28,-1
 122 338 l 1,29,-1
 122 72 l 1,30,-1
 131 66 l 1,31,-1
 168 71 l 1,32,33
 177 77 177 77 177 84 c 2,34,-1
 188 638 l 2,19,20
EndSplineSet
Validated: 1
Substitution2: "Single Substitution lookup 20 subtable" dcroat
Substitution2: "'aalt' Access All Alternates lookup 0 subtable" dcroat
Position2: "'cpsp' Capital Spacing lookup 0 subtable" dx=5 dy=0 dh=10 dv=0
EndChar

StartChar: Ddotbelow
Encoding: 7692 7692 27
Width: 311
Flags: MW
HStem: -152 97 0 68 644 66<129 131 131 165 165 176>
VStem: 50 72<72 638 72 710> 98 91 177 97
LayerCount: 2
UndoRedoHistory
Layer: 0
Undoes
EndUndoes
Redoes
EndRedoes
EndUndoRedoHistory
UndoRedoHistory
Layer: 1
Undoes
EndUndoes
Redoes
EndRedoes
EndUndoRedoHistory
Fore
SplineSet
165 710 m 2,0,1
 213 710 213 710 243.5 679 c 128,-1,2
 274 648 274 648 274 600 c 1,3,-1
 244 57 l 1,4,-1
 183 0 l 1,5,-1
 50 0 l 1,6,-1
 50 710 l 1,7,-1
 165 710 l 2,0,1
188 638 m 2,8,9
 188 644 188 644 176 644 c 2,10,-1
 131 644 l 2,11,12
 129 644 129 644 125.5 642 c 128,-1,13
 122 640 122 640 122 638 c 2,14,-1
 122 72 l 1,15,-1
 131 66 l 1,16,-1
 168 71 l 1,17,18
 177 77 177 77 177 84 c 2,19,-1
 188 638 l 2,8,9
189 -56 m 1,20,-1
 189 -151 l 1,21,-1
 100 -154 l 1,22,-1
 96 -56 l 1,23,-1
 189 -56 l 1,20,-1
EndSplineSet
Validated: 8388609
Substitution2: "Single Substitution lookup 20 subtable" ddotbelow
Substitution2: "'aalt' Access All Alternates lookup 0 subtable" ddotbelow
Position2: "'cpsp' Capital Spacing lookup 0 subtable" dx=5 dy=0 dh=10 dv=0
EndChar

StartChar: E
Encoding: 69 69 28
Width: 315
Flags: MW
HStem: 20 83<134 134 134 281> 376 50<129 238> 632 78<129 272 129 129>
VStem: 58 77
LayerCount: 2
UndoRedoHistory
Layer: 0
Undoes
EndUndoes
Redoes
EndRedoes
EndUndoRedoHistory
UndoRedoHistory
Layer: 1
Undoes
EndUndoes
Redoes
EndRedoes
EndUndoRedoHistory
Fore
SplineSet
46 20 m 1,0,-1
 69 710 l 1,1,-1
 272 710 l 1,2,-1
 272 632 l 1,3,-1
 129 632 l 1,4,-1
 129 426 l 1,5,-1
 238 426 l 1,6,-1
 238 376 l 1,7,-1
 134 358 l 1,8,-1
 134 103 l 1,9,-1
 269 121 l 1,10,-1
 281 20 l 1,11,-1
 46 20 l 1,0,-1
EndSplineSet
Validated: 1
Substitution2: "Single Substitution lookup 21 subtable" e
Substitution2: "'aalt' Access All Alternates lookup 0 subtable" e
Position2: "'cpsp' Capital Spacing lookup 0 subtable" dx=5 dy=0 dh=10 dv=0
EndChar

StartChar: Eacute
Encoding: 201 201 29
Width: 315
Flags: MW
HStem: 20 83<134 134 134 281> 376 50<129 238> 632 78<129 272 129 129>
VStem: 58 77
LayerCount: 2
UndoRedoHistory
Layer: 0
Undoes
EndUndoes
Redoes
EndRedoes
EndUndoRedoHistory
UndoRedoHistory
Layer: 1
Undoes
EndUndoes
Redoes
EndRedoes
EndUndoRedoHistory
Fore
SplineSet
243 852 m 1,0,-1
 147 768 l 1,1,-1
 113 792 l 1,2,-1
 197 900 l 1,3,-1
 243 852 l 1,0,-1
46 20 m 1,4,-1
 69 710 l 1,5,-1
 272 710 l 1,6,-1
 272 632 l 1,7,-1
 129 632 l 1,8,-1
 129 426 l 1,9,-1
 238 426 l 1,10,-1
 238 376 l 1,11,-1
 134 358 l 1,12,-1
 134 103 l 1,13,-1
 269 121 l 1,14,-1
 281 20 l 1,15,-1
 46 20 l 1,4,-1
EndSplineSet
Validated: 1
Substitution2: "Single Substitution lookup 21 subtable" eacute
Substitution2: "'aalt' Access All Alternates lookup 0 subtable" eacute
Position2: "'cpsp' Capital Spacing lookup 0 subtable" dx=5 dy=0 dh=10 dv=0
EndChar

StartChar: Ebreve
Encoding: 276 276 30
Width: 315
Flags: MW
HStem: 20 83<134 134 134 281> 376 50<129 238> 632 78<129 272 129 129> 785 47 846 48<120 120>
VStem: 58 77 74 48 241 44
LayerCount: 2
UndoRedoHistory
Layer: 0
Undoes
EndUndoes
Redoes
EndRedoes
EndUndoRedoHistory
UndoRedoHistory
Layer: 1
Undoes
EndUndoes
Redoes
EndRedoes
EndUndoRedoHistory
Fore
SplineSet
120 846 m 1,0,-1
 132 835 l 1,1,-1
 242 830 l 1,2,-1
 239 896 l 1,3,-1
 285 900 l 1,4,-1
 285 824 l 1,5,-1
 246 785 l 1,6,-1
 121 785 l 1,7,-1
 76 813 l 1,8,-1
 72 894 l 1,9,-1
 125 894 l 1,10,-1
 120 846 l 1,0,-1
46 20 m 1,11,-1
 69 710 l 1,12,-1
 272 710 l 1,13,-1
 272 632 l 1,14,-1
 129 632 l 1,15,-1
 129 426 l 1,16,-1
 238 426 l 1,17,-1
 238 376 l 1,18,-1
 134 358 l 1,19,-1
 134 103 l 1,20,-1
 269 121 l 1,21,-1
 281 20 l 1,22,-1
 46 20 l 1,11,-1
EndSplineSet
Validated: 8388609
Substitution2: "Single Substitution lookup 21 subtable" ebreve
Substitution2: "'aalt' Access All Alternates lookup 0 subtable" ebreve
Position2: "'cpsp' Capital Spacing lookup 0 subtable" dx=5 dy=0 dh=10 dv=0
EndChar

StartChar: Ecaron
Encoding: 282 282 31
Width: 315
Flags: MW
HStem: 20 83<134 134 134 281> 376 50<129 238> 632 78<129 272 129 129>
VStem: 58 77
LayerCount: 2
UndoRedoHistory
Layer: 0
Undoes
EndUndoes
Redoes
EndRedoes
EndUndoRedoHistory
UndoRedoHistory
Layer: 1
Undoes
EndUndoes
Redoes
EndRedoes
EndUndoRedoHistory
Fore
SplineSet
156 771 m 1,0,-1
 82 881 l 1,1,-1
 111 900 l 1,2,-1
 176 838 l 1,3,-1
 241 900 l 1,4,-1
 270 881 l 1,5,-1
 196 768 l 1,6,-1
 156 771 l 1,0,-1
46 20 m 1,7,-1
 69 710 l 1,8,-1
 272 710 l 1,9,-1
 272 632 l 1,10,-1
 129 632 l 1,11,-1
 129 426 l 1,12,-1
 238 426 l 1,13,-1
 238 376 l 1,14,-1
 134 358 l 1,15,-1
 134 103 l 1,16,-1
 269 121 l 1,17,-1
 281 20 l 1,18,-1
 46 20 l 1,7,-1
EndSplineSet
Validated: 1
Substitution2: "Single Substitution lookup 21 subtable" ecaron
Substitution2: "'aalt' Access All Alternates lookup 0 subtable" ecaron
Position2: "'cpsp' Capital Spacing lookup 0 subtable" dx=5 dy=0 dh=10 dv=0
EndChar

StartChar: Ecircumflex
Encoding: 202 202 32
Width: 315
Flags: MW
HStem: 20 83<134 134 134 281> 376 50<129 238> 632 78<129 272 129 129>
VStem: 58 77
LayerCount: 2
UndoRedoHistory
Layer: 0
Undoes
EndUndoes
Redoes
EndRedoes
EndUndoRedoHistory
UndoRedoHistory
Layer: 1
Undoes
EndUndoes
Redoes
EndRedoes
EndUndoRedoHistory
Fore
SplineSet
198 896 m 1,0,-1
 272 786 l 1,1,-1
 243 767 l 1,2,-1
 178 829 l 1,3,-1
 113 767 l 1,4,-1
 84 786 l 1,5,-1
 158 899 l 1,6,-1
 198 896 l 1,0,-1
46 20 m 1,7,-1
 69 710 l 1,8,-1
 272 710 l 1,9,-1
 272 632 l 1,10,-1
 129 632 l 1,11,-1
 129 426 l 1,12,-1
 238 426 l 1,13,-1
 238 376 l 1,14,-1
 134 358 l 1,15,-1
 134 103 l 1,16,-1
 269 121 l 1,17,-1
 281 20 l 1,18,-1
 46 20 l 1,7,-1
EndSplineSet
Validated: 1
Substitution2: "Single Substitution lookup 21 subtable" ecircumflex
Substitution2: "'aalt' Access All Alternates lookup 0 subtable" ecircumflex
Position2: "'cpsp' Capital Spacing lookup 0 subtable" dx=5 dy=0 dh=10 dv=0
EndChar

StartChar: Edieresis
Encoding: 203 203 33
Width: 315
Flags: MW
HStem: 20 83<134 134 134 281> 376 50<129 238> 632 78<129 272 129 129> 817 82
VStem: 43 81 58 77 194 78
LayerCount: 2
UndoRedoHistory
Layer: 0
Undoes
EndUndoes
Redoes
EndRedoes
EndUndoRedoHistory
UndoRedoHistory
Layer: 1
Undoes
EndUndoes
Redoes
EndRedoes
EndUndoRedoHistory
Fore
SplineSet
126 900 m 1,0,-1
 122 817 l 1,1,-1
 43 817 l 1,2,-1
 43 897 l 1,3,-1
 126 900 l 1,0,-1
272 900 m 1,4,-1
 272 820 l 1,5,-1
 196 817 l 1,6,-1
 193 900 l 1,7,-1
 272 900 l 1,4,-1
46 20 m 1,8,-1
 69 710 l 1,9,-1
 272 710 l 1,10,-1
 272 632 l 1,11,-1
 129 632 l 1,12,-1
 129 426 l 1,13,-1
 238 426 l 1,14,-1
 238 376 l 1,15,-1
 134 358 l 1,16,-1
 134 103 l 1,17,-1
 269 121 l 1,18,-1
 281 20 l 1,19,-1
 46 20 l 1,8,-1
EndSplineSet
Validated: 8388609
Substitution2: "Single Substitution lookup 21 subtable" edieresis
Substitution2: "'aalt' Access All Alternates lookup 0 subtable" edieresis
Position2: "'cpsp' Capital Spacing lookup 0 subtable" dx=5 dy=0 dh=10 dv=0
EndChar

StartChar: Edotaccent
Encoding: 278 278 34
Width: 315
Flags: MW
HStem: 20 83<134 134 134 281> 376 50<129 238> 632 78<129 272 129 129> 804 97
VStem: 58 77 129 91
LayerCount: 2
UndoRedoHistory
Layer: 0
Undoes
EndUndoes
Redoes
EndRedoes
EndUndoRedoHistory
UndoRedoHistory
Layer: 1
Undoes
EndUndoes
Redoes
EndRedoes
EndUndoRedoHistory
Fore
SplineSet
220 900 m 1,0,-1
 220 805 l 1,1,-1
 131 802 l 1,2,-1
 127 900 l 1,3,-1
 220 900 l 1,0,-1
46 20 m 1,4,-1
 69 710 l 1,5,-1
 272 710 l 1,6,-1
 272 632 l 1,7,-1
 129 632 l 1,8,-1
 129 426 l 1,9,-1
 238 426 l 1,10,-1
 238 376 l 1,11,-1
 134 358 l 1,12,-1
 134 103 l 1,13,-1
 269 121 l 1,14,-1
 281 20 l 1,15,-1
 46 20 l 1,4,-1
EndSplineSet
Validated: 8388609
Substitution2: "Single Substitution lookup 21 subtable" edotaccent
Substitution2: "'aalt' Access All Alternates lookup 0 subtable" edotaccent
Position2: "'cpsp' Capital Spacing lookup 0 subtable" dx=5 dy=0 dh=10 dv=0
EndChar

StartChar: Edotbelow
Encoding: 7864 7864 35
Width: 315
Flags: MW
HStem: -152 97 20 83<134 134 134 281> 376 50<129 238> 632 78<129 272 129 129>
VStem: 58 77 115 91
LayerCount: 2
UndoRedoHistory
Layer: 0
Undoes
EndUndoes
Redoes
EndRedoes
EndUndoRedoHistory
UndoRedoHistory
Layer: 1
Undoes
EndUndoes
Redoes
EndRedoes
EndUndoRedoHistory
Fore
SplineSet
46 20 m 1,0,-1
 69 710 l 1,1,-1
 272 710 l 1,2,-1
 272 632 l 1,3,-1
 129 632 l 1,4,-1
 129 426 l 1,5,-1
 238 426 l 1,6,-1
 238 376 l 1,7,-1
 134 358 l 1,8,-1
 134 103 l 1,9,-1
 269 121 l 1,10,-1
 281 20 l 1,11,-1
 46 20 l 1,0,-1
206 -56 m 1,12,-1
 206 -151 l 1,13,-1
 117 -154 l 1,14,-1
 113 -56 l 1,15,-1
 206 -56 l 1,12,-1
EndSplineSet
Validated: 8388609
Substitution2: "Single Substitution lookup 21 subtable" edotbelow
Substitution2: "'aalt' Access All Alternates lookup 0 subtable" edotbelow
Position2: "'cpsp' Capital Spacing lookup 0 subtable" dx=5 dy=0 dh=10 dv=0
EndChar

StartChar: Egrave
Encoding: 200 200 36
Width: 315
Flags: MW
HStem: 20 83<134 134 134 281> 376 50<129 238> 632 78<129 272 129 129>
VStem: 58 77
LayerCount: 2
UndoRedoHistory
Layer: 0
Undoes
EndUndoes
Redoes
EndRedoes
EndUndoRedoHistory
UndoRedoHistory
Layer: 1
Undoes
EndUndoes
Redoes
EndRedoes
EndUndoRedoHistory
Fore
SplineSet
199 767 m 1,0,-1
 103 851 l 1,1,-1
 149 899 l 1,2,-1
 233 791 l 1,3,-1
 199 767 l 1,0,-1
46 20 m 1,4,-1
 69 710 l 1,5,-1
 272 710 l 1,6,-1
 272 632 l 1,7,-1
 129 632 l 1,8,-1
 129 426 l 1,9,-1
 238 426 l 1,10,-1
 238 376 l 1,11,-1
 134 358 l 1,12,-1
 134 103 l 1,13,-1
 269 121 l 1,14,-1
 281 20 l 1,15,-1
 46 20 l 1,4,-1
EndSplineSet
Validated: 1
Substitution2: "Single Substitution lookup 21 subtable" egrave
Substitution2: "'aalt' Access All Alternates lookup 0 subtable" egrave
Position2: "'cpsp' Capital Spacing lookup 0 subtable" dx=5 dy=0 dh=10 dv=0
EndChar

StartChar: Emacron
Encoding: 274 274 37
Width: 315
Flags: MW
HStem: 20 83<134 134 134 281> 376 50<129 238> 632 78<129 272 129 129> 832 60
VStem: 58 77
LayerCount: 2
UndoRedoHistory
Layer: 0
Undoes
EndUndoes
Redoes
EndRedoes
EndUndoRedoHistory
UndoRedoHistory
Layer: 1
Undoes
EndUndoes
Redoes
EndRedoes
EndUndoRedoHistory
Fore
SplineSet
306 836 m 1,0,-1
 41 827 l 1,1,-1
 38 891 l 1,2,-1
 306 891 l 1,3,-1
 306 836 l 1,0,-1
46 20 m 1,4,-1
 69 710 l 1,5,-1
 272 710 l 1,6,-1
 272 632 l 1,7,-1
 129 632 l 1,8,-1
 129 426 l 1,9,-1
 238 426 l 1,10,-1
 238 376 l 1,11,-1
 134 358 l 1,12,-1
 134 103 l 1,13,-1
 269 121 l 1,14,-1
 281 20 l 1,15,-1
 46 20 l 1,4,-1
EndSplineSet
Validated: 1
Substitution2: "Single Substitution lookup 21 subtable" emacron
Substitution2: "'aalt' Access All Alternates lookup 0 subtable" emacron
Position2: "'cpsp' Capital Spacing lookup 0 subtable" dx=5 dy=0 dh=10 dv=0
EndChar

StartChar: Eogonek
Encoding: 280 280 38
Width: 315
Flags: MW
HStem: 376 50<129 238> 632 78<129 272 129 129>
VStem: 58 77 123 30<20 20>
LayerCount: 2
UndoRedoHistory
Layer: 0
Undoes
EndUndoes
Redoes
EndRedoes
EndUndoRedoHistory
UndoRedoHistory
Layer: 1
Undoes
EndUndoes
Redoes
EndRedoes
EndUndoRedoHistory
Fore
SplineSet
153 20 m 1,0,-1
 153 0 l 1,1,-1
 127 -83 l 1,2,-1
 161 -145 l 1,3,-1
 250 -100 l 1,4,-1
 266 -146 l 1,5,-1
 153 -209 l 1,6,-1
 65 -95 l 1,7,-1
 123 20 l 1,8,-1
 46 20 l 1,9,-1
 69 710 l 1,10,-1
 272 710 l 1,11,-1
 272 632 l 1,12,-1
 129 632 l 1,13,-1
 129 426 l 1,14,-1
 238 426 l 1,15,-1
 238 376 l 1,16,-1
 134 358 l 1,17,-1
 134 103 l 1,18,-1
 269 121 l 1,19,-1
 281 20 l 1,20,-1
 153 20 l 1,0,-1
EndSplineSet
Validated: 8388609
Substitution2: "Single Substitution lookup 21 subtable" eogonek
Substitution2: "'aalt' Access All Alternates lookup 0 subtable" eogonek
Position2: "'cpsp' Capital Spacing lookup 0 subtable" dx=5 dy=0 dh=10 dv=0
EndChar

StartChar: Etilde
Encoding: 7868 7868 39
Width: 315
Flags: MW
HStem: 20 83<134 134 134 281> 376 50<129 238> 632 78<129 272 129 129>
VStem: 58 77 64 227
LayerCount: 2
UndoRedoHistory
Layer: 0
Undoes
EndUndoes
Redoes
EndRedoes
EndUndoRedoHistory
UndoRedoHistory
Layer: 1
Undoes
EndUndoes
Redoes
EndRedoes
EndUndoRedoHistory
Fore
SplineSet
89 883 m 1,0,1
 107 897 107 897 127 897 c 0,2,3
 152 897 152 897 181 877 c 1,4,-1
 219 852 l 1,5,-1
 291 900 l 1,6,-1
 291 840 l 1,7,-1
 267 817 l 1,8,9
 242 794 242 794 223 794 c 0,10,11
 205 794 205 794 178 813 c 2,12,-1
 134 844 l 1,13,-1
 66 791 l 1,14,-1
 63 860 l 1,15,-1
 89 883 l 1,0,1
46 20 m 1,16,-1
 69 710 l 1,17,-1
 272 710 l 1,18,-1
 272 632 l 1,19,-1
 129 632 l 1,20,-1
 129 426 l 1,21,-1
 238 426 l 1,22,-1
 238 376 l 1,23,-1
 134 358 l 1,24,-1
 134 103 l 1,25,-1
 269 121 l 1,26,-1
 281 20 l 1,27,-1
 46 20 l 1,16,-1
EndSplineSet
Validated: 8388609
Substitution2: "Single Substitution lookup 21 subtable" etilde
Substitution2: "'aalt' Access All Alternates lookup 0 subtable" etilde
Position2: "'cpsp' Capital Spacing lookup 0 subtable" dx=5 dy=0 dh=10 dv=0
EndChar

StartChar: F
Encoding: 70 70 40
Width: 280
Flags: MW
HStem: 0 21G<45 133 45 45> 373 50<128 237> 622 88<128 251 128 128>
VStem: 57 77
LayerCount: 2
UndoRedoHistory
Layer: 0
Undoes
EndUndoes
Redoes
EndRedoes
EndUndoRedoHistory
UndoRedoHistory
Layer: 1
Undoes
EndUndoes
Redoes
EndRedoes
EndUndoRedoHistory
Fore
SplineSet
68 710 m 1,0,-1
 251 710 l 1,1,-1
 251 622 l 1,2,-1
 128 622 l 1,3,-1
 128 423 l 1,4,-1
 237 423 l 1,5,-1
 237 373 l 1,6,-1
 133 355 l 1,7,-1
 133 0 l 1,8,-1
 45 0 l 1,9,-1
 68 710 l 1,0,-1
EndSplineSet
Validated: 1
Substitution2: "Single Substitution lookup 20 subtable" f
Substitution2: "'aalt' Access All Alternates lookup 0 subtable" f
Position2: "'cpsp' Capital Spacing lookup 0 subtable" dx=5 dy=0 dh=10 dv=0
EndChar

StartChar: G
Encoding: 71 71 41
Width: 376
Flags: MW
HStem: 20 72<88 229 156 229 229 233 156 312> 299 63 651 59<145 159 159 226>
VStem: 50 85<105 110 105 656> 249 63<100 104> 256 43<561 710>
LayerCount: 2
UndoRedoHistory
Layer: 0
Undoes
EndUndoes
Redoes
EndRedoes
EndUndoRedoHistory
UndoRedoHistory
Layer: 1
Undoes
EndUndoes
Redoes
EndRedoes
EndUndoRedoHistory
Fore
SplineSet
102 20 m 2,0,1
 81 20 81 20 65.5 40.5 c 128,-1,2
 50 61 50 61 50 97 c 2,3,-1
 50 656 l 1,4,-1
 86 710 l 1,5,-1
 299 710 l 1,6,-1
 299 561 l 1,7,-1
 256 561 l 1,8,-1
 226 651 l 1,9,-1
 159 651 l 2,10,11
 118 651 118 651 117 606 c 1,12,-1
 135 110 l 2,13,14
 135 104 135 104 142 98 c 128,-1,15
 149 92 149 92 156 92 c 2,16,-1
 229 92 l 2,17,18
 236 92 236 92 242.5 95.5 c 128,-1,19
 249 99 249 99 249 104 c 2,20,-1
 259 298 l 1,21,-1
 199 300 l 1,22,-1
 199 356 l 1,23,-1
 312 369 l 1,24,-1
 312 20 l 1,25,-1
 102 20 l 2,0,1
EndSplineSet
Validated: 8388609
Substitution2: "Single Substitution lookup 20 subtable" g
Substitution2: "'aalt' Access All Alternates lookup 0 subtable" g
Position2: "'cpsp' Capital Spacing lookup 0 subtable" dx=5 dy=0 dh=10 dv=0
EndChar

StartChar: Gbreve
Encoding: 286 286 42
Width: 376
Flags: MW
HStem: 20 72<88 229 156 229 229 233 156 312> 299 63 651 59<145 159 159 226> 785 47 846 48<133 133>
VStem: 50 85<105 110 105 656> 87 48 249 63<100 104> 253 44
LayerCount: 2
UndoRedoHistory
Layer: 0
Undoes
EndUndoes
Redoes
EndRedoes
EndUndoRedoHistory
UndoRedoHistory
Layer: 1
Undoes
EndUndoes
Redoes
EndRedoes
EndUndoRedoHistory
Fore
SplineSet
133 846 m 1,0,-1
 145 835 l 1,1,-1
 255 830 l 1,2,-1
 252 896 l 1,3,-1
 298 900 l 1,4,-1
 298 824 l 1,5,-1
 259 785 l 1,6,-1
 134 785 l 1,7,-1
 89 813 l 1,8,-1
 85 894 l 1,9,-1
 138 894 l 1,10,-1
 133 846 l 1,0,-1
102 20 m 2,11,12
 81 20 81 20 65.5 40.5 c 128,-1,13
 50 61 50 61 50 97 c 2,14,-1
 50 656 l 1,15,-1
 86 710 l 1,16,-1
 299 710 l 1,17,-1
 299 561 l 1,18,-1
 256 561 l 1,19,-1
 226 651 l 1,20,-1
 159 651 l 2,21,22
 118 651 118 651 117 606 c 1,23,-1
 135 110 l 2,24,25
 135 104 135 104 142 98 c 128,-1,26
 149 92 149 92 156 92 c 2,27,-1
 229 92 l 2,28,29
 236 92 236 92 242.5 95.5 c 128,-1,30
 249 99 249 99 249 104 c 2,31,-1
 259 298 l 1,32,-1
 199 300 l 1,33,-1
 199 356 l 1,34,-1
 312 369 l 1,35,-1
 312 20 l 1,36,-1
 102 20 l 2,11,12
EndSplineSet
Validated: 8388609
Substitution2: "Single Substitution lookup 20 subtable" gbreve
Substitution2: "'aalt' Access All Alternates lookup 0 subtable" gbreve
Position2: "'cpsp' Capital Spacing lookup 0 subtable" dx=5 dy=0 dh=10 dv=0
EndChar

StartChar: Gcircumflex
Encoding: 284 284 43
Width: 376
Flags: MW
HStem: 20 72<88 229 156 229 229 233 156 312> 299 63 651 59<145 159 159 226>
VStem: 50 85<105 110 105 656> 249 63<100 104> 256 43<561 710>
LayerCount: 2
UndoRedoHistory
Layer: 0
Undoes
EndUndoes
Redoes
EndRedoes
EndUndoRedoHistory
UndoRedoHistory
Layer: 1
Undoes
EndUndoes
Redoes
EndRedoes
EndUndoRedoHistory
Fore
SplineSet
209 897 m 1,0,-1
 283 787 l 1,1,-1
 254 768 l 1,2,-1
 189 830 l 1,3,-1
 124 768 l 1,4,-1
 95 787 l 1,5,-1
 169 900 l 1,6,-1
 209 897 l 1,0,-1
102 20 m 2,7,8
 81 20 81 20 65.5 40.5 c 128,-1,9
 50 61 50 61 50 97 c 2,10,-1
 50 656 l 1,11,-1
 86 710 l 1,12,-1
 299 710 l 1,13,-1
 299 561 l 1,14,-1
 256 561 l 1,15,-1
 226 651 l 1,16,-1
 159 651 l 2,17,18
 118 651 118 651 117 606 c 1,19,-1
 135 110 l 2,20,21
 135 104 135 104 142 98 c 128,-1,22
 149 92 149 92 156 92 c 2,23,-1
 229 92 l 2,24,25
 236 92 236 92 242.5 95.5 c 128,-1,26
 249 99 249 99 249 104 c 2,27,-1
 259 298 l 1,28,-1
 199 300 l 1,29,-1
 199 356 l 1,30,-1
 312 369 l 1,31,-1
 312 20 l 1,32,-1
 102 20 l 2,7,8
EndSplineSet
Validated: 8388609
Substitution2: "Single Substitution lookup 20 subtable" gcircumflex
Substitution2: "'aalt' Access All Alternates lookup 0 subtable" gcircumflex
Position2: "'cpsp' Capital Spacing lookup 0 subtable" dx=5 dy=0 dh=10 dv=0
EndChar

StartChar: Gcommaaccent
Encoding: 290 290 44
Width: 376
Flags: MW
HStem: -250 21G<199 199> -160 82<148 190 148 229 148 232> 20 72<88 229 156 229 229 233 156 312> 299 63 651 59<145 159 159 226>
VStem: 50 85<105 110 105 656> 148 83 249 63<100 104> 256 43<561 710>
LayerCount: 2
UndoRedoHistory
Layer: 0
Undoes
EndUndoes
Redoes
EndRedoes
EndUndoRedoHistory
UndoRedoHistory
Layer: 1
Undoes
EndUndoes
Redoes
EndRedoes
EndUndoRedoHistory
Fore
SplineSet
102 20 m 2,0,1
 81 20 81 20 65.5 40.5 c 128,-1,2
 50 61 50 61 50 97 c 2,3,-1
 50 656 l 1,4,-1
 86 710 l 1,5,-1
 299 710 l 1,6,-1
 299 561 l 1,7,-1
 256 561 l 1,8,-1
 226 651 l 1,9,-1
 159 651 l 2,10,11
 118 651 118 651 117 606 c 1,12,-1
 135 110 l 2,13,14
 135 104 135 104 142 98 c 128,-1,15
 149 92 149 92 156 92 c 2,16,-1
 229 92 l 2,17,18
 236 92 236 92 242.5 95.5 c 128,-1,19
 249 99 249 99 249 104 c 2,20,-1
 259 298 l 1,21,-1
 199 300 l 1,22,-1
 199 356 l 1,23,-1
 312 369 l 1,24,-1
 312 20 l 1,25,-1
 102 20 l 2,0,1
229 -78 m 1,26,-1
 232 -160 l 1,27,-1
 199 -250 l 1,28,-1
 144 -234 l 1,29,-1
 190 -160 l 1,30,-1
 148 -160 l 1,31,-1
 148 -78 l 1,32,-1
 229 -78 l 1,26,-1
EndSplineSet
Validated: 8388609
Substitution2: "Single Substitution lookup 20 subtable" gcommaaccent
Substitution2: "'aalt' Access All Alternates lookup 0 subtable" gcommaaccent
Position2: "'cpsp' Capital Spacing lookup 0 subtable" dx=5 dy=0 dh=10 dv=0
EndChar

StartChar: Gdotaccent
Encoding: 288 288 45
Width: 376
Flags: MW
HStem: 20 72<88 229 156 229 229 233 156 312> 299 63 651 59<145 159 159 226> 804 97
VStem: 50 85<105 110 105 656> 145 91 249 63<100 104> 256 43<561 710>
LayerCount: 2
UndoRedoHistory
Layer: 0
Undoes
EndUndoes
Redoes
EndRedoes
EndUndoRedoHistory
UndoRedoHistory
Layer: 1
Undoes
EndUndoes
Redoes
EndRedoes
EndUndoRedoHistory
Fore
SplineSet
236 900 m 1,0,-1
 236 805 l 1,1,-1
 147 802 l 1,2,-1
 143 900 l 1,3,-1
 236 900 l 1,0,-1
102 20 m 2,4,5
 81 20 81 20 65.5 40.5 c 128,-1,6
 50 61 50 61 50 97 c 2,7,-1
 50 656 l 1,8,-1
 86 710 l 1,9,-1
 299 710 l 1,10,-1
 299 561 l 1,11,-1
 256 561 l 1,12,-1
 226 651 l 1,13,-1
 159 651 l 2,14,15
 118 651 118 651 117 606 c 1,16,-1
 135 110 l 2,17,18
 135 104 135 104 142 98 c 128,-1,19
 149 92 149 92 156 92 c 2,20,-1
 229 92 l 2,21,22
 236 92 236 92 242.5 95.5 c 128,-1,23
 249 99 249 99 249 104 c 2,24,-1
 259 298 l 1,25,-1
 199 300 l 1,26,-1
 199 356 l 1,27,-1
 312 369 l 1,28,-1
 312 20 l 1,29,-1
 102 20 l 2,4,5
EndSplineSet
Validated: 8388609
Substitution2: "Single Substitution lookup 20 subtable" gdotaccent
Substitution2: "'aalt' Access All Alternates lookup 0 subtable" gdotaccent
Position2: "'cpsp' Capital Spacing lookup 0 subtable" dx=5 dy=0 dh=10 dv=0
EndChar

StartChar: H
Encoding: 72 72 46
Width: 324
Flags: MW
HStem: 0 21G<60 130 60 60> 624 66<264 264> 690 20G
VStem: 48 69 192 83
LayerCount: 2
UndoRedoHistory
Layer: 0
Undoes
EndUndoes
Redoes
EndRedoes
EndUndoRedoHistory
UndoRedoHistory
Layer: 1
Undoes
EndUndoes
Redoes
EndRedoes
EndUndoRedoHistory
Fore
SplineSet
119 317 m 1,0,-1
 130 0 l 1,1,-1
 60 0 l 1,2,-1
 37 710 l 1,3,-1
 118 710 l 1,4,-1
 118 385 l 1,5,-1
 192 400 l 1,6,-1
 192 690 l 1,7,-1
 279 690 l 1,8,-1
 279 648 l 1,9,-1
 264 624 l 1,10,-1
 285 -20 l 1,11,-1
 220 -20 l 1,12,-1
 199 326 l 1,13,-1
 119 317 l 1,0,-1
EndSplineSet
Validated: 8388609
Substitution2: "Single Substitution lookup 20 subtable" h
Substitution2: "'aalt' Access All Alternates lookup 0 subtable" h
Position2: "'cpsp' Capital Spacing lookup 0 subtable" dx=5 dy=0 dh=10 dv=0
EndChar

StartChar: Hbar
Encoding: 294 294 47
Width: 324
Flags: MW
HStem: 0 21G<65 135 65 65> 518 52 624 66<269 269> 690 20G
VStem: 44 79 57 73 197 73 214 66
LayerCount: 2
UndoRedoHistory
Layer: 0
Undoes
EndUndoes
Redoes
EndRedoes
EndUndoRedoHistory
UndoRedoHistory
Layer: 1
Undoes
EndUndoes
Redoes
EndRedoes
EndUndoRedoHistory
Fore
SplineSet
124 317 m 1,0,-1
 135 0 l 1,1,-1
 65 0 l 1,2,-1
 48 513 l 1,3,-1
 3 513 l 1,4,-1
 0 570 l 1,5,-1
 46 570 l 1,6,-1
 42 710 l 1,7,-1
 123 710 l 1,8,-1
 123 570 l 1,9,-1
 197 570 l 1,10,-1
 197 690 l 1,11,-1
 284 690 l 1,12,-1
 284 648 l 1,13,-1
 269 624 l 1,14,-1
 271 570 l 1,15,-1
 325 570 l 1,16,-1
 325 524 l 1,17,-1
 272 522 l 1,18,-1
 290 -20 l 1,19,-1
 225 -20 l 1,20,-1
 204 326 l 1,21,-1
 124 317 l 1,0,-1
197 519 m 1,22,-1
 123 517 l 1,23,-1
 123 385 l 1,24,-1
 197 400 l 1,25,-1
 197 519 l 1,22,-1
EndSplineSet
Validated: 8388609
Substitution2: "Single Substitution lookup 20 subtable" hbar
Substitution2: "'aalt' Access All Alternates lookup 0 subtable" hbar
Position2: "'cpsp' Capital Spacing lookup 0 subtable" dx=5 dy=0 dh=10 dv=0
EndChar

StartChar: Hcircumflex
Encoding: 292 292 48
Width: 324
Flags: MW
HStem: 0 21G<60 130 60 60> 624 66<264 264> 690 20G
VStem: 48 69 192 83
LayerCount: 2
UndoRedoHistory
Layer: 0
Undoes
EndUndoes
Redoes
EndRedoes
EndUndoRedoHistory
UndoRedoHistory
Layer: 1
Undoes
EndUndoes
Redoes
EndRedoes
EndUndoRedoHistory
Fore
SplineSet
177 897 m 1,0,-1
 251 787 l 1,1,-1
 222 768 l 1,2,-1
 157 830 l 1,3,-1
 92 768 l 1,4,-1
 63 787 l 1,5,-1
 137 900 l 1,6,-1
 177 897 l 1,0,-1
119 317 m 1,7,-1
 130 0 l 1,8,-1
 60 0 l 1,9,-1
 37 710 l 1,10,-1
 118 710 l 1,11,-1
 118 385 l 1,12,-1
 192 400 l 1,13,-1
 192 690 l 1,14,-1
 279 690 l 1,15,-1
 279 648 l 1,16,-1
 264 624 l 1,17,-1
 285 -20 l 1,18,-1
 220 -20 l 1,19,-1
 199 326 l 1,20,-1
 119 317 l 1,7,-1
EndSplineSet
Validated: 8388609
Substitution2: "Single Substitution lookup 20 subtable" hcircumflex
Substitution2: "'aalt' Access All Alternates lookup 0 subtable" hcircumflex
Position2: "'cpsp' Capital Spacing lookup 0 subtable" dx=5 dy=0 dh=10 dv=0
EndChar

StartChar: Hdotbelow
Encoding: 7716 7716 49
Width: 324
Flags: MW
HStem: -152 97 0 21G<60 130 60 60> 624 66<264 264> 690 20G
VStem: 48 69 120 91 192 83
LayerCount: 2
UndoRedoHistory
Layer: 0
Undoes
EndUndoes
Redoes
EndRedoes
EndUndoRedoHistory
UndoRedoHistory
Layer: 1
Undoes
EndUndoes
Redoes
EndRedoes
EndUndoRedoHistory
Fore
SplineSet
119 317 m 1,0,-1
 130 0 l 1,1,-1
 60 0 l 1,2,-1
 37 710 l 1,3,-1
 118 710 l 1,4,-1
 118 385 l 1,5,-1
 192 400 l 1,6,-1
 192 690 l 1,7,-1
 279 690 l 1,8,-1
 279 648 l 1,9,-1
 264 624 l 1,10,-1
 285 -20 l 1,11,-1
 220 -20 l 1,12,-1
 199 326 l 1,13,-1
 119 317 l 1,0,-1
211 -56 m 1,14,-1
 211 -151 l 1,15,-1
 122 -154 l 1,16,-1
 118 -56 l 1,17,-1
 211 -56 l 1,14,-1
EndSplineSet
Validated: 8388609
Substitution2: "Single Substitution lookup 20 subtable" hdotbelow
Substitution2: "'aalt' Access All Alternates lookup 0 subtable" hdotbelow
Position2: "'cpsp' Capital Spacing lookup 0 subtable" dx=5 dy=0 dh=10 dv=0
EndChar

StartChar: I
Encoding: 73 73 50
Width: 177
Flags: MW
HStem: 0 21G<50 50 50 124> 690 20G<32 133 133 133>
VStem: 50 79
LayerCount: 2
UndoRedoHistory
Layer: 0
Undoes
EndUndoes
Redoes
EndRedoes
EndUndoRedoHistory
UndoRedoHistory
Layer: 1
Undoes
EndUndoes
Redoes
EndRedoes
EndUndoRedoHistory
Fore
SplineSet
50 0 m 1,0,-1
 50 616 l 1,1,-1
 32 664 l 1,2,-1
 32 710 l 1,3,-1
 133 710 l 1,4,-1
 124 0 l 1,5,-1
 50 0 l 1,0,-1
EndSplineSet
Validated: 1
Substitution2: "Single Substitution lookup 21 subtable" i
AlternateSubs2: "'aalt' Access All Alternates lookup 1 subtable" i
Position2: "'cpsp' Capital Spacing lookup 0 subtable" dx=5 dy=0 dh=10 dv=0
EndChar

StartChar: IJ
Encoding: 306 306 51
Width: 453
Flags: MW
HStem: 0 21G<50 50 50 124 219 400 400 400> 690 20G<32 133 133 133 313 409 313 313>
VStem: 50 79 265 66
LayerCount: 2
UndoRedoHistory
Layer: 0
Undoes
EndUndoes
Redoes
EndRedoes
EndUndoRedoHistory
UndoRedoHistory
Layer: 1
Undoes
EndUndoes
Redoes
EndRedoes
EndUndoRedoHistory
Fore
SplineSet
50 0 m 1,0,-1
 50 616 l 1,1,-1
 32 664 l 1,2,-1
 32 710 l 1,3,-1
 133 710 l 1,4,-1
 124 0 l 1,5,-1
 50 0 l 1,0,-1
313 710 m 1,6,-1
 409 710 l 1,7,-1
 400 0 l 1,8,-1
 219 0 l 1,9,-1
 183 172 l 1,10,-1
 262 192 l 1,11,-1
 267 54 l 1,12,-1
 331 49 l 1,13,-1
 331 616 l 1,14,-1
 313 664 l 1,15,-1
 313 710 l 1,6,-1
EndSplineSet
Validated: 1
Substitution2: "Single Substitution lookup 21 subtable" ij
Substitution2: "'aalt' Access All Alternates lookup 0 subtable" ij
Position2: "'cpsp' Capital Spacing lookup 0 subtable" dx=5 dy=0 dh=10 dv=0
EndChar

StartChar: Iacute
Encoding: 205 205 52
Width: 177
Flags: MW
HStem: 0 21G<50 50 50 124> 690 20G<32 133 133 133>
VStem: 50 79
LayerCount: 2
UndoRedoHistory
Layer: 0
Undoes
EndUndoes
Redoes
EndRedoes
EndUndoRedoHistory
UndoRedoHistory
Layer: 1
Undoes
EndUndoes
Redoes
EndRedoes
EndUndoRedoHistory
Fore
SplineSet
154 852 m 1,0,-1
 58 768 l 1,1,-1
 24 792 l 1,2,-1
 108 900 l 1,3,-1
 154 852 l 1,0,-1
50 0 m 1,4,-1
 50 616 l 1,5,-1
 32 664 l 1,6,-1
 32 710 l 1,7,-1
 133 710 l 1,8,-1
 124 0 l 1,9,-1
 50 0 l 1,4,-1
EndSplineSet
Validated: 1
Substitution2: "Single Substitution lookup 21 subtable" iacute
Substitution2: "'aalt' Access All Alternates lookup 0 subtable" iacute
Position2: "'cpsp' Capital Spacing lookup 0 subtable" dx=5 dy=0 dh=10 dv=0
EndChar

StartChar: Ibreve
Encoding: 300 300 53
Width: 177
Flags: MW
HStem: 0 21G<50 50 50 124> 690 20G<32 133 133 133> 785 47 846 48<30 30>
VStem: -16 48 50 79 150 44
LayerCount: 2
UndoRedoHistory
Layer: 0
Undoes
EndUndoes
Redoes
EndRedoes
EndUndoRedoHistory
UndoRedoHistory
Layer: 1
Undoes
EndUndoes
Redoes
EndRedoes
EndUndoRedoHistory
Fore
SplineSet
30 846 m 1,0,-1
 42 835 l 1,1,-1
 152 830 l 1,2,-1
 149 896 l 1,3,-1
 195 900 l 1,4,-1
 195 824 l 1,5,-1
 156 785 l 1,6,-1
 31 785 l 1,7,-1
 -14 813 l 1,8,-1
 -18 894 l 1,9,-1
 35 894 l 1,10,-1
 30 846 l 1,0,-1
50 0 m 1,11,-1
 50 616 l 1,12,-1
 32 664 l 1,13,-1
 32 710 l 1,14,-1
 133 710 l 1,15,-1
 124 0 l 1,16,-1
 50 0 l 1,11,-1
EndSplineSet
Validated: 1
Substitution2: "Single Substitution lookup 21 subtable" ibreve
Substitution2: "'aalt' Access All Alternates lookup 0 subtable" ibreve
Position2: "'cpsp' Capital Spacing lookup 0 subtable" dx=5 dy=0 dh=10 dv=0
EndChar

StartChar: Icircumflex
Encoding: 206 206 54
Width: 177
Flags: MW
HStem: 0 21G<50 50 50 124> 690 20G<32 133 133 133>
VStem: 50 79
LayerCount: 2
UndoRedoHistory
Layer: 0
Undoes
EndUndoes
Redoes
EndRedoes
EndUndoRedoHistory
UndoRedoHistory
Layer: 1
Undoes
EndUndoes
Redoes
EndRedoes
EndUndoRedoHistory
Fore
SplineSet
109 896 m 1,0,-1
 183 786 l 1,1,-1
 154 767 l 1,2,-1
 89 829 l 1,3,-1
 24 767 l 1,4,-1
 -5 786 l 1,5,-1
 69 899 l 1,6,-1
 109 896 l 1,0,-1
50 0 m 1,7,-1
 50 616 l 1,8,-1
 32 664 l 1,9,-1
 32 710 l 1,10,-1
 133 710 l 1,11,-1
 124 0 l 1,12,-1
 50 0 l 1,7,-1
EndSplineSet
Validated: 1
Substitution2: "Single Substitution lookup 21 subtable" icircumflex
Substitution2: "'aalt' Access All Alternates lookup 0 subtable" icircumflex
Position2: "'cpsp' Capital Spacing lookup 0 subtable" dx=5 dy=0 dh=10 dv=0
EndChar

StartChar: Idieresis
Encoding: 207 207 55
Width: 177
Flags: MW
HStem: 0 21G<50 50 50 124> 690 20G<32 133 133 133> 817 82
VStem: -25 81 50 79 126 78
LayerCount: 2
UndoRedoHistory
Layer: 0
Undoes
EndUndoes
Redoes
EndRedoes
EndUndoRedoHistory
UndoRedoHistory
Layer: 1
Undoes
EndUndoes
Redoes
EndRedoes
EndUndoRedoHistory
Fore
SplineSet
58 900 m 1,0,-1
 54 817 l 1,1,-1
 -25 817 l 1,2,-1
 -25 897 l 1,3,-1
 58 900 l 1,0,-1
204 900 m 1,4,-1
 204 820 l 1,5,-1
 128 817 l 1,6,-1
 125 900 l 1,7,-1
 204 900 l 1,4,-1
50 0 m 1,8,-1
 50 616 l 1,9,-1
 32 664 l 1,10,-1
 32 710 l 1,11,-1
 133 710 l 1,12,-1
 124 0 l 1,13,-1
 50 0 l 1,8,-1
EndSplineSet
Validated: 8388609
Substitution2: "Single Substitution lookup 21 subtable" idieresis
Substitution2: "'aalt' Access All Alternates lookup 0 subtable" idieresis
Position2: "'cpsp' Capital Spacing lookup 0 subtable" dx=5 dy=0 dh=10 dv=0
EndChar

StartChar: Idotaccent
Encoding: 304 304 56
Width: 177
Flags: MW
HStem: 0 21G<50 50 50 124> 690 20G<32 133 133 133> 804 97
VStem: 47 91 50 79
LayerCount: 2
UndoRedoHistory
Layer: 0
Undoes
EndUndoes
Redoes
EndRedoes
EndUndoRedoHistory
UndoRedoHistory
Layer: 1
Undoes
EndUndoes
Redoes
EndRedoes
EndUndoRedoHistory
Fore
SplineSet
138 900 m 1,0,-1
 138 805 l 1,1,-1
 49 802 l 1,2,-1
 45 900 l 1,3,-1
 138 900 l 1,0,-1
50 0 m 1,4,-1
 50 616 l 1,5,-1
 32 664 l 1,6,-1
 32 710 l 1,7,-1
 133 710 l 1,8,-1
 124 0 l 1,9,-1
 50 0 l 1,4,-1
EndSplineSet
Validated: 8388609
Substitution2: "Single Substitution lookup 21 subtable" i.loclTRK
Substitution2: "'aalt' Access All Alternates lookup 0 subtable" i.loclTRK
Position2: "'cpsp' Capital Spacing lookup 0 subtable" dx=5 dy=0 dh=10 dv=0
EndChar

StartChar: Idotbelow
Encoding: 7882 7882 57
Width: 177
Flags: MW
HStem: -152 97 0 21G<50 50 50 124> 690 20G<32 133 133 133>
VStem: 42 91 50 79
LayerCount: 2
UndoRedoHistory
Layer: 0
Undoes
EndUndoes
Redoes
EndRedoes
EndUndoRedoHistory
UndoRedoHistory
Layer: 1
Undoes
EndUndoes
Redoes
EndRedoes
EndUndoRedoHistory
Fore
SplineSet
50 0 m 1,0,-1
 50 616 l 1,1,-1
 32 664 l 1,2,-1
 32 710 l 1,3,-1
 133 710 l 1,4,-1
 124 0 l 1,5,-1
 50 0 l 1,0,-1
133 -56 m 1,6,-1
 133 -151 l 1,7,-1
 44 -154 l 1,8,-1
 40 -56 l 1,9,-1
 133 -56 l 1,6,-1
EndSplineSet
Validated: 8388609
Substitution2: "Single Substitution lookup 21 subtable" idotbelow
Substitution2: "'aalt' Access All Alternates lookup 0 subtable" idotbelow
Position2: "'cpsp' Capital Spacing lookup 0 subtable" dx=5 dy=0 dh=10 dv=0
EndChar

StartChar: Igrave
Encoding: 204 204 58
Width: 177
Flags: MW
HStem: 0 21G<50 50 50 124> 690 20G<32 133 133 133>
VStem: 50 79
LayerCount: 2
UndoRedoHistory
Layer: 0
Undoes
EndUndoes
Redoes
EndRedoes
EndUndoRedoHistory
UndoRedoHistory
Layer: 1
Undoes
EndUndoes
Redoes
EndRedoes
EndUndoRedoHistory
Fore
SplineSet
110 768 m 1,0,-1
 14 852 l 1,1,-1
 60 900 l 1,2,-1
 144 792 l 1,3,-1
 110 768 l 1,0,-1
50 0 m 1,4,-1
 50 616 l 1,5,-1
 32 664 l 1,6,-1
 32 710 l 1,7,-1
 133 710 l 1,8,-1
 124 0 l 1,9,-1
 50 0 l 1,4,-1
EndSplineSet
Validated: 1
Substitution2: "Single Substitution lookup 21 subtable" igrave
Substitution2: "'aalt' Access All Alternates lookup 0 subtable" igrave
Position2: "'cpsp' Capital Spacing lookup 0 subtable" dx=5 dy=0 dh=10 dv=0
EndChar

StartChar: Imacron
Encoding: 298 298 59
Width: 177
Flags: MW
HStem: 0 21G<50 50 50 124> 690 20G<32 133 133 133> 832 60
VStem: 50 79
LayerCount: 2
UndoRedoHistory
Layer: 0
Undoes
EndUndoes
Redoes
EndRedoes
EndUndoRedoHistory
UndoRedoHistory
Layer: 1
Undoes
EndUndoes
Redoes
EndRedoes
EndUndoRedoHistory
Fore
SplineSet
219 836 m 1,0,-1
 -46 827 l 1,1,-1
 -49 891 l 1,2,-1
 219 891 l 1,3,-1
 219 836 l 1,0,-1
50 0 m 1,4,-1
 50 616 l 1,5,-1
 32 664 l 1,6,-1
 32 710 l 1,7,-1
 133 710 l 1,8,-1
 124 0 l 1,9,-1
 50 0 l 1,4,-1
EndSplineSet
Validated: 1
Substitution2: "Single Substitution lookup 21 subtable" imacron
Substitution2: "'aalt' Access All Alternates lookup 0 subtable" imacron
Position2: "'cpsp' Capital Spacing lookup 0 subtable" dx=5 dy=0 dh=10 dv=0
EndChar

StartChar: Iogonek
Encoding: 302 302 60
Width: 177
Flags: MW
HStem: 0 21G<50 83 50 50 123 124 123 123> 690 20G<32 133 133 133>
VStem: 50 79
LayerCount: 2
UndoRedoHistory
Layer: 0
Undoes
EndUndoes
Redoes
EndRedoes
EndUndoRedoHistory
UndoRedoHistory
Layer: 1
Undoes
EndUndoes
Redoes
EndRedoes
EndUndoRedoHistory
Fore
SplineSet
123 0 m 1,0,-1
 97 -83 l 1,1,-1
 131 -145 l 1,2,-1
 220 -100 l 1,3,-1
 236 -146 l 1,4,-1
 123 -209 l 1,5,-1
 35 -95 l 1,6,-1
 83 0 l 1,7,-1
 50 0 l 1,8,-1
 50 616 l 1,9,-1
 32 664 l 1,10,-1
 32 710 l 1,11,-1
 133 710 l 1,12,-1
 124 0 l 1,13,-1
 123 0 l 1,0,-1
EndSplineSet
Validated: 1
Substitution2: "Single Substitution lookup 21 subtable" iogonek
Substitution2: "'aalt' Access All Alternates lookup 0 subtable" iogonek
Position2: "'cpsp' Capital Spacing lookup 0 subtable" dx=5 dy=0 dh=10 dv=0
EndChar

StartChar: Itilde
Encoding: 296 296 61
Width: 177
Flags: MW
HStem: 0 21G<50 50 50 124> 690 20G<32 133 133 133>
VStem: -23 227 50 79
LayerCount: 2
UndoRedoHistory
Layer: 0
Undoes
EndUndoes
Redoes
EndRedoes
EndUndoRedoHistory
UndoRedoHistory
Layer: 1
Undoes
EndUndoes
Redoes
EndRedoes
EndUndoRedoHistory
Fore
SplineSet
1 883 m 1,0,1
 19 897 19 897 39 897 c 0,2,3
 64 897 64 897 93 877 c 1,4,-1
 131 852 l 1,5,-1
 203 900 l 1,6,-1
 203 840 l 1,7,-1
 179 817 l 1,8,9
 154 794 154 794 135 794 c 0,10,11
 117 794 117 794 90 813 c 2,12,-1
 46 844 l 1,13,-1
 -22 791 l 1,14,-1
 -25 860 l 1,15,-1
 1 883 l 1,0,1
50 0 m 1,16,-1
 50 616 l 1,17,-1
 32 664 l 1,18,-1
 32 710 l 1,19,-1
 133 710 l 1,20,-1
 124 0 l 1,21,-1
 50 0 l 1,16,-1
EndSplineSet
Validated: 8388609
Substitution2: "Single Substitution lookup 21 subtable" itilde
Substitution2: "'aalt' Access All Alternates lookup 0 subtable" itilde
Position2: "'cpsp' Capital Spacing lookup 0 subtable" dx=5 dy=0 dh=10 dv=0
EndChar

StartChar: J
Encoding: 74 74 62
Width: 300
Flags: MW
HStem: 0 51 690 20G<155 251 251 251>
VStem: 173 74
LayerCount: 2
UndoRedoHistory
Layer: 0
Undoes
EndUndoes
Redoes
EndRedoes
EndUndoRedoHistory
UndoRedoHistory
Layer: 1
Undoes
EndUndoes
Redoes
EndRedoes
EndUndoRedoHistory
Fore
SplineSet
61 0 m 1,0,-1
 25 172 l 1,1,-1
 104 192 l 1,2,-1
 109 54 l 1,3,-1
 173 49 l 1,4,-1
 173 616 l 1,5,-1
 155 664 l 1,6,-1
 155 710 l 1,7,-1
 251 710 l 1,8,-1
 242 0 l 1,9,-1
 61 0 l 1,0,-1
EndSplineSet
Validated: 1
Substitution2: "Single Substitution lookup 20 subtable" j
Substitution2: "'aalt' Access All Alternates lookup 0 subtable" j
Position2: "'cpsp' Capital Spacing lookup 0 subtable" dx=5 dy=0 dh=10 dv=0
EndChar

StartChar: Jcircumflex
Encoding: 308 308 63
Width: 300
Flags: MW
HStem: 0 51 690 20G<155 251 251 251>
VStem: 173 74
LayerCount: 2
UndoRedoHistory
Layer: 0
Undoes
EndUndoes
Redoes
EndRedoes
EndUndoRedoHistory
UndoRedoHistory
Layer: 1
Undoes
EndUndoes
Redoes
EndRedoes
EndUndoRedoHistory
Fore
SplineSet
224 897 m 1,0,-1
 298 787 l 1,1,-1
 269 768 l 1,2,-1
 204 830 l 1,3,-1
 139 768 l 1,4,-1
 110 787 l 1,5,-1
 184 900 l 1,6,-1
 224 897 l 1,0,-1
61 0 m 1,7,-1
 25 172 l 1,8,-1
 104 192 l 1,9,-1
 109 54 l 1,10,-1
 173 49 l 1,11,-1
 173 616 l 1,12,-1
 155 664 l 1,13,-1
 155 710 l 1,14,-1
 251 710 l 1,15,-1
 242 0 l 1,16,-1
 61 0 l 1,7,-1
EndSplineSet
Validated: 1
Substitution2: "Single Substitution lookup 20 subtable" jcircumflex
Substitution2: "'aalt' Access All Alternates lookup 0 subtable" jcircumflex
Position2: "'cpsp' Capital Spacing lookup 0 subtable" dx=5 dy=0 dh=10 dv=0
EndChar

StartChar: K
Encoding: 75 75 64
Width: 310
Flags: MW
HStem: 690 20G
VStem: 54 66 197 75
LayerCount: 2
UndoRedoHistory
Layer: 0
Undoes
EndUndoes
Redoes
EndRedoes
EndUndoRedoHistory
UndoRedoHistory
Layer: 1
Undoes
EndUndoes
Redoes
EndRedoes
EndUndoRedoHistory
Fore
SplineSet
197 -20 m 1,0,-1
 197 264 l 1,1,-1
 143 314 l 1,2,-1
 132 306 l 1,3,-1
 132 -20 l 1,4,-1
 65 -20 l 1,5,-1
 42 690 l 1,6,-1
 120 690 l 1,7,-1
 120 390 l 1,8,-1
 146 375 l 1,9,-1
 191 411 l 1,10,-1
 201 710 l 1,11,-1
 287 710 l 1,12,-1
 245 386 l 1,13,-1
 197 354 l 1,14,-1
 266 314 l 1,15,-1
 277 -20 l 1,16,-1
 197 -20 l 1,0,-1
EndSplineSet
Validated: 1
Substitution2: "Single Substitution lookup 20 subtable" k
Substitution2: "'aalt' Access All Alternates lookup 0 subtable" k
Position2: "'cpsp' Capital Spacing lookup 0 subtable" dx=5 dy=0 dh=10 dv=0
EndChar

StartChar: Kcommaaccent
Encoding: 310 310 65
Width: 310
Flags: MW
HStem: -250 21G<177 177> -160 82<126 168 126 207 126 210> 690 20G
VStem: 54 66 126 83 197 75
LayerCount: 2
UndoRedoHistory
Layer: 0
Undoes
EndUndoes
Redoes
EndRedoes
EndUndoRedoHistory
UndoRedoHistory
Layer: 1
Undoes
EndUndoes
Redoes
EndRedoes
EndUndoRedoHistory
Fore
SplineSet
197 -20 m 1,0,-1
 197 264 l 1,1,-1
 143 314 l 1,2,-1
 132 306 l 1,3,-1
 132 -20 l 1,4,-1
 65 -20 l 1,5,-1
 42 690 l 1,6,-1
 120 690 l 1,7,-1
 120 390 l 1,8,-1
 146 375 l 1,9,-1
 191 411 l 1,10,-1
 201 710 l 1,11,-1
 287 710 l 1,12,-1
 245 386 l 1,13,-1
 197 354 l 1,14,-1
 266 314 l 1,15,-1
 277 -20 l 1,16,-1
 197 -20 l 1,0,-1
207 -78 m 1,17,-1
 210 -160 l 1,18,-1
 177 -250 l 1,19,-1
 122 -234 l 1,20,-1
 168 -160 l 1,21,-1
 126 -160 l 1,22,-1
 126 -78 l 1,23,-1
 207 -78 l 1,17,-1
EndSplineSet
Validated: 8388609
Substitution2: "Single Substitution lookup 20 subtable" kcommaaccent
Substitution2: "'aalt' Access All Alternates lookup 0 subtable" kcommaaccent
Position2: "'cpsp' Capital Spacing lookup 0 subtable" dx=5 dy=0 dh=10 dv=0
EndChar

StartChar: L
Encoding: 76 76 66
Width: 263
Flags: MW
HStem: 0 64<50 239> 690 20G<50 147 147 147>
VStem: 50 86
LayerCount: 2
UndoRedoHistory
Layer: 0
Undoes
EndUndoes
Redoes
EndRedoes
EndUndoRedoHistory
UndoRedoHistory
Layer: 1
Undoes
EndUndoes
Redoes
EndRedoes
EndUndoRedoHistory
Fore
SplineSet
50 0 m 1,0,-1
 50 710 l 1,1,-1
 147 710 l 1,2,-1
 126 82 l 1,3,-1
 239 64 l 1,4,-1
 239 0 l 1,5,-1
 50 0 l 1,0,-1
EndSplineSet
Validated: 1
Substitution2: "Single Substitution lookup 20 subtable" l
Substitution2: "'aalt' Access All Alternates lookup 0 subtable" l
Position2: "'cpsp' Capital Spacing lookup 0 subtable" dx=5 dy=0 dh=10 dv=0
EndChar

StartChar: LJ
Encoding: 455 455 67
Width: 564
Flags: MW
HStem: 0 51 690 20G<50 147 147 147 419 515 515 515>
VStem: 50 86 437 74
LayerCount: 2
UndoRedoHistory
Layer: 0
Undoes
EndUndoes
Redoes
EndRedoes
EndUndoRedoHistory
UndoRedoHistory
Layer: 1
Undoes
EndUndoes
Redoes
EndRedoes
EndUndoRedoHistory
Fore
SplineSet
50 0 m 1,0,-1
 50 710 l 1,1,-1
 147 710 l 1,2,-1
 126 82 l 1,3,-1
 239 64 l 1,4,-1
 239 0 l 1,5,-1
 50 0 l 1,0,-1
325 0 m 1,6,-1
 289 172 l 1,7,-1
 368 192 l 1,8,-1
 373 54 l 1,9,-1
 437 49 l 1,10,-1
 437 616 l 1,11,-1
 419 664 l 1,12,-1
 419 710 l 1,13,-1
 515 710 l 1,14,-1
 506 0 l 1,15,-1
 325 0 l 1,6,-1
EndSplineSet
Validated: 1
Substitution2: "Single Substitution lookup 20 subtable" lj
Substitution2: "'aalt' Access All Alternates lookup 0 subtable" lj
Position2: "'cpsp' Capital Spacing lookup 0 subtable" dx=5 dy=0 dh=10 dv=0
EndChar

StartChar: Lacute
Encoding: 313 313 68
Width: 263
Flags: MW
HStem: 0 900<149 149 149 239 149 239>
VStem: 50 189<0 64 0 710 0 64>
LayerCount: 2
UndoRedoHistory
Layer: 0
Undoes
EndUndoes
Redoes
EndRedoes
EndUndoRedoHistory
UndoRedoHistory
Layer: 1
Undoes
EndUndoes
Redoes
EndRedoes
EndUndoRedoHistory
Fore
SplineSet
195 852 m 1,0,-1
 99 768 l 1,1,-1
 65 792 l 1,2,-1
 149 900 l 1,3,-1
 195 852 l 1,0,-1
126 82 m 1,4,-1
 239 64 l 1,5,-1
 239 0 l 1,6,-1
 50 0 l 1,7,-1
 50 710 l 1,8,-1
 147 710 l 1,9,-1
 126 82 l 1,4,-1
EndSplineSet
Validated: 1
Substitution2: "Single Substitution lookup 20 subtable" lacute
Substitution2: "'aalt' Access All Alternates lookup 0 subtable" lacute
Position2: "'cpsp' Capital Spacing lookup 0 subtable" dx=5 dy=0 dh=10 dv=0
EndChar

StartChar: Lcaron
Encoding: 317 317 69
Width: 263
Flags: MW
HStem: 710 47
VStem: 50 229<663 663 663 710>
LayerCount: 2
UndoRedoHistory
Layer: 0
Undoes
EndUndoes
Redoes
EndRedoes
EndUndoRedoHistory
UndoRedoHistory
Layer: 1
Undoes
EndUndoes
Redoes
EndRedoes
EndUndoRedoHistory
Fore
SplineSet
273 759 m 1,0,-1
 279 663 l 1,1,-1
 211 573 l 1,2,-1
 168 588 l 1,3,-1
 219 663 l 1,4,-1
 187 755 l 1,5,-1
 273 759 l 1,0,-1
126 82 m 1,6,-1
 239 64 l 1,7,-1
 239 0 l 1,8,-1
 50 0 l 1,9,-1
 50 710 l 1,10,-1
 147 710 l 1,11,-1
 126 82 l 1,6,-1
EndSplineSet
Validated: 1
Substitution2: "Single Substitution lookup 20 subtable" lcaron
Substitution2: "'aalt' Access All Alternates lookup 0 subtable" lcaron
Position2: "'cpsp' Capital Spacing lookup 0 subtable" dx=5 dy=0 dh=10 dv=0
EndChar

StartChar: Lcommaaccent
Encoding: 315 315 70
Width: 263
Flags: MW
HStem: -250 21G<143 143> -160 82<92 134 92 173 92 176> 0 64<50 239> 690 20G<50 147 147 147>
VStem: 50 86 92 83
LayerCount: 2
UndoRedoHistory
Layer: 0
Undoes
EndUndoes
Redoes
EndRedoes
EndUndoRedoHistory
UndoRedoHistory
Layer: 1
Undoes
EndUndoes
Redoes
EndRedoes
EndUndoRedoHistory
Fore
SplineSet
50 0 m 1,0,-1
 50 710 l 1,1,-1
 147 710 l 1,2,-1
 126 82 l 1,3,-1
 239 64 l 1,4,-1
 239 0 l 1,5,-1
 50 0 l 1,0,-1
173 -78 m 1,6,-1
 176 -160 l 1,7,-1
 143 -250 l 1,8,-1
 88 -234 l 1,9,-1
 134 -160 l 1,10,-1
 92 -160 l 1,11,-1
 92 -78 l 1,12,-1
 173 -78 l 1,6,-1
EndSplineSet
Validated: 8388609
Substitution2: "Single Substitution lookup 20 subtable" lcommaaccent
Substitution2: "'aalt' Access All Alternates lookup 0 subtable" lcommaaccent
Position2: "'cpsp' Capital Spacing lookup 0 subtable" dx=5 dy=0 dh=10 dv=0
EndChar

StartChar: Ldot
Encoding: 319 319 71
Width: 263
Flags: MW
HStem: 0 64<50 239> 324 94 690 20G<50 147 147 147>
VStem: 50 86 168 94
LayerCount: 2
UndoRedoHistory
Layer: 0
Undoes
EndUndoes
Redoes
EndRedoes
EndUndoRedoHistory
UndoRedoHistory
Layer: 1
Undoes
EndUndoes
Redoes
EndRedoes
EndUndoRedoHistory
Fore
SplineSet
50 0 m 1,0,-1
 50 710 l 1,1,-1
 147 710 l 1,2,-1
 126 82 l 1,3,-1
 239 64 l 1,4,-1
 239 0 l 1,5,-1
 50 0 l 1,0,-1
264 420 m 1,6,-1
 260 324 l 1,7,-1
 168 324 l 1,8,-1
 168 416 l 1,9,-1
 264 420 l 1,6,-1
EndSplineSet
Validated: 1
Substitution2: "Single Substitution lookup 20 subtable" ldot
Ligature2: "Ligature Substitution lookup 19 subtable" L periodcentered
Substitution2: "'aalt' Access All Alternates lookup 0 subtable" ldot
Position2: "'cpsp' Capital Spacing lookup 0 subtable" dx=5 dy=0 dh=10 dv=0
EndChar

StartChar: Lslash
Encoding: 321 321 72
Width: 263
Flags: MW
HStem: 0 64<50 239> 690 20G<50 147 147 147>
VStem: 50 81
LayerCount: 2
UndoRedoHistory
Layer: 0
Undoes
EndUndoes
Redoes
EndRedoes
EndUndoRedoHistory
UndoRedoHistory
Layer: 1
Undoes
EndUndoes
Redoes
EndRedoes
EndUndoRedoHistory
Fore
SplineSet
50 0 m 1,0,-1
 50 302 l 1,1,-1
 3 274 l 1,2,-1
 -23 328 l 1,3,-1
 50 369 l 1,4,-1
 50 710 l 1,5,-1
 147 710 l 1,6,-1
 137 418 l 1,7,-1
 218 464 l 1,8,-1
 243 418 l 1,9,-1
 135 353 l 1,10,-1
 126 82 l 1,11,-1
 239 64 l 1,12,-1
 239 0 l 1,13,-1
 50 0 l 1,0,-1
EndSplineSet
Validated: 1
Substitution2: "Single Substitution lookup 20 subtable" lslash
Substitution2: "'aalt' Access All Alternates lookup 0 subtable" lslash
Position2: "'cpsp' Capital Spacing lookup 0 subtable" dx=5 dy=0 dh=10 dv=0
EndChar

StartChar: M
Encoding: 77 77 73
Width: 351
Flags: MW
HStem: 0 21G<256 322 256 256> 610 100<82 86 82 82> 661 69<274 278 274 274>
VStem: 30 52<-20 610 -20 710> 267 55
LayerCount: 2
UndoRedoHistory
Layer: 0
Undoes
EndUndoes
Redoes
EndRedoes
EndUndoRedoHistory
UndoRedoHistory
Layer: 1
Undoes
EndUndoes
Redoes
EndRedoes
EndUndoRedoHistory
Fore
SplineSet
30 710 m 1,0,-1
 120 710 l 1,1,-1
 172 332 l 1,2,-1
 178 332 l 1,3,-1
 225 730 l 1,4,-1
 322 730 l 1,5,-1
 322 0 l 1,6,-1
 256 0 l 1,7,-1
 278 661 l 1,8,-1
 274 661 l 1,9,-1
 187 181 l 1,10,-1
 157 181 l 1,11,-1
 86 610 l 1,12,-1
 82 610 l 1,13,-1
 82 -20 l 1,14,-1
 30 -20 l 1,15,-1
 30 710 l 1,0,-1
EndSplineSet
Validated: 8388609
Substitution2: "Single Substitution lookup 20 subtable" m
Substitution2: "'aalt' Access All Alternates lookup 0 subtable" m
Position2: "'cpsp' Capital Spacing lookup 0 subtable" dx=5 dy=0 dh=10 dv=0
EndChar

StartChar: N
Encoding: 78 78 74
Width: 343
Flags: MW
HStem: 0 58<236 240 236 310 195 240> 651 59<89 93 89 89>
VStem: 30 59<0 651 0 710> 251 64
LayerCount: 2
UndoRedoHistory
Layer: 0
Undoes
EndUndoes
Redoes
EndRedoes
EndUndoRedoHistory
UndoRedoHistory
Layer: 1
Undoes
EndUndoes
Redoes
EndRedoes
EndUndoRedoHistory
Fore
SplineSet
195 0 m 1,0,-1
 93 651 l 1,1,-1
 89 651 l 1,2,-1
 89 0 l 1,3,-1
 30 0 l 1,4,-1
 30 710 l 1,5,-1
 146 710 l 1,6,-1
 236 58 l 1,7,-1
 240 58 l 1,8,-1
 262 710 l 1,9,-1
 320 710 l 1,10,-1
 310 0 l 1,11,-1
 195 0 l 1,0,-1
EndSplineSet
Validated: 1
Substitution2: "Single Substitution lookup 20 subtable" n
Substitution2: "'aalt' Access All Alternates lookup 0 subtable" n
Position2: "'cpsp' Capital Spacing lookup 0 subtable" dx=5 dy=0 dh=10 dv=0
EndChar

StartChar: NJ
Encoding: 458 458 75
Width: 644
Flags: MW
HStem: 0 51 651 59<89 93 89 89>
VStem: 30 59<0 651 0 710> 251 64 517 74
LayerCount: 2
UndoRedoHistory
Layer: 0
Undoes
EndUndoes
Redoes
EndRedoes
EndUndoRedoHistory
UndoRedoHistory
Layer: 1
Undoes
EndUndoes
Redoes
EndRedoes
EndUndoRedoHistory
Fore
SplineSet
195 0 m 1,0,-1
 93 651 l 1,1,-1
 89 651 l 1,2,-1
 89 0 l 1,3,-1
 30 0 l 1,4,-1
 30 710 l 1,5,-1
 146 710 l 1,6,-1
 236 58 l 1,7,-1
 240 58 l 1,8,-1
 262 710 l 1,9,-1
 320 710 l 1,10,-1
 310 0 l 1,11,-1
 195 0 l 1,0,-1
405 0 m 1,12,-1
 369 172 l 1,13,-1
 448 192 l 1,14,-1
 453 54 l 1,15,-1
 517 49 l 1,16,-1
 517 616 l 1,17,-1
 499 664 l 1,18,-1
 499 710 l 1,19,-1
 595 710 l 1,20,-1
 586 0 l 1,21,-1
 405 0 l 1,12,-1
EndSplineSet
Validated: 1
Substitution2: "Single Substitution lookup 20 subtable" nj
Substitution2: "'aalt' Access All Alternates lookup 0 subtable" nj
Position2: "'cpsp' Capital Spacing lookup 0 subtable" dx=5 dy=0 dh=10 dv=0
EndChar

StartChar: Nacute
Encoding: 323 323 76
Width: 343
Flags: MW
HStem: 710 82<128 128 128 146>
VStem: 89 162
LayerCount: 2
UndoRedoHistory
Layer: 0
Undoes
EndUndoes
Redoes
EndRedoes
EndUndoRedoHistory
UndoRedoHistory
Layer: 1
Undoes
EndUndoes
Redoes
EndRedoes
EndUndoRedoHistory
Fore
SplineSet
258 852 m 1,0,-1
 162 768 l 1,1,-1
 128 792 l 1,2,-1
 212 900 l 1,3,-1
 258 852 l 1,0,-1
262 710 m 1,4,-1
 320 710 l 1,5,-1
 310 0 l 1,6,-1
 195 0 l 1,7,-1
 93 651 l 1,8,-1
 89 651 l 1,9,-1
 89 0 l 1,10,-1
 30 0 l 1,11,-1
 30 710 l 1,12,-1
 146 710 l 1,13,-1
 236 58 l 1,14,-1
 240 58 l 1,15,-1
 262 710 l 1,4,-1
EndSplineSet
Validated: 1
Substitution2: "Single Substitution lookup 20 subtable" nacute
Substitution2: "'locl' Localized Forms in Latin lookup 11 subtable" Nacute.loclPLK
AlternateSubs2: "'aalt' Access All Alternates lookup 1 subtable" Nacute.loclPLK nacute
Position2: "'cpsp' Capital Spacing lookup 0 subtable" dx=5 dy=0 dh=10 dv=0
EndChar

StartChar: Ncaron
Encoding: 327 327 77
Width: 343
Flags: MW
HStem: 0 58<236 240 236 310 195 240> 651 59<89 93 89 89>
VStem: 30 59<0 651 0 710> 251 64
LayerCount: 2
UndoRedoHistory
Layer: 0
Undoes
EndUndoes
Redoes
EndRedoes
EndUndoRedoHistory
UndoRedoHistory
Layer: 1
Undoes
EndUndoes
Redoes
EndRedoes
EndUndoRedoHistory
Fore
SplineSet
164 771 m 1,0,-1
 90 881 l 1,1,-1
 119 900 l 1,2,-1
 184 838 l 1,3,-1
 249 900 l 1,4,-1
 278 881 l 1,5,-1
 204 768 l 1,6,-1
 164 771 l 1,0,-1
195 0 m 1,7,-1
 93 651 l 1,8,-1
 89 651 l 1,9,-1
 89 0 l 1,10,-1
 30 0 l 1,11,-1
 30 710 l 1,12,-1
 146 710 l 1,13,-1
 236 58 l 1,14,-1
 240 58 l 1,15,-1
 262 710 l 1,16,-1
 320 710 l 1,17,-1
 310 0 l 1,18,-1
 195 0 l 1,7,-1
EndSplineSet
Validated: 1
Substitution2: "Single Substitution lookup 20 subtable" ncaron
Substitution2: "'aalt' Access All Alternates lookup 0 subtable" ncaron
Position2: "'cpsp' Capital Spacing lookup 0 subtable" dx=5 dy=0 dh=10 dv=0
EndChar

StartChar: Ncommaaccent
Encoding: 325 325 78
Width: 343
Flags: MW
HStem: -250 21G<183 183> -160 82<132 174 132 213 132 216> 0 58<236 240 236 310 195 240> 651 59<89 93 89 89>
VStem: 30 59<0 651 0 710> 132 83 251 64
LayerCount: 2
UndoRedoHistory
Layer: 0
Undoes
EndUndoes
Redoes
EndRedoes
EndUndoRedoHistory
UndoRedoHistory
Layer: 1
Undoes
EndUndoes
Redoes
EndRedoes
EndUndoRedoHistory
Fore
SplineSet
195 0 m 1,0,-1
 93 651 l 1,1,-1
 89 651 l 1,2,-1
 89 0 l 1,3,-1
 30 0 l 1,4,-1
 30 710 l 1,5,-1
 146 710 l 1,6,-1
 236 58 l 1,7,-1
 240 58 l 1,8,-1
 262 710 l 1,9,-1
 320 710 l 1,10,-1
 310 0 l 1,11,-1
 195 0 l 1,0,-1
213 -78 m 1,12,-1
 216 -160 l 1,13,-1
 183 -250 l 1,14,-1
 128 -234 l 1,15,-1
 174 -160 l 1,16,-1
 132 -160 l 1,17,-1
 132 -78 l 1,18,-1
 213 -78 l 1,12,-1
EndSplineSet
Validated: 1
Substitution2: "Single Substitution lookup 20 subtable" ncommaaccent
Substitution2: "'aalt' Access All Alternates lookup 0 subtable" ncommaaccent
Position2: "'cpsp' Capital Spacing lookup 0 subtable" dx=5 dy=0 dh=10 dv=0
EndChar

StartChar: Ndotaccent
Encoding: 7748 7748 79
Width: 343
Flags: MW
HStem: 804 97
VStem: 89 162 142 91
LayerCount: 2
UndoRedoHistory
Layer: 0
Undoes
EndUndoes
Redoes
EndRedoes
EndUndoRedoHistory
UndoRedoHistory
Layer: 1
Undoes
EndUndoes
Redoes
EndRedoes
EndUndoRedoHistory
Fore
SplineSet
233 900 m 1,0,-1
 233 805 l 1,1,-1
 144 802 l 1,2,-1
 140 900 l 1,3,-1
 233 900 l 1,0,-1
262 710 m 1,4,-1
 320 710 l 1,5,-1
 310 0 l 1,6,-1
 195 0 l 1,7,-1
 93 651 l 1,8,-1
 89 651 l 1,9,-1
 89 0 l 1,10,-1
 30 0 l 1,11,-1
 30 710 l 1,12,-1
 146 710 l 1,13,-1
 236 58 l 1,14,-1
 240 58 l 1,15,-1
 262 710 l 1,4,-1
EndSplineSet
Validated: 8388609
Substitution2: "Single Substitution lookup 20 subtable" ndotaccent
Substitution2: "'aalt' Access All Alternates lookup 0 subtable" ndotaccent
Position2: "'cpsp' Capital Spacing lookup 0 subtable" dx=5 dy=0 dh=10 dv=0
EndChar

StartChar: Eng
Encoding: 330 330 80
Width: 354
Flags: MW
HStem: -30 51 0 21G<30 89 30 30> 651 59<89 93 89 89>
VStem: 30 59<0 651 0 710> 262 63
LayerCount: 2
UndoRedoHistory
Layer: 0
Undoes
EndUndoes
Redoes
EndRedoes
EndUndoRedoHistory
UndoRedoHistory
Layer: 1
Undoes
EndUndoes
Redoes
EndRedoes
EndUndoRedoHistory
Fore
SplineSet
170 -30 m 1,0,-1
 144 92 l 1,1,-1
 213 112 l 1,2,-1
 218 24 l 1,3,-1
 262 19 l 1,4,-1
 262 158 l 1,5,-1
 93 651 l 1,6,-1
 89 651 l 1,7,-1
 89 0 l 1,8,-1
 30 0 l 1,9,-1
 30 710 l 1,10,-1
 146 710 l 1,11,-1
 258 313 l 1,12,-1
 262 313 l 1,13,-1
 262 616 l 1,14,-1
 244 664 l 1,15,-1
 244 710 l 1,16,-1
 330 710 l 1,17,-1
 321 -30 l 1,18,-1
 170 -30 l 1,0,-1
EndSplineSet
Validated: 8388609
Substitution2: "Single Substitution lookup 20 subtable" eng
Substitution2: "'aalt' Access All Alternates lookup 0 subtable" eng
Position2: "'cpsp' Capital Spacing lookup 0 subtable" dx=5 dy=0 dh=10 dv=0
EndChar

StartChar: Ntilde
Encoding: 209 209 81
Width: 343
Flags: MW
HStem: 0 900<30 304 89 304 304 304 304 310 304 310>
VStem: 78 227 89 162
LayerCount: 2
UndoRedoHistory
Layer: 0
Undoes
EndUndoes
Redoes
EndRedoes
EndUndoRedoHistory
UndoRedoHistory
Layer: 1
Undoes
EndUndoes
Redoes
EndRedoes
EndUndoRedoHistory
Fore
SplineSet
102 883 m 1,0,1
 120 897 120 897 140 897 c 0,2,3
 165 897 165 897 194 877 c 1,4,-1
 232 852 l 1,5,-1
 304 900 l 1,6,-1
 304 840 l 1,7,-1
 280 817 l 2,8,9
 255 794 255 794 236 794 c 0,10,11
 218 794 218 794 191 813 c 2,12,-1
 147 844 l 1,13,-1
 79 791 l 1,14,-1
 76 860 l 1,15,-1
 102 883 l 1,0,1
262 710 m 1,16,-1
 320 710 l 1,17,-1
 310 0 l 1,18,-1
 195 0 l 1,19,-1
 93 651 l 1,20,-1
 89 651 l 1,21,-1
 89 0 l 1,22,-1
 30 0 l 1,23,-1
 30 710 l 1,24,-1
 146 710 l 1,25,-1
 236 58 l 1,26,-1
 240 58 l 1,27,-1
 262 710 l 1,16,-1
EndSplineSet
Validated: 8388609
Substitution2: "Single Substitution lookup 20 subtable" ntilde
Substitution2: "'aalt' Access All Alternates lookup 0 subtable" ntilde
Position2: "'cpsp' Capital Spacing lookup 0 subtable" dx=5 dy=0 dh=10 dv=0
EndChar

StartChar: O
Encoding: 79 79 82
Width: 317
Flags: MW
HStem: 0 70<140 182 182 185 140 205 109 182> 658 52<137 140 140 192>
VStem: 50 81<74 76 76 649> 201 67<649 652>
LayerCount: 2
UndoRedoHistory
Layer: 0
Undoes
EndUndoes
Redoes
EndRedoes
EndUndoRedoHistory
UndoRedoHistory
Layer: 1
Undoes
EndUndoes
Redoes
EndRedoes
EndUndoRedoHistory
Fore
SplineSet
228 710 m 1,0,-1
 268 682 l 1,1,-1
 268 36 l 1,2,-1
 205 0 l 1,3,-1
 109 0 l 1,4,-1
 50 42 l 1,5,-1
 50 678 l 1,6,-1
 93 710 l 1,7,-1
 228 710 l 1,0,-1
201 649 m 2,8,9
 201 658 201 658 192 658 c 2,10,-1
 140 658 l 2,11,12
 131 658 131 658 131 649 c 2,13,-1
 131 76 l 2,14,15
 131 70 131 70 140 70 c 2,16,-1
 182 70 l 2,17,18
 191 70 191 70 191 76 c 2,19,-1
 201 649 l 2,8,9
EndSplineSet
Validated: 1
Substitution2: "Single Substitution lookup 21 subtable" o
Substitution2: "Single Substitution lookup 20 subtable" ordmasculine
AlternateSubs2: "'aalt' Access All Alternates lookup 1 subtable" ordmasculine o
Position2: "'cpsp' Capital Spacing lookup 0 subtable" dx=5 dy=0 dh=10 dv=0
EndChar

StartChar: Oacute
Encoding: 211 211 83
Width: 317
Flags: MW
HStem: 0 70<140 182 182 185 140 205 109 182> 658 52<137 140 140 192>
VStem: 50 81<74 76 76 649> 201 67<649 652>
LayerCount: 2
UndoRedoHistory
Layer: 0
Undoes
EndUndoes
Redoes
EndRedoes
EndUndoRedoHistory
UndoRedoHistory
Layer: 1
Undoes
EndUndoes
Redoes
EndRedoes
EndUndoRedoHistory
Fore
SplineSet
244 852 m 1,0,-1
 148 768 l 1,1,-1
 114 792 l 1,2,-1
 198 900 l 1,3,-1
 244 852 l 1,0,-1
228 710 m 1,4,-1
 268 682 l 1,5,-1
 268 36 l 1,6,-1
 205 0 l 1,7,-1
 109 0 l 1,8,-1
 50 42 l 1,9,-1
 50 678 l 1,10,-1
 93 710 l 1,11,-1
 228 710 l 1,4,-1
201 649 m 2,12,13
 201 658 201 658 192 658 c 2,14,-1
 140 658 l 2,15,16
 131 658 131 658 131 649 c 2,17,-1
 131 76 l 2,18,19
 131 70 131 70 140 70 c 2,20,-1
 182 70 l 2,21,22
 191 70 191 70 191 76 c 2,23,-1
 201 649 l 2,12,13
EndSplineSet
Validated: 1
Substitution2: "Single Substitution lookup 21 subtable" oacute
Substitution2: "'locl' Localized Forms in Latin lookup 11 subtable" Oacute.loclPLK
AlternateSubs2: "'aalt' Access All Alternates lookup 1 subtable" Oacute.loclPLK oacute
Position2: "'cpsp' Capital Spacing lookup 0 subtable" dx=5 dy=0 dh=10 dv=0
EndChar

StartChar: Obreve
Encoding: 334 334 84
Width: 317
Flags: MW
HStem: 0 70<140 182 182 185 140 205 109 182> 658 52<137 140 140 192> 785 47 846 48<107 107>
VStem: 50 81<74 76 76 649> 61 48 201 67<649 652> 228 44
LayerCount: 2
UndoRedoHistory
Layer: 0
Undoes
EndUndoes
Redoes
EndRedoes
EndUndoRedoHistory
UndoRedoHistory
Layer: 1
Undoes
EndUndoes
Redoes
EndRedoes
EndUndoRedoHistory
Fore
SplineSet
107 846 m 1,0,-1
 119 835 l 1,1,-1
 229 830 l 1,2,-1
 226 896 l 1,3,-1
 272 900 l 1,4,-1
 272 824 l 1,5,-1
 233 785 l 1,6,-1
 108 785 l 1,7,-1
 63 813 l 1,8,-1
 59 894 l 1,9,-1
 112 894 l 1,10,-1
 107 846 l 1,0,-1
228 710 m 1,11,-1
 268 682 l 1,12,-1
 268 36 l 1,13,-1
 205 0 l 1,14,-1
 109 0 l 1,15,-1
 50 42 l 1,16,-1
 50 678 l 1,17,-1
 93 710 l 1,18,-1
 228 710 l 1,11,-1
201 649 m 2,19,20
 201 658 201 658 192 658 c 2,21,-1
 140 658 l 2,22,23
 131 658 131 658 131 649 c 2,24,-1
 131 76 l 2,25,26
 131 70 131 70 140 70 c 2,27,-1
 182 70 l 2,28,29
 191 70 191 70 191 76 c 2,30,-1
 201 649 l 2,19,20
EndSplineSet
Validated: 8388609
Substitution2: "Single Substitution lookup 21 subtable" obreve
Substitution2: "'aalt' Access All Alternates lookup 0 subtable" obreve
Position2: "'cpsp' Capital Spacing lookup 0 subtable" dx=5 dy=0 dh=10 dv=0
EndChar

StartChar: Ocircumflex
Encoding: 212 212 85
Width: 317
Flags: MW
HStem: 0 70<140 182 182 185 140 205 109 182> 658 52<137 140 140 192>
VStem: 50 81<74 76 76 649> 201 67<649 652>
LayerCount: 2
UndoRedoHistory
Layer: 0
Undoes
EndUndoes
Redoes
EndRedoes
EndUndoRedoHistory
UndoRedoHistory
Layer: 1
Undoes
EndUndoes
Redoes
EndRedoes
EndUndoRedoHistory
Fore
SplineSet
189 896 m 1,0,-1
 263 786 l 1,1,-1
 234 767 l 1,2,-1
 169 829 l 1,3,-1
 104 767 l 1,4,-1
 75 786 l 1,5,-1
 149 899 l 1,6,-1
 189 896 l 1,0,-1
228 710 m 1,7,-1
 268 682 l 1,8,-1
 268 36 l 1,9,-1
 205 0 l 1,10,-1
 109 0 l 1,11,-1
 50 42 l 1,12,-1
 50 678 l 1,13,-1
 93 710 l 1,14,-1
 228 710 l 1,7,-1
201 649 m 2,15,16
 201 658 201 658 192 658 c 2,17,-1
 140 658 l 2,18,19
 131 658 131 658 131 649 c 2,20,-1
 131 76 l 2,21,22
 131 70 131 70 140 70 c 2,23,-1
 182 70 l 2,24,25
 191 70 191 70 191 76 c 2,26,-1
 201 649 l 2,15,16
EndSplineSet
Validated: 1
Substitution2: "Single Substitution lookup 21 subtable" ocircumflex
Substitution2: "'aalt' Access All Alternates lookup 0 subtable" ocircumflex
Position2: "'cpsp' Capital Spacing lookup 0 subtable" dx=5 dy=0 dh=10 dv=0
EndChar

StartChar: Odieresis
Encoding: 214 214 86
Width: 317
Flags: MW
HStem: 0 70<140 182 182 185 140 205 109 182> 658 52<137 140 140 192> 817 82
VStem: 44 81 50 81<74 76 76 649> 195 78 201 67<649 652>
LayerCount: 2
UndoRedoHistory
Layer: 0
Undoes
EndUndoes
Redoes
EndRedoes
EndUndoRedoHistory
UndoRedoHistory
Layer: 1
Undoes
EndUndoes
Redoes
EndRedoes
EndUndoRedoHistory
Fore
SplineSet
127 900 m 1,0,-1
 123 817 l 1,1,-1
 44 817 l 1,2,-1
 44 897 l 1,3,-1
 127 900 l 1,0,-1
273 900 m 1,4,-1
 273 820 l 1,5,-1
 197 817 l 1,6,-1
 194 900 l 1,7,-1
 273 900 l 1,4,-1
228 710 m 1,8,-1
 268 682 l 1,9,-1
 268 36 l 1,10,-1
 205 0 l 1,11,-1
 109 0 l 1,12,-1
 50 42 l 1,13,-1
 50 678 l 1,14,-1
 93 710 l 1,15,-1
 228 710 l 1,8,-1
201 649 m 2,16,17
 201 658 201 658 192 658 c 2,18,-1
 140 658 l 2,19,20
 131 658 131 658 131 649 c 2,21,-1
 131 76 l 2,22,23
 131 70 131 70 140 70 c 2,24,-1
 182 70 l 2,25,26
 191 70 191 70 191 76 c 2,27,-1
 201 649 l 2,16,17
EndSplineSet
Validated: 8388609
Substitution2: "Single Substitution lookup 21 subtable" odieresis
Substitution2: "'aalt' Access All Alternates lookup 0 subtable" odieresis
Position2: "'cpsp' Capital Spacing lookup 0 subtable" dx=5 dy=0 dh=10 dv=0
EndChar

StartChar: Odotbelow
Encoding: 7884 7884 87
Width: 317
Flags: MW
HStem: -152 97 0 70<140 182 182 185 140 205 109 182> 658 52<137 140 140 192>
VStem: 50 81<74 76 76 649> 110 91 201 67<649 652>
LayerCount: 2
UndoRedoHistory
Layer: 0
Undoes
EndUndoes
Redoes
EndRedoes
EndUndoRedoHistory
UndoRedoHistory
Layer: 1
Undoes
EndUndoes
Redoes
EndRedoes
EndUndoRedoHistory
Fore
SplineSet
228 710 m 1,0,-1
 268 682 l 1,1,-1
 268 36 l 1,2,-1
 205 0 l 1,3,-1
 109 0 l 1,4,-1
 50 42 l 1,5,-1
 50 678 l 1,6,-1
 93 710 l 1,7,-1
 228 710 l 1,0,-1
201 649 m 2,8,9
 201 658 201 658 192 658 c 2,10,-1
 140 658 l 2,11,12
 131 658 131 658 131 649 c 2,13,-1
 131 76 l 2,14,15
 131 70 131 70 140 70 c 2,16,-1
 182 70 l 2,17,18
 191 70 191 70 191 76 c 2,19,-1
 201 649 l 2,8,9
201 -56 m 1,20,-1
 201 -151 l 1,21,-1
 112 -154 l 1,22,-1
 108 -56 l 1,23,-1
 201 -56 l 1,20,-1
EndSplineSet
Validated: 8388609
Substitution2: "Single Substitution lookup 21 subtable" odotbelow
Substitution2: "'aalt' Access All Alternates lookup 0 subtable" odotbelow
Position2: "'cpsp' Capital Spacing lookup 0 subtable" dx=5 dy=0 dh=10 dv=0
EndChar

StartChar: Ograve
Encoding: 210 210 88
Width: 317
Flags: MW
HStem: 0 70<140 182 182 185 140 205 109 182> 658 52<137 140 140 192>
VStem: 50 81<74 76 76 649> 201 67<649 652>
LayerCount: 2
UndoRedoHistory
Layer: 0
Undoes
EndUndoes
Redoes
EndRedoes
EndUndoRedoHistory
UndoRedoHistory
Layer: 1
Undoes
EndUndoes
Redoes
EndRedoes
EndUndoRedoHistory
Fore
SplineSet
190 768 m 1,0,-1
 94 852 l 1,1,-1
 140 900 l 1,2,-1
 224 792 l 1,3,-1
 190 768 l 1,0,-1
228 710 m 1,4,-1
 268 682 l 1,5,-1
 268 36 l 1,6,-1
 205 0 l 1,7,-1
 109 0 l 1,8,-1
 50 42 l 1,9,-1
 50 678 l 1,10,-1
 93 710 l 1,11,-1
 228 710 l 1,4,-1
201 649 m 2,12,13
 201 658 201 658 192 658 c 2,14,-1
 140 658 l 2,15,16
 131 658 131 658 131 649 c 2,17,-1
 131 76 l 2,18,19
 131 70 131 70 140 70 c 2,20,-1
 182 70 l 2,21,22
 191 70 191 70 191 76 c 2,23,-1
 201 649 l 2,12,13
EndSplineSet
Validated: 1
Substitution2: "Single Substitution lookup 21 subtable" ograve
Substitution2: "'aalt' Access All Alternates lookup 0 subtable" ograve
Position2: "'cpsp' Capital Spacing lookup 0 subtable" dx=5 dy=0 dh=10 dv=0
EndChar

StartChar: Ohungarumlaut
Encoding: 336 336 89
Width: 317
Flags: MW
HStem: 0 70<140 182 182 185 140 205 109 182> 658 52<137 140 140 192>
VStem: 50 81<74 76 76 649> 201 67<649 652>
LayerCount: 2
UndoRedoHistory
Layer: 0
Undoes
EndUndoes
Redoes
EndRedoes
EndUndoRedoHistory
UndoRedoHistory
Layer: 1
Undoes
EndUndoes
Redoes
EndRedoes
EndUndoRedoHistory
Fore
SplineSet
190 852 m 1,0,-1
 94 768 l 1,1,-1
 60 792 l 1,2,-1
 144 900 l 1,3,-1
 190 852 l 1,0,-1
320 852 m 1,4,-1
 224 768 l 1,5,-1
 190 792 l 1,6,-1
 274 900 l 1,7,-1
 320 852 l 1,4,-1
228 710 m 1,8,-1
 268 682 l 1,9,-1
 268 36 l 1,10,-1
 205 0 l 1,11,-1
 109 0 l 1,12,-1
 50 42 l 1,13,-1
 50 678 l 1,14,-1
 93 710 l 1,15,-1
 228 710 l 1,8,-1
201 649 m 2,16,17
 201 658 201 658 192 658 c 2,18,-1
 140 658 l 2,19,20
 131 658 131 658 131 649 c 2,21,-1
 131 76 l 2,22,23
 131 70 131 70 140 70 c 2,24,-1
 182 70 l 2,25,26
 191 70 191 70 191 76 c 2,27,-1
 201 649 l 2,16,17
EndSplineSet
Validated: 1
Substitution2: "Single Substitution lookup 21 subtable" ohungarumlaut
Substitution2: "'aalt' Access All Alternates lookup 0 subtable" ohungarumlaut
Position2: "'cpsp' Capital Spacing lookup 0 subtable" dx=5 dy=0 dh=10 dv=0
EndChar

StartChar: Omacron
Encoding: 332 332 90
Width: 317
Flags: MW
HStem: 0 70<140 182 182 185 140 205 109 182> 658 52<137 140 140 192> 832 60
VStem: 50 81<74 76 76 649> 201 67<649 652>
LayerCount: 2
UndoRedoHistory
Layer: 0
Undoes
EndUndoes
Redoes
EndRedoes
EndUndoRedoHistory
UndoRedoHistory
Layer: 1
Undoes
EndUndoes
Redoes
EndRedoes
EndUndoRedoHistory
Fore
SplineSet
298 836 m 1,0,-1
 33 827 l 1,1,-1
 30 891 l 1,2,-1
 298 891 l 1,3,-1
 298 836 l 1,0,-1
228 710 m 1,4,-1
 268 682 l 1,5,-1
 268 36 l 1,6,-1
 205 0 l 1,7,-1
 109 0 l 1,8,-1
 50 42 l 1,9,-1
 50 678 l 1,10,-1
 93 710 l 1,11,-1
 228 710 l 1,4,-1
201 649 m 2,12,13
 201 658 201 658 192 658 c 2,14,-1
 140 658 l 2,15,16
 131 658 131 658 131 649 c 2,17,-1
 131 76 l 2,18,19
 131 70 131 70 140 70 c 2,20,-1
 182 70 l 2,21,22
 191 70 191 70 191 76 c 2,23,-1
 201 649 l 2,12,13
EndSplineSet
Validated: 1
Substitution2: "Single Substitution lookup 21 subtable" omacron
Substitution2: "'aalt' Access All Alternates lookup 0 subtable" omacron
Position2: "'cpsp' Capital Spacing lookup 0 subtable" dx=5 dy=0 dh=10 dv=0
EndChar

StartChar: Oogonek
Encoding: 490 490 91
Width: 317
Flags: MW
HStem: 0 70<109 182 109 182 158 182 182 185 140 205 158 158> 658 52<137 140 140 192>
VStem: 50 81<74 76 76 649> 201 67<649 652>
LayerCount: 2
UndoRedoHistory
Layer: 0
Undoes
EndUndoes
Redoes
EndRedoes
EndUndoRedoHistory
UndoRedoHistory
Layer: 1
Undoes
EndUndoes
Redoes
EndRedoes
EndUndoRedoHistory
Fore
SplineSet
228 710 m 1,0,-1
 268 682 l 1,1,-1
 268 36 l 1,2,-1
 205 0 l 1,3,-1
 158 0 l 1,4,-1
 132 -83 l 1,5,-1
 166 -145 l 1,6,-1
 255 -100 l 1,7,-1
 271 -146 l 1,8,-1
 158 -209 l 1,9,-1
 70 -95 l 1,10,-1
 118 0 l 1,11,-1
 109 0 l 1,12,-1
 50 42 l 1,13,-1
 50 678 l 1,14,-1
 93 710 l 1,15,-1
 228 710 l 1,0,-1
201 649 m 2,16,17
 201 658 201 658 192 658 c 2,18,-1
 140 658 l 2,19,20
 131 658 131 658 131 649 c 2,21,-1
 131 76 l 2,22,23
 131 70 131 70 140 70 c 2,24,-1
 182 70 l 2,25,26
 191 70 191 70 191 76 c 2,27,-1
 201 649 l 2,16,17
EndSplineSet
Validated: 1
Substitution2: "Single Substitution lookup 21 subtable" oogonek
Substitution2: "'aalt' Access All Alternates lookup 0 subtable" oogonek
Position2: "'cpsp' Capital Spacing lookup 0 subtable" dx=5 dy=0 dh=10 dv=0
EndChar

StartChar: Oslash
Encoding: 216 216 92
Width: 317
Flags: MW
HStem: 0 71<120 182 182 185 120 268 89 182> 658 52<117 120 120 184 184 192> 755 20G<295 295>
VStem: 50 61<75 77 77 81 253 649> 191 77<75 77>
LayerCount: 2
UndoRedoHistory
Layer: 0
Undoes
EndUndoes
Redoes
EndRedoes
EndUndoRedoHistory
UndoRedoHistory
Layer: 1
Undoes
EndUndoes
Redoes
EndRedoes
EndUndoRedoHistory
Fore
SplineSet
184 710 m 2,0,1
 222 710 222 710 235 706 c 1,2,-1
 258 788 l 1,3,-1
 295 775 l 1,4,-1
 268 673 l 1,5,-1
 268 0 l 1,6,-1
 89 0 l 1,7,-1
 66 -88 l 1,8,-1
 22 -71 l 1,9,-1
 50 31 l 1,10,-1
 50 710 l 1,11,-1
 184 710 l 2,0,1
199 575 m 1,12,-1
 201 649 l 2,13,14
 201 658 201 658 192 658 c 2,15,-1
 120 658 l 2,16,17
 111 658 111 658 111 649 c 2,18,-1
 111 253 l 1,19,-1
 199 575 l 1,12,-1
111 81 m 1,20,-1
 111 77 l 2,21,22
 111 71 111 71 120 71 c 2,23,-1
 182 71 l 2,24,25
 191 71 191 71 191 77 c 2,26,-1
 196 404 l 1,27,-1
 111 81 l 1,20,-1
EndSplineSet
Validated: 1
Substitution2: "Single Substitution lookup 21 subtable" oslash
Substitution2: "'aalt' Access All Alternates lookup 0 subtable" oslash
Position2: "'cpsp' Capital Spacing lookup 0 subtable" dx=5 dy=0 dh=10 dv=0
EndChar

StartChar: Oslashacute
Encoding: 510 510 93
Width: 317
Flags: MW
HStem: 0 71<120 182 182 185 120 268 89 182> 658 52<117 120 120 184 184 192> 755 20G<295 295>
VStem: 50 61<75 77 77 81 253 649> 191 77<75 77>
LayerCount: 2
UndoRedoHistory
Layer: 0
Undoes
EndUndoes
Redoes
EndRedoes
EndUndoRedoHistory
UndoRedoHistory
Layer: 1
Undoes
EndUndoes
Redoes
EndRedoes
EndUndoRedoHistory
Fore
SplineSet
230 852 m 1,0,-1
 134 768 l 1,1,-1
 100 792 l 1,2,-1
 184 900 l 1,3,-1
 230 852 l 1,0,-1
184 710 m 2,4,5
 222 710 222 710 235 706 c 1,6,-1
 258 788 l 1,7,-1
 295 775 l 1,8,-1
 268 673 l 1,9,-1
 268 0 l 1,10,-1
 89 0 l 1,11,-1
 66 -88 l 1,12,-1
 22 -71 l 1,13,-1
 50 31 l 1,14,-1
 50 710 l 1,15,-1
 184 710 l 2,4,5
199 575 m 1,16,-1
 201 649 l 2,17,18
 201 658 201 658 192 658 c 2,19,-1
 120 658 l 2,20,21
 111 658 111 658 111 649 c 2,22,-1
 111 253 l 1,23,-1
 199 575 l 1,16,-1
111 81 m 1,24,-1
 111 77 l 2,25,26
 111 71 111 71 120 71 c 2,27,-1
 182 71 l 2,28,29
 191 71 191 71 191 77 c 2,30,-1
 196 404 l 1,31,-1
 111 81 l 1,24,-1
EndSplineSet
Validated: 1
Substitution2: "Single Substitution lookup 21 subtable" oslashacute
Substitution2: "'aalt' Access All Alternates lookup 0 subtable" oslashacute
Position2: "'cpsp' Capital Spacing lookup 0 subtable" dx=5 dy=0 dh=10 dv=0
EndChar

StartChar: Otilde
Encoding: 213 213 94
Width: 317
Flags: MW
HStem: 0 70<140 182 182 185 140 205 109 182> 658 52<137 140 140 192>
VStem: 50 81<74 76 76 649> 57 227 201 67<649 652>
LayerCount: 2
UndoRedoHistory
Layer: 0
Undoes
EndUndoes
Redoes
EndRedoes
EndUndoRedoHistory
UndoRedoHistory
Layer: 1
Undoes
EndUndoes
Redoes
EndRedoes
EndUndoRedoHistory
Fore
SplineSet
81 882 m 1,0,1
 99 896 99 896 119 896 c 0,2,3
 144 896 144 896 173 876 c 1,4,-1
 211 851 l 1,5,-1
 283 899 l 1,6,-1
 283 839 l 1,7,-1
 259 816 l 2,8,9
 234 793 234 793 215 793 c 0,10,11
 197 793 197 793 170 812 c 2,12,-1
 126 843 l 1,13,-1
 58 790 l 1,14,-1
 55 859 l 1,15,-1
 81 882 l 1,0,1
228 710 m 1,16,-1
 268 682 l 1,17,-1
 268 36 l 1,18,-1
 205 0 l 1,19,-1
 109 0 l 1,20,-1
 50 42 l 1,21,-1
 50 678 l 1,22,-1
 93 710 l 1,23,-1
 228 710 l 1,16,-1
201 649 m 2,24,25
 201 658 201 658 192 658 c 2,26,-1
 140 658 l 2,27,28
 131 658 131 658 131 649 c 2,29,-1
 131 76 l 2,30,31
 131 70 131 70 140 70 c 2,32,-1
 182 70 l 2,33,34
 191 70 191 70 191 76 c 2,35,-1
 201 649 l 2,24,25
EndSplineSet
Validated: 8388609
Substitution2: "Single Substitution lookup 21 subtable" otilde
Substitution2: "'aalt' Access All Alternates lookup 0 subtable" otilde
Position2: "'cpsp' Capital Spacing lookup 0 subtable" dx=5 dy=0 dh=10 dv=0
EndChar

StartChar: OE
Encoding: 338 338 95
Width: 460
Flags: MW
HStem: 0 70<140 182 182 185 140 205 109 182> 381 50<274 383> 632 78<274 417 274 274> 658 52<137 140 140 192>
VStem: 50 81<74 76 76 649> 201 78
LayerCount: 2
UndoRedoHistory
Layer: 0
Undoes
EndUndoes
Redoes
EndRedoes
EndUndoRedoHistory
UndoRedoHistory
Layer: 1
Undoes
EndUndoes
Redoes
EndRedoes
EndUndoRedoHistory
Fore
SplineSet
417 710 m 1,0,-1
 417 632 l 1,1,-1
 274 632 l 1,2,-1
 274 431 l 1,3,-1
 383 431 l 1,4,-1
 383 381 l 1,5,-1
 279 363 l 1,6,-1
 279 73 l 1,7,-1
 414 91 l 1,8,-1
 426 10 l 1,9,-1
 268 0 l 1,10,-1
 265 34 l 1,11,-1
 205 0 l 1,12,-1
 109 0 l 1,13,-1
 50 42 l 1,14,-1
 50 678 l 1,15,-1
 93 710 l 1,16,-1
 417 710 l 1,0,-1
201 649 m 2,17,18
 201 658 201 658 192 658 c 2,19,-1
 140 658 l 2,20,21
 131 658 131 658 131 649 c 2,22,-1
 131 76 l 2,23,24
 131 70 131 70 140 70 c 2,25,-1
 182 70 l 2,26,27
 191 70 191 70 191 76 c 2,28,-1
 201 649 l 2,17,18
EndSplineSet
Validated: 8388609
Substitution2: "Single Substitution lookup 21 subtable" oe
Substitution2: "'aalt' Access All Alternates lookup 0 subtable" oe
Position2: "'cpsp' Capital Spacing lookup 0 subtable" dx=5 dy=0 dh=10 dv=0
EndChar

StartChar: P
Encoding: 80 80 96
Width: 303
Flags: MW
HStem: 0 21G<50 108 50 50> 306 59<130 134 130 161 108 134> 665 45<130 134 134 151> 681 29<28 174>
VStem: 50 58<0 306 0 669> 183 81<379 381>
LayerCount: 2
UndoRedoHistory
Layer: 0
Undoes
EndUndoes
Redoes
EndRedoes
EndUndoRedoHistory
UndoRedoHistory
Layer: 1
Undoes
EndUndoes
Redoes
EndRedoes
EndUndoRedoHistory
Fore
SplineSet
174 710 m 2,0,1
 212 710 212 710 238 695.5 c 128,-1,2
 264 681 264 681 264 661 c 2,3,-1
 264 379 l 2,4,5
 264 374 264 374 262.5 366.5 c 128,-1,6
 261 359 261 359 254.5 348 c 128,-1,7
 248 337 248 337 238 328 c 128,-1,8
 228 319 228 319 208 312.5 c 128,-1,9
 188 306 188 306 161 306 c 2,10,-1
 108 306 l 1,11,-1
 108 0 l 1,12,-1
 50 0 l 1,13,-1
 50 669 l 1,14,-1
 28 681 l 1,15,-1
 28 710 l 1,16,-1
 174 710 l 2,0,1
122 373 m 2,17,18
 122 371 122 371 125.5 368 c 128,-1,19
 129 365 129 365 134 365 c 1,20,-1
 177 375 l 1,21,22
 183 375 183 375 183 381 c 2,23,-1
 193 633 l 1,24,25
 192 646 192 646 182 655.5 c 128,-1,26
 172 665 172 665 151 665 c 2,27,-1
 134 665 l 2,28,29
 122 665 122 665 122 658 c 2,30,-1
 122 373 l 2,17,18
EndSplineSet
Validated: 8388609
Substitution2: "Single Substitution lookup 20 subtable" p
Substitution2: "'aalt' Access All Alternates lookup 0 subtable" p
Position2: "'cpsp' Capital Spacing lookup 0 subtable" dx=5 dy=0 dh=10 dv=0
EndChar

StartChar: Thorn
Encoding: 222 222 97
Width: 303
Flags: MW
HStem: 0 21G<50 108 50 50> 186 51<130 134 130 161 108 134> 477 53<130 134 134 151> 690 20G<50 101 101 101>
VStem: 50 58<0 186 0 710> 183 81<251 259>
LayerCount: 2
UndoRedoHistory
Layer: 0
Undoes
EndUndoes
Redoes
EndRedoes
EndUndoRedoHistory
UndoRedoHistory
Layer: 1
Undoes
EndUndoes
Redoes
EndRedoes
EndUndoRedoHistory
Fore
SplineSet
174 530 m 2,0,1
 212 530 212 530 238 515.5 c 128,-1,2
 264 501 264 501 264 481 c 2,3,-1
 264 259 l 2,4,5
 264 254 264 254 262.5 246.5 c 128,-1,6
 261 239 261 239 254.5 228 c 128,-1,7
 248 217 248 217 238 208 c 128,-1,8
 228 199 228 199 208 192.5 c 128,-1,9
 188 186 188 186 161 186 c 2,10,-1
 108 186 l 1,11,-1
 108 0 l 1,12,-1
 50 0 l 1,13,-1
 50 710 l 1,14,-1
 101 710 l 1,15,-1
 111 530 l 1,16,-1
 174 530 l 2,0,1
122 245 m 2,17,18
 122 243 122 243 125.5 240 c 128,-1,19
 129 237 129 237 134 237 c 1,20,-1
 177 247 l 1,21,22
 183 247 183 247 183 253 c 2,23,-1
 193 445 l 1,24,25
 192 458 192 458 182 467.5 c 128,-1,26
 172 477 172 477 151 477 c 2,27,-1
 134 477 l 2,28,29
 122 477 122 477 122 470 c 2,30,-1
 122 245 l 2,17,18
EndSplineSet
Validated: 1
Substitution2: "Single Substitution lookup 20 subtable" thorn
Substitution2: "'aalt' Access All Alternates lookup 0 subtable" thorn
Position2: "'cpsp' Capital Spacing lookup 0 subtable" dx=5 dy=0 dh=10 dv=0
EndChar

StartChar: Q
Encoding: 81 81 98
Width: 317
Flags: MW
HStem: 30 70<120 142 120 163> 648 62<127 130 130 192>
VStem: 50 71<639 642 639 664 639 664> 201 67<106 639 639 642>
LayerCount: 2
UndoRedoHistory
Layer: 0
Undoes
EndUndoes
Redoes
EndRedoes
EndUndoRedoHistory
UndoRedoHistory
Layer: 1
Undoes
EndUndoes
Redoes
EndRedoes
EndUndoRedoHistory
Fore
SplineSet
228 710 m 1,0,-1
 268 673 l 1,1,-1
 268 30 l 1,2,-1
 213 30 l 1,3,-1
 277 -124 l 1,4,-1
 227 -131 l 1,5,-1
 207 -114 l 1,6,-1
 163 30 l 1,7,-1
 50 30 l 1,8,-1
 50 664 l 1,9,-1
 88 710 l 1,10,-1
 228 710 l 1,0,-1
201 639 m 2,11,12
 201 648 201 648 192 648 c 2,13,-1
 130 648 l 2,14,15
 121 648 121 648 121 639 c 2,16,-1
 111 106 l 2,17,18
 111 100 111 100 120 100 c 2,19,-1
 142 100 l 1,20,-1
 132 132 l 1,21,-1
 168 141 l 1,22,-1
 185 100 l 1,23,24
 190 100 190 100 195.5 102 c 128,-1,25
 201 104 201 104 201 106 c 2,26,-1
 201 639 l 2,11,12
EndSplineSet
Validated: 1
Substitution2: "Single Substitution lookup 20 subtable" q
Substitution2: "'aalt' Access All Alternates lookup 0 subtable" q
Position2: "'cpsp' Capital Spacing lookup 0 subtable" dx=5 dy=0 dh=10 dv=0
EndChar

StartChar: R
Encoding: 82 82 99
Width: 318
Flags: MW
HStem: -3 21G<208 208> 0 21G<50 108 50 50 281 281> 311 64<134 137 108 187> 667 43<134 165> 681 29<28 184>
VStem: 50 58<0 311> 199 65
LayerCount: 2
UndoRedoHistory
Layer: 0
Undoes
EndUndoes
Redoes
EndRedoes
EndUndoRedoHistory
UndoRedoHistory
Layer: 1
Undoes
EndUndoes
Redoes
EndRedoes
EndUndoRedoHistory
Fore
SplineSet
108 0 m 1,0,-1
 50 0 l 1,1,-1
 50 669 l 1,2,-1
 28 681 l 1,3,-1
 28 710 l 1,4,-1
 184 710 l 2,5,6
 222 710 222 710 247.5 696 c 128,-1,7
 273 682 273 682 274 661 c 1,8,-1
 264 384 l 2,9,10
 264 379 264 379 262 371 c 128,-1,11
 260 363 260 363 254 352.5 c 128,-1,12
 248 342 248 342 234.5 331.5 c 128,-1,13
 221 321 221 321 201 316 c 1,14,-1
 260 206 l 1,15,-1
 281 0 l 1,16,-1
 208 -3 l 1,17,-1
 192 193 l 1,18,-1
 137 311 l 1,19,-1
 108 311 l 1,20,-1
 108 0 l 1,0,-1
122 383 m 2,21,22
 122 381 122 381 125.5 378 c 128,-1,23
 129 375 129 375 134 375 c 2,24,-1
 187 375 l 2,25,26
 193 375 193 375 193 381 c 2,27,-1
 199 634 l 2,28,29
 199 641 199 641 197 645.5 c 128,-1,30
 195 650 195 650 189.5 655.5 c 128,-1,31
 184 661 184 661 169.5 664 c 128,-1,32
 155 667 155 667 134 667 c 1,33,34
 122 663 122 663 122 655 c 2,35,-1
 122 383 l 2,21,22
EndSplineSet
Validated: 8388609
Substitution2: "Single Substitution lookup 20 subtable" r
Substitution2: "'aalt' Access All Alternates lookup 0 subtable" r
Position2: "'cpsp' Capital Spacing lookup 0 subtable" dx=5 dy=0 dh=10 dv=0
EndChar

StartChar: Racute
Encoding: 340 340 100
Width: 318
Flags: MW
HStem: -3 21G<208 208> 0 21G<50 108 50 50 281 281> 311 64<134 137 108 187> 667 43<134 165> 681 29<28 184>
VStem: 50 58<0 311> 199 65
LayerCount: 2
UndoRedoHistory
Layer: 0
Undoes
EndUndoes
Redoes
EndRedoes
EndUndoRedoHistory
UndoRedoHistory
Layer: 1
Undoes
EndUndoes
Redoes
EndRedoes
EndUndoRedoHistory
Fore
SplineSet
234 851 m 1,0,-1
 138 767 l 1,1,-1
 104 791 l 1,2,-1
 188 899 l 1,3,-1
 234 851 l 1,0,-1
108 0 m 1,4,-1
 50 0 l 1,5,-1
 50 669 l 1,6,-1
 28 681 l 1,7,-1
 28 710 l 1,8,-1
 184 710 l 2,9,10
 222 710 222 710 247.5 696 c 128,-1,11
 273 682 273 682 274 661 c 1,12,-1
 264 384 l 2,13,14
 264 379 264 379 262 371 c 128,-1,15
 260 363 260 363 254 352.5 c 128,-1,16
 248 342 248 342 234.5 331.5 c 128,-1,17
 221 321 221 321 201 316 c 1,18,-1
 260 206 l 1,19,-1
 281 0 l 1,20,-1
 208 -3 l 1,21,-1
 192 193 l 1,22,-1
 137 311 l 1,23,-1
 108 311 l 1,24,-1
 108 0 l 1,4,-1
122 383 m 2,25,26
 122 381 122 381 125.5 378 c 128,-1,27
 129 375 129 375 134 375 c 2,28,-1
 187 375 l 2,29,30
 193 375 193 375 193 381 c 2,31,-1
 199 634 l 2,32,33
 199 641 199 641 197 645.5 c 128,-1,34
 195 650 195 650 189.5 655.5 c 128,-1,35
 184 661 184 661 169.5 664 c 128,-1,36
 155 667 155 667 134 667 c 1,37,38
 122 663 122 663 122 655 c 2,39,-1
 122 383 l 2,25,26
EndSplineSet
Validated: 8388609
Substitution2: "Single Substitution lookup 20 subtable" racute
Substitution2: "'aalt' Access All Alternates lookup 0 subtable" racute
Position2: "'cpsp' Capital Spacing lookup 0 subtable" dx=5 dy=0 dh=10 dv=0
EndChar

StartChar: Rcaron
Encoding: 344 344 101
Width: 318
Flags: MW
HStem: -3 21G<208 208> 0 21G<50 108 50 50 281 281> 311 64<134 137 108 187> 667 43<134 165> 681 29<28 184>
VStem: 50 58<0 311> 199 65
LayerCount: 2
UndoRedoHistory
Layer: 0
Undoes
EndUndoes
Redoes
EndRedoes
EndUndoRedoHistory
UndoRedoHistory
Layer: 1
Undoes
EndUndoes
Redoes
EndRedoes
EndUndoRedoHistory
Fore
SplineSet
144 770 m 1,0,-1
 70 880 l 1,1,-1
 99 899 l 1,2,-1
 164 837 l 1,3,-1
 229 899 l 1,4,-1
 258 880 l 1,5,-1
 184 767 l 1,6,-1
 144 770 l 1,0,-1
108 0 m 1,7,-1
 50 0 l 1,8,-1
 50 669 l 1,9,-1
 28 681 l 1,10,-1
 28 710 l 1,11,-1
 184 710 l 2,12,13
 222 710 222 710 247.5 696 c 128,-1,14
 273 682 273 682 274 661 c 1,15,-1
 264 384 l 2,16,17
 264 379 264 379 262 371 c 128,-1,18
 260 363 260 363 254 352.5 c 128,-1,19
 248 342 248 342 234.5 331.5 c 128,-1,20
 221 321 221 321 201 316 c 1,21,-1
 260 206 l 1,22,-1
 281 0 l 1,23,-1
 208 -3 l 1,24,-1
 192 193 l 1,25,-1
 137 311 l 1,26,-1
 108 311 l 1,27,-1
 108 0 l 1,7,-1
122 383 m 2,28,29
 122 381 122 381 125.5 378 c 128,-1,30
 129 375 129 375 134 375 c 2,31,-1
 187 375 l 2,32,33
 193 375 193 375 193 381 c 2,34,-1
 199 634 l 2,35,36
 199 641 199 641 197 645.5 c 128,-1,37
 195 650 195 650 189.5 655.5 c 128,-1,38
 184 661 184 661 169.5 664 c 128,-1,39
 155 667 155 667 134 667 c 1,40,41
 122 663 122 663 122 655 c 2,42,-1
 122 383 l 2,28,29
EndSplineSet
Validated: 8388609
Substitution2: "Single Substitution lookup 20 subtable" rcaron
Substitution2: "'aalt' Access All Alternates lookup 0 subtable" rcaron
Position2: "'cpsp' Capital Spacing lookup 0 subtable" dx=5 dy=0 dh=10 dv=0
EndChar

StartChar: Rcommaaccent
Encoding: 342 342 102
Width: 318
Flags: MW
HStem: -250 21G<160 160> -160 82<109 151 109 190 109 193> -3 21G<208 208> 0 21G<50 108 50 50 281 281> 311 64<134 137 108 187> 667 43<134 165> 681 29<28 184>
VStem: 50 58<0 311> 109 83 199 65
LayerCount: 2
UndoRedoHistory
Layer: 0
Undoes
EndUndoes
Redoes
EndRedoes
EndUndoRedoHistory
UndoRedoHistory
Layer: 1
Undoes
EndUndoes
Redoes
EndRedoes
EndUndoRedoHistory
Fore
SplineSet
108 0 m 1,0,-1
 50 0 l 1,1,-1
 50 669 l 1,2,-1
 28 681 l 1,3,-1
 28 710 l 1,4,-1
 184 710 l 2,5,6
 222 710 222 710 247.5 696 c 128,-1,7
 273 682 273 682 274 661 c 1,8,-1
 264 384 l 2,9,10
 264 379 264 379 262 371 c 128,-1,11
 260 363 260 363 254 352.5 c 128,-1,12
 248 342 248 342 234.5 331.5 c 128,-1,13
 221 321 221 321 201 316 c 1,14,-1
 260 206 l 1,15,-1
 281 0 l 1,16,-1
 208 -3 l 1,17,-1
 192 193 l 1,18,-1
 137 311 l 1,19,-1
 108 311 l 1,20,-1
 108 0 l 1,0,-1
122 383 m 2,21,22
 122 381 122 381 125.5 378 c 128,-1,23
 129 375 129 375 134 375 c 2,24,-1
 187 375 l 2,25,26
 193 375 193 375 193 381 c 2,27,-1
 199 634 l 2,28,29
 199 641 199 641 197 645.5 c 128,-1,30
 195 650 195 650 189.5 655.5 c 128,-1,31
 184 661 184 661 169.5 664 c 128,-1,32
 155 667 155 667 134 667 c 1,33,34
 122 663 122 663 122 655 c 2,35,-1
 122 383 l 2,21,22
190 -78 m 1,36,-1
 193 -160 l 1,37,-1
 160 -250 l 1,38,-1
 105 -234 l 1,39,-1
 151 -160 l 1,40,-1
 109 -160 l 1,41,-1
 109 -78 l 1,42,-1
 190 -78 l 1,36,-1
EndSplineSet
Validated: 8388609
Substitution2: "Single Substitution lookup 20 subtable" rcommaaccent
Substitution2: "'aalt' Access All Alternates lookup 0 subtable" rcommaaccent
Position2: "'cpsp' Capital Spacing lookup 0 subtable" dx=5 dy=0 dh=10 dv=0
EndChar

StartChar: Rdotbelow
Encoding: 7770 7770 103
Width: 318
Flags: MW
HStem: -152 97 -3 21G<208 208> 0 21G<50 108 50 50 281 281> 311 64<134 137 108 187> 667 43<134 165> 681 29<28 184>
VStem: 50 58<0 311> 112 91 199 65
LayerCount: 2
UndoRedoHistory
Layer: 0
Undoes
EndUndoes
Redoes
EndRedoes
EndUndoRedoHistory
UndoRedoHistory
Layer: 1
Undoes
EndUndoes
Redoes
EndRedoes
EndUndoRedoHistory
Fore
SplineSet
108 0 m 1,0,-1
 50 0 l 1,1,-1
 50 669 l 1,2,-1
 28 681 l 1,3,-1
 28 710 l 1,4,-1
 184 710 l 2,5,6
 222 710 222 710 247.5 696 c 128,-1,7
 273 682 273 682 274 661 c 1,8,-1
 264 384 l 2,9,10
 264 379 264 379 262 371 c 128,-1,11
 260 363 260 363 254 352.5 c 128,-1,12
 248 342 248 342 234.5 331.5 c 128,-1,13
 221 321 221 321 201 316 c 1,14,-1
 260 206 l 1,15,-1
 281 0 l 1,16,-1
 208 -3 l 1,17,-1
 192 193 l 1,18,-1
 137 311 l 1,19,-1
 108 311 l 1,20,-1
 108 0 l 1,0,-1
122 383 m 2,21,22
 122 381 122 381 125.5 378 c 128,-1,23
 129 375 129 375 134 375 c 2,24,-1
 187 375 l 2,25,26
 193 375 193 375 193 381 c 2,27,-1
 199 634 l 2,28,29
 199 641 199 641 197 645.5 c 128,-1,30
 195 650 195 650 189.5 655.5 c 128,-1,31
 184 661 184 661 169.5 664 c 128,-1,32
 155 667 155 667 134 667 c 1,33,34
 122 663 122 663 122 655 c 2,35,-1
 122 383 l 2,21,22
203 -56 m 1,36,-1
 203 -151 l 1,37,-1
 114 -154 l 1,38,-1
 110 -56 l 1,39,-1
 203 -56 l 1,36,-1
EndSplineSet
Validated: 8388609
Substitution2: "Single Substitution lookup 20 subtable" rdotbelow
Substitution2: "'aalt' Access All Alternates lookup 0 subtable" rdotbelow
Position2: "'cpsp' Capital Spacing lookup 0 subtable" dx=5 dy=0 dh=10 dv=0
EndChar

StartChar: S
Encoding: 83 83 104
Width: 286
Flags: MW
HStem: 0 68<40 179 40 183 40 179> 661 49<80 247>
VStem: 40 72
LayerCount: 2
UndoRedoHistory
Layer: 0
Undoes
EndUndoes
Redoes
EndRedoes
EndUndoRedoHistory
UndoRedoHistory
Layer: 1
Undoes
EndUndoes
Redoes
EndRedoes
EndUndoRedoHistory
Fore
SplineSet
120 421 m 1,0,-1
 247 388 l 1,1,-1
 247 60 l 2,2,3
 247 39 247 39 226 19.5 c 128,-1,4
 205 0 205 0 183 0 c 2,5,-1
 40 0 l 1,6,-1
 40 68 l 1,7,-1
 179 68 l 1,8,-1
 155 336 l 1,9,-1
 40 366 l 1,10,-1
 40 663 l 2,11,12
 40 679 40 679 52.5 694.5 c 128,-1,13
 65 710 65 710 80 710 c 2,14,-1
 247 710 l 1,15,-1
 247 661 l 1,16,-1
 105 642 l 1,17,-1
 120 421 l 1,0,-1
EndSplineSet
Validated: 1
Substitution2: "Single Substitution lookup 20 subtable" s
Substitution2: "'aalt' Access All Alternates lookup 0 subtable" s
Position2: "'cpsp' Capital Spacing lookup 0 subtable" dx=5 dy=0 dh=10 dv=0
EndChar

StartChar: Sacute
Encoding: 346 346 105
Width: 286
Flags: MW
HStem: 0 68<40 179 40 183 40 179> 661 49<80 247>
VStem: 40 72
LayerCount: 2
UndoRedoHistory
Layer: 0
Undoes
EndUndoes
Redoes
EndRedoes
EndUndoRedoHistory
UndoRedoHistory
Layer: 1
Undoes
EndUndoes
Redoes
EndRedoes
EndUndoRedoHistory
Fore
SplineSet
230 852 m 1,0,-1
 134 768 l 1,1,-1
 100 792 l 1,2,-1
 184 900 l 1,3,-1
 230 852 l 1,0,-1
120 421 m 1,4,-1
 247 388 l 1,5,-1
 247 60 l 2,6,7
 247 39 247 39 226 19.5 c 128,-1,8
 205 0 205 0 183 0 c 2,9,-1
 40 0 l 1,10,-1
 40 68 l 1,11,-1
 179 68 l 1,12,-1
 155 336 l 1,13,-1
 40 366 l 1,14,-1
 40 663 l 2,15,16
 40 679 40 679 52.5 694.5 c 128,-1,17
 65 710 65 710 80 710 c 2,18,-1
 247 710 l 1,19,-1
 247 661 l 1,20,-1
 105 642 l 1,21,-1
 120 421 l 1,4,-1
EndSplineSet
Validated: 1
Substitution2: "Single Substitution lookup 20 subtable" sacute
Substitution2: "'locl' Localized Forms in Latin lookup 11 subtable" Sacute.loclPLK
AlternateSubs2: "'aalt' Access All Alternates lookup 1 subtable" Sacute.loclPLK sacute
Position2: "'cpsp' Capital Spacing lookup 0 subtable" dx=5 dy=0 dh=10 dv=0
EndChar

StartChar: Scaron
Encoding: 352 352 106
Width: 286
Flags: MW
HStem: 0 68<40 179 40 183 40 179> 661 49<80 247>
VStem: 40 72
LayerCount: 2
UndoRedoHistory
Layer: 0
Undoes
EndUndoes
Redoes
EndRedoes
EndUndoRedoHistory
UndoRedoHistory
Layer: 1
Undoes
EndUndoes
Redoes
EndRedoes
EndUndoRedoHistory
Fore
SplineSet
134 771 m 1,0,-1
 60 881 l 1,1,-1
 89 900 l 1,2,-1
 154 838 l 1,3,-1
 219 900 l 1,4,-1
 248 881 l 1,5,-1
 174 768 l 1,6,-1
 134 771 l 1,0,-1
120 421 m 1,7,-1
 247 388 l 1,8,-1
 247 60 l 2,9,10
 247 39 247 39 226 19.5 c 128,-1,11
 205 0 205 0 183 0 c 2,12,-1
 40 0 l 1,13,-1
 40 68 l 1,14,-1
 179 68 l 1,15,-1
 155 336 l 1,16,-1
 40 366 l 1,17,-1
 40 663 l 2,18,19
 40 679 40 679 52.5 694.5 c 128,-1,20
 65 710 65 710 80 710 c 2,21,-1
 247 710 l 1,22,-1
 247 661 l 1,23,-1
 105 642 l 1,24,-1
 120 421 l 1,7,-1
EndSplineSet
Validated: 1
Substitution2: "Single Substitution lookup 20 subtable" scaron
Substitution2: "'aalt' Access All Alternates lookup 0 subtable" scaron
Position2: "'cpsp' Capital Spacing lookup 0 subtable" dx=5 dy=0 dh=10 dv=0
EndChar

StartChar: Scedilla
Encoding: 350 350 107
Width: 286
Flags: MW
HStem: -208 58<40 163 40 169> -93 48 0 68<40 99 40 179 162 179 40 183 162 162> 661 49<80 247>
VStem: 40 72 40 187<-162 -150 -150 -150 -162 68>
LayerCount: 2
UndoRedoHistory
Layer: 0
Undoes
EndUndoes
Redoes
EndRedoes
EndUndoRedoHistory
UndoRedoHistory
Layer: 1
Undoes
EndUndoes
Redoes
EndRedoes
EndUndoRedoHistory
Fore
SplineSet
120 421 m 1,0,-1
 247 388 l 1,1,-1
 247 60 l 2,2,3
 247 39 247 39 226 19.5 c 128,-1,4
 205 0 205 0 183 0 c 2,5,-1
 162 0 l 1,6,-1
 139 -45 l 1,7,-1
 251 -45 l 1,8,-1
 227 -148 l 1,9,10
 227 -169 227 -169 206 -188.5 c 128,-1,11
 185 -208 185 -208 163 -208 c 2,12,-1
 40 -208 l 1,13,-1
 40 -150 l 1,14,-1
 169 -150 l 1,15,-1
 179 -97 l 1,16,-1
 74 -89 l 1,17,-1
 99 0 l 1,18,-1
 40 0 l 1,19,-1
 40 68 l 1,20,-1
 179 68 l 1,21,-1
 155 336 l 1,22,-1
 40 366 l 1,23,-1
 40 663 l 2,24,25
 40 679 40 679 52.5 694.5 c 128,-1,26
 65 710 65 710 80 710 c 2,27,-1
 247 710 l 1,28,-1
 247 661 l 1,29,-1
 105 642 l 1,30,-1
 120 421 l 1,0,-1
EndSplineSet
Validated: 8388609
Substitution2: "Single Substitution lookup 20 subtable" scedilla
Substitution2: "'locl' Localized Forms in Latin lookup 10 subtable" Scommaaccent
Substitution2: "'locl' Localized Forms in Latin lookup 9 subtable" Scommaaccent
AlternateSubs2: "'aalt' Access All Alternates lookup 1 subtable" Scommaaccent scedilla
Position2: "'cpsp' Capital Spacing lookup 0 subtable" dx=5 dy=0 dh=10 dv=0
EndChar

StartChar: Scircumflex
Encoding: 348 348 108
Width: 286
Flags: MW
HStem: 0 68<40 179 40 183 40 179> 661 49<80 247>
VStem: 40 72
LayerCount: 2
UndoRedoHistory
Layer: 0
Undoes
EndUndoes
Redoes
EndRedoes
EndUndoRedoHistory
UndoRedoHistory
Layer: 1
Undoes
EndUndoes
Redoes
EndRedoes
EndUndoRedoHistory
Fore
SplineSet
174 897 m 1,0,-1
 248 787 l 1,1,-1
 219 768 l 1,2,-1
 154 830 l 1,3,-1
 89 768 l 1,4,-1
 60 787 l 1,5,-1
 134 900 l 1,6,-1
 174 897 l 1,0,-1
120 421 m 1,7,-1
 247 388 l 1,8,-1
 247 60 l 2,9,10
 247 39 247 39 226 19.5 c 128,-1,11
 205 0 205 0 183 0 c 2,12,-1
 40 0 l 1,13,-1
 40 68 l 1,14,-1
 179 68 l 1,15,-1
 155 336 l 1,16,-1
 40 366 l 1,17,-1
 40 663 l 2,18,19
 40 679 40 679 52.5 694.5 c 128,-1,20
 65 710 65 710 80 710 c 2,21,-1
 247 710 l 1,22,-1
 247 661 l 1,23,-1
 105 642 l 1,24,-1
 120 421 l 1,7,-1
EndSplineSet
Validated: 1
Substitution2: "Single Substitution lookup 20 subtable" scircumflex
Substitution2: "'aalt' Access All Alternates lookup 0 subtable" scircumflex
Position2: "'cpsp' Capital Spacing lookup 0 subtable" dx=5 dy=0 dh=10 dv=0
EndChar

StartChar: Scommaaccent
Encoding: 536 536 109
Width: 286
Flags: MW
HStem: -250 21G<145 145> -160 82<94 136 94 175 94 178> 0 68<40 179 40 183 40 179> 661 49<80 247>
VStem: 40 72 94 83
LayerCount: 2
UndoRedoHistory
Layer: 0
Undoes
EndUndoes
Redoes
EndRedoes
EndUndoRedoHistory
UndoRedoHistory
Layer: 1
Undoes
EndUndoes
Redoes
EndRedoes
EndUndoRedoHistory
Fore
SplineSet
120 421 m 1,0,-1
 247 388 l 1,1,-1
 247 60 l 2,2,3
 247 39 247 39 226 19.5 c 128,-1,4
 205 0 205 0 183 0 c 2,5,-1
 40 0 l 1,6,-1
 40 68 l 1,7,-1
 179 68 l 1,8,-1
 155 336 l 1,9,-1
 40 366 l 1,10,-1
 40 663 l 2,11,12
 40 679 40 679 52.5 694.5 c 128,-1,13
 65 710 65 710 80 710 c 2,14,-1
 247 710 l 1,15,-1
 247 661 l 1,16,-1
 105 642 l 1,17,-1
 120 421 l 1,0,-1
175 -78 m 1,18,-1
 178 -160 l 1,19,-1
 145 -250 l 1,20,-1
 90 -234 l 1,21,-1
 136 -160 l 1,22,-1
 94 -160 l 1,23,-1
 94 -78 l 1,24,-1
 175 -78 l 1,18,-1
EndSplineSet
Validated: 8388609
Substitution2: "Single Substitution lookup 20 subtable" scommaaccent
Substitution2: "'aalt' Access All Alternates lookup 0 subtable" scommaaccent
Position2: "'cpsp' Capital Spacing lookup 0 subtable" dx=5 dy=0 dh=10 dv=0
EndChar

StartChar: Sdotbelow
Encoding: 7778 7778 110
Width: 286
Flags: MW
HStem: -152 97 0 68<40 179 40 183 40 179> 661 49<80 247>
VStem: 40 72 92 91
LayerCount: 2
UndoRedoHistory
Layer: 0
Undoes
EndUndoes
Redoes
EndRedoes
EndUndoRedoHistory
UndoRedoHistory
Layer: 1
Undoes
EndUndoes
Redoes
EndRedoes
EndUndoRedoHistory
Fore
SplineSet
120 421 m 1,0,-1
 247 388 l 1,1,-1
 247 60 l 2,2,3
 247 39 247 39 226 19.5 c 128,-1,4
 205 0 205 0 183 0 c 2,5,-1
 40 0 l 1,6,-1
 40 68 l 1,7,-1
 179 68 l 1,8,-1
 155 336 l 1,9,-1
 40 366 l 1,10,-1
 40 663 l 2,11,12
 40 679 40 679 52.5 694.5 c 128,-1,13
 65 710 65 710 80 710 c 2,14,-1
 247 710 l 1,15,-1
 247 661 l 1,16,-1
 105 642 l 1,17,-1
 120 421 l 1,0,-1
183 -56 m 1,18,-1
 183 -151 l 1,19,-1
 94 -154 l 1,20,-1
 90 -56 l 1,21,-1
 183 -56 l 1,18,-1
EndSplineSet
Validated: 8388609
Substitution2: "Single Substitution lookup 20 subtable" sdotbelow
Substitution2: "'aalt' Access All Alternates lookup 0 subtable" sdotbelow
Position2: "'cpsp' Capital Spacing lookup 0 subtable" dx=5 dy=0 dh=10 dv=0
EndChar

StartChar: uni1E9E
Encoding: 7838 7838 111
Width: 413
Flags: MW
HStem: -1 21G<55 137 55 55> 0 21G<187 290 187 187> 0 78<286 286 286 290> 650 60<202 202>
VStem: 55 71 291 73
LayerCount: 2
UndoRedoHistory
Layer: 0
Undoes
EndUndoes
Redoes
EndRedoes
EndUndoRedoHistory
UndoRedoHistory
Layer: 1
Undoes
EndUndoes
Redoes
EndRedoes
EndUndoRedoHistory
Fore
SplineSet
364 80 m 1,0,-1
 290 0 l 1,1,-1
 187 0 l 1,2,-1
 183 64 l 1,3,-1
 286 78 l 1,4,-1
 296 276 l 1,5,-1
 187 396 l 1,6,-1
 161 459 l 1,7,-1
 234 628 l 1,8,-1
 202 650 l 1,9,-1
 116 616 l 1,10,-1
 137 -1 l 1,11,-1
 55 -1 l 1,12,-1
 55 640 l 1,13,-1
 146 710 l 1,14,-1
 331 710 l 1,15,-1
 228 454 l 1,16,-1
 229 449 l 1,17,-1
 364 345 l 1,18,-1
 364 80 l 1,0,-1
EndSplineSet
Validated: 8388609
Substitution2: "Single Substitution lookup 20 subtable" germandbls
Substitution2: "'aalt' Access All Alternates lookup 0 subtable" germandbls
Position2: "'cpsp' Capital Spacing lookup 0 subtable" dx=5 dy=0 dh=10 dv=0
EndChar

StartChar: Schwa
Encoding: 399 399 112
Width: 355
Flags: MW
HStem: 20 72<133 206 206 210 133 260> 300 68 651 59<69 203 69 69>
VStem: 50 63<100 104 100 374> 241 71
LayerCount: 2
UndoRedoHistory
Layer: 0
Undoes
EndUndoes
Redoes
EndRedoes
EndUndoRedoHistory
UndoRedoHistory
Layer: 1
Undoes
EndUndoes
Redoes
EndRedoes
EndUndoRedoHistory
Fore
SplineSet
236 362 m 1,0,-1
 245 606 l 1,1,2
 244 651 244 651 203 651 c 2,3,-1
 69 651 l 1,4,-1
 63 710 l 1,5,-1
 276 710 l 1,6,-1
 312 656 l 1,7,-1
 312 97 l 2,8,9
 312 60 312 60 296.5 40 c 128,-1,10
 281 20 281 20 260 20 c 2,11,-1
 50 20 l 1,12,-1
 50 374 l 1,13,-1
 236 362 l 1,0,-1
206 92 m 2,14,15
 213 92 213 92 220 98 c 128,-1,16
 227 104 227 104 227 110 c 2,17,-1
 234 300 l 1,18,-1
 103 300 l 1,19,-1
 113 104 l 2,20,21
 113 99 113 99 119.5 95.5 c 128,-1,22
 126 92 126 92 133 92 c 2,23,-1
 206 92 l 2,14,15
EndSplineSet
Validated: 1
Substitution2: "Single Substitution lookup 20 subtable" schwa
Substitution2: "'aalt' Access All Alternates lookup 0 subtable" schwa
Position2: "'cpsp' Capital Spacing lookup 0 subtable" dx=5 dy=0 dh=10 dv=0
EndChar

StartChar: T
Encoding: 84 84 113
Width: 274
Flags: MW
HStem: 653 57<178 178 178 250> 672 38<25 250>
VStem: 94 84<20 653 20 660 20 660>
LayerCount: 2
UndoRedoHistory
Layer: 0
Undoes
EndUndoes
Redoes
EndRedoes
EndUndoRedoHistory
UndoRedoHistory
Layer: 1
Undoes
EndUndoes
Redoes
EndRedoes
EndUndoRedoHistory
Fore
SplineSet
178 653 m 1,0,-1
 178 20 l 1,1,-1
 94 20 l 1,2,-1
 94 660 l 1,3,-1
 25 672 l 1,4,-1
 35 710 l 1,5,-1
 250 710 l 1,6,-1
 250 653 l 1,7,-1
 178 653 l 1,0,-1
EndSplineSet
Validated: 8388609
Substitution2: "Single Substitution lookup 20 subtable" t
Substitution2: "'aalt' Access All Alternates lookup 0 subtable" t
Position2: "'cpsp' Capital Spacing lookup 0 subtable" dx=5 dy=0 dh=10 dv=0
EndChar

StartChar: Tbar
Encoding: 358 358 114
Width: 274
Flags: MW
HStem: 436 57 643 67<178 270 178 178> 662 48<5 270>
VStem: 94 84<20 431 431 431 492 643>
LayerCount: 2
UndoRedoHistory
Layer: 0
Undoes
EndUndoes
Redoes
EndRedoes
EndUndoRedoHistory
UndoRedoHistory
Layer: 1
Undoes
EndUndoes
Redoes
EndRedoes
EndUndoRedoHistory
Fore
SplineSet
94 650 m 1,0,-1
 5 662 l 1,1,-1
 15 710 l 1,2,-1
 270 710 l 1,3,-1
 270 643 l 1,4,-1
 178 643 l 1,5,-1
 178 492 l 1,6,-1
 272 492 l 1,7,-1
 272 437 l 1,8,-1
 178 434 l 1,9,-1
 178 20 l 1,10,-1
 94 20 l 1,11,-1
 94 431 l 1,12,-1
 7 428 l 1,13,-1
 4 492 l 1,14,-1
 94 492 l 1,15,-1
 94 650 l 1,0,-1
EndSplineSet
Validated: 8388609
Substitution2: "Single Substitution lookup 20 subtable" tbar
Substitution2: "'aalt' Access All Alternates lookup 0 subtable" tbar
Position2: "'cpsp' Capital Spacing lookup 0 subtable" dx=5 dy=0 dh=10 dv=0
EndChar

StartChar: Tcaron
Encoding: 356 356 115
Width: 274
Flags: MW
HStem: 653 57<178 178 178 250> 672 38<25 250>
VStem: 94 84<20 653 20 660 20 660>
LayerCount: 2
UndoRedoHistory
Layer: 0
Undoes
EndUndoes
Redoes
EndRedoes
EndUndoRedoHistory
UndoRedoHistory
Layer: 1
Undoes
EndUndoes
Redoes
EndRedoes
EndUndoRedoHistory
Fore
SplineSet
119 771 m 1,0,-1
 45 881 l 1,1,-1
 74 900 l 1,2,-1
 139 838 l 1,3,-1
 204 900 l 1,4,-1
 233 881 l 1,5,-1
 159 768 l 1,6,-1
 119 771 l 1,0,-1
178 653 m 1,7,-1
 178 20 l 1,8,-1
 94 20 l 1,9,-1
 94 660 l 1,10,-1
 25 672 l 1,11,-1
 35 710 l 1,12,-1
 250 710 l 1,13,-1
 250 653 l 1,14,-1
 178 653 l 1,7,-1
EndSplineSet
Validated: 8388609
Substitution2: "Single Substitution lookup 20 subtable" tcaron
Substitution2: "'aalt' Access All Alternates lookup 0 subtable" tcaron
Position2: "'cpsp' Capital Spacing lookup 0 subtable" dx=5 dy=0 dh=10 dv=0
EndChar

StartChar: Tcedilla
Encoding: 354 354 116
Width: 274
Flags: MW
HStem: -208 58<29 152 29 158> -93 48 653 57<178 178 178 250> 672 38<25 250>
VStem: 29 187<-162 -150 -150 -150> 94 84<21 653 20 660 20 660>
LayerCount: 2
UndoRedoHistory
Layer: 0
Undoes
EndUndoes
Redoes
EndRedoes
EndUndoRedoHistory
UndoRedoHistory
Layer: 1
Undoes
EndUndoes
Redoes
EndRedoes
EndUndoRedoHistory
Fore
SplineSet
178 653 m 1,0,-1
 178 20 l 1,1,-1
 162 20 l 1,2,-1
 128 -45 l 1,3,-1
 240 -45 l 1,4,-1
 216 -148 l 1,5,6
 216 -169 216 -169 195 -188.5 c 128,-1,7
 174 -208 174 -208 152 -208 c 2,8,-1
 29 -208 l 1,9,-1
 29 -150 l 1,10,-1
 158 -150 l 1,11,-1
 168 -97 l 1,12,-1
 63 -89 l 1,13,-1
 94 21 l 1,14,-1
 94 660 l 1,15,-1
 25 672 l 1,16,-1
 35 710 l 1,17,-1
 250 710 l 1,18,-1
 250 653 l 1,19,-1
 178 653 l 1,0,-1
EndSplineSet
Validated: 8388609
Substitution2: "Single Substitution lookup 20 subtable" tcedilla
Substitution2: "'locl' Localized Forms in Latin lookup 10 subtable" uni021A
Substitution2: "'locl' Localized Forms in Latin lookup 9 subtable" uni021A
AlternateSubs2: "'aalt' Access All Alternates lookup 1 subtable" uni021A tcedilla
Position2: "'cpsp' Capital Spacing lookup 0 subtable" dx=5 dy=0 dh=10 dv=0
EndChar

StartChar: uni021A
Encoding: 538 538 117
Width: 274
Flags: MW
HStem: -250 21G<146 146> -160 82<95 137 95 176 95 179> 653 57<178 178 178 250> 672 38<25 250>
VStem: 94 84<20 653 20 660 20 660>
LayerCount: 2
UndoRedoHistory
Layer: 0
Undoes
EndUndoes
Redoes
EndRedoes
EndUndoRedoHistory
UndoRedoHistory
Layer: 1
Undoes
EndUndoes
Redoes
EndRedoes
EndUndoRedoHistory
Fore
SplineSet
178 653 m 1,0,-1
 178 20 l 1,1,-1
 94 20 l 1,2,-1
 94 660 l 1,3,-1
 25 672 l 1,4,-1
 35 710 l 1,5,-1
 250 710 l 1,6,-1
 250 653 l 1,7,-1
 178 653 l 1,0,-1
176 -78 m 1,8,-1
 179 -160 l 1,9,-1
 146 -250 l 1,10,-1
 91 -234 l 1,11,-1
 137 -160 l 1,12,-1
 95 -160 l 1,13,-1
 95 -78 l 1,14,-1
 176 -78 l 1,8,-1
EndSplineSet
Validated: 8388609
Substitution2: "Single Substitution lookup 20 subtable" uni021B
Substitution2: "'aalt' Access All Alternates lookup 0 subtable" uni021B
Position2: "'cpsp' Capital Spacing lookup 0 subtable" dx=5 dy=0 dh=10 dv=0
EndChar

StartChar: Tdotbelow
Encoding: 7788 7788 118
Width: 274
Flags: MW
HStem: -152 97 653 57<178 178 178 250> 672 38<25 250>
VStem: 88 91 94 84<20 653 20 660 20 660>
LayerCount: 2
UndoRedoHistory
Layer: 0
Undoes
EndUndoes
Redoes
EndRedoes
EndUndoRedoHistory
UndoRedoHistory
Layer: 1
Undoes
EndUndoes
Redoes
EndRedoes
EndUndoRedoHistory
Fore
SplineSet
178 653 m 1,0,-1
 178 20 l 1,1,-1
 94 20 l 1,2,-1
 94 660 l 1,3,-1
 25 672 l 1,4,-1
 35 710 l 1,5,-1
 250 710 l 1,6,-1
 250 653 l 1,7,-1
 178 653 l 1,0,-1
179 -56 m 1,8,-1
 179 -151 l 1,9,-1
 90 -154 l 1,10,-1
 86 -56 l 1,11,-1
 179 -56 l 1,8,-1
EndSplineSet
Validated: 8388609
Substitution2: "Single Substitution lookup 20 subtable" tdotbelow
Substitution2: "'aalt' Access All Alternates lookup 0 subtable" tdotbelow
Position2: "'cpsp' Capital Spacing lookup 0 subtable" dx=5 dy=0 dh=10 dv=0
EndChar

StartChar: U
Encoding: 85 85 119
Width: 309
Flags: MW
HStem: 0 66 690 20G<176 260 260 260>
VStem: 50 60<69 687 69 687 69 687> 187 74
LayerCount: 2
UndoRedoHistory
Layer: 0
Undoes
EndUndoes
Redoes
EndRedoes
EndUndoRedoHistory
UndoRedoHistory
Layer: 1
Undoes
EndUndoes
Redoes
EndRedoes
EndUndoRedoHistory
Fore
SplineSet
260 40 m 2,0,1
 260 26 260 26 245.5 13 c 128,-1,2
 231 0 231 0 217 0 c 2,3,-1
 50 0 l 1,4,-1
 50 687 l 1,5,-1
 110 687 l 1,6,-1
 110 69 l 1,7,-1
 197 63 l 1,8,-1
 176 710 l 1,9,-1
 260 710 l 1,10,-1
 260 40 l 2,0,1
EndSplineSet
Validated: 1
Substitution2: "Single Substitution lookup 21 subtable" u
Substitution2: "'aalt' Access All Alternates lookup 0 subtable" u
Position2: "'cpsp' Capital Spacing lookup 0 subtable" dx=5 dy=0 dh=10 dv=0
EndChar

StartChar: Uacute
Encoding: 218 218 120
Width: 309
Flags: MW
HStem: 0 66 690 20G<176 260 260 260>
VStem: 50 60<69 687 69 687 69 687> 187 74
LayerCount: 2
UndoRedoHistory
Layer: 0
Undoes
EndUndoes
Redoes
EndRedoes
EndUndoRedoHistory
UndoRedoHistory
Layer: 1
Undoes
EndUndoes
Redoes
EndRedoes
EndUndoRedoHistory
Fore
SplineSet
240 852 m 1,0,-1
 144 768 l 1,1,-1
 110 792 l 1,2,-1
 194 900 l 1,3,-1
 240 852 l 1,0,-1
260 40 m 2,4,5
 260 26 260 26 245.5 13 c 128,-1,6
 231 0 231 0 217 0 c 2,7,-1
 50 0 l 1,8,-1
 50 687 l 1,9,-1
 110 687 l 1,10,-1
 110 69 l 1,11,-1
 197 63 l 1,12,-1
 176 710 l 1,13,-1
 260 710 l 1,14,-1
 260 40 l 2,4,5
EndSplineSet
Validated: 1
Substitution2: "Single Substitution lookup 21 subtable" uacute
Substitution2: "'aalt' Access All Alternates lookup 0 subtable" uacute
Position2: "'cpsp' Capital Spacing lookup 0 subtable" dx=5 dy=0 dh=10 dv=0
EndChar

StartChar: Ubreve
Encoding: 364 364 121
Width: 309
Flags: MW
HStem: 0 66 690 20G<176 260 260 260> 785 47 846 48<93 93>
VStem: 47 48 50 60<69 687 69 687 69 687> 187 74 213 44
LayerCount: 2
UndoRedoHistory
Layer: 0
Undoes
EndUndoes
Redoes
EndRedoes
EndUndoRedoHistory
UndoRedoHistory
Layer: 1
Undoes
EndUndoes
Redoes
EndRedoes
EndUndoRedoHistory
Fore
SplineSet
93 846 m 1,0,-1
 105 835 l 1,1,-1
 215 830 l 1,2,-1
 212 896 l 1,3,-1
 258 900 l 1,4,-1
 258 824 l 1,5,-1
 219 785 l 1,6,-1
 94 785 l 1,7,-1
 49 813 l 1,8,-1
 45 894 l 1,9,-1
 98 894 l 1,10,-1
 93 846 l 1,0,-1
260 40 m 2,11,12
 260 26 260 26 245.5 13 c 128,-1,13
 231 0 231 0 217 0 c 2,14,-1
 50 0 l 1,15,-1
 50 687 l 1,16,-1
 110 687 l 1,17,-1
 110 69 l 1,18,-1
 197 63 l 1,19,-1
 176 710 l 1,20,-1
 260 710 l 1,21,-1
 260 40 l 2,11,12
EndSplineSet
Validated: 8388609
Substitution2: "Single Substitution lookup 21 subtable" ubreve
Substitution2: "'aalt' Access All Alternates lookup 0 subtable" ubreve
Position2: "'cpsp' Capital Spacing lookup 0 subtable" dx=5 dy=0 dh=10 dv=0
EndChar

StartChar: Ucircumflex
Encoding: 219 219 122
Width: 309
Flags: MW
HStem: 0 66 690 20G<176 260 260 260>
VStem: 50 60<69 687 69 687 69 687> 187 74
LayerCount: 2
UndoRedoHistory
Layer: 0
Undoes
EndUndoes
Redoes
EndRedoes
EndUndoRedoHistory
UndoRedoHistory
Layer: 1
Undoes
EndUndoes
Redoes
EndRedoes
EndUndoRedoHistory
Fore
SplineSet
178 897 m 1,0,-1
 252 787 l 1,1,-1
 223 768 l 1,2,-1
 158 830 l 1,3,-1
 93 768 l 1,4,-1
 64 787 l 1,5,-1
 138 900 l 1,6,-1
 178 897 l 1,0,-1
260 40 m 2,7,8
 260 26 260 26 245.5 13 c 128,-1,9
 231 0 231 0 217 0 c 2,10,-1
 50 0 l 1,11,-1
 50 687 l 1,12,-1
 110 687 l 1,13,-1
 110 69 l 1,14,-1
 197 63 l 1,15,-1
 176 710 l 1,16,-1
 260 710 l 1,17,-1
 260 40 l 2,7,8
EndSplineSet
Validated: 1
Substitution2: "Single Substitution lookup 21 subtable" ucircumflex
Substitution2: "'aalt' Access All Alternates lookup 0 subtable" ucircumflex
Position2: "'cpsp' Capital Spacing lookup 0 subtable" dx=5 dy=0 dh=10 dv=0
EndChar

StartChar: Udieresis
Encoding: 220 220 123
Width: 309
Flags: MW
HStem: 0 66 690 20G<176 260 260 260> 817 82
VStem: 40 81 50 60<69 687 69 687 69 687> 187 74 191 78
LayerCount: 2
UndoRedoHistory
Layer: 0
Undoes
EndUndoes
Redoes
EndRedoes
EndUndoRedoHistory
UndoRedoHistory
Layer: 1
Undoes
EndUndoes
Redoes
EndRedoes
EndUndoRedoHistory
Fore
SplineSet
123 900 m 1,0,-1
 119 817 l 1,1,-1
 40 817 l 1,2,-1
 40 897 l 1,3,-1
 123 900 l 1,0,-1
269 900 m 1,4,-1
 269 820 l 1,5,-1
 193 817 l 1,6,-1
 190 900 l 1,7,-1
 269 900 l 1,4,-1
260 40 m 2,8,9
 260 26 260 26 245.5 13 c 128,-1,10
 231 0 231 0 217 0 c 2,11,-1
 50 0 l 1,12,-1
 50 687 l 1,13,-1
 110 687 l 1,14,-1
 110 69 l 1,15,-1
 197 63 l 1,16,-1
 176 710 l 1,17,-1
 260 710 l 1,18,-1
 260 40 l 2,8,9
EndSplineSet
Validated: 8388609
Substitution2: "Single Substitution lookup 21 subtable" udieresis
Substitution2: "'aalt' Access All Alternates lookup 0 subtable" udieresis
Position2: "'cpsp' Capital Spacing lookup 0 subtable" dx=5 dy=0 dh=10 dv=0
EndChar

StartChar: Udotbelow
Encoding: 7908 7908 124
Width: 309
Flags: MW
HStem: -152 97 0 66 690 20G<176 260 260 260>
VStem: 50 60<69 687 69 687 69 687> 104 91 187 74
LayerCount: 2
UndoRedoHistory
Layer: 0
Undoes
EndUndoes
Redoes
EndRedoes
EndUndoRedoHistory
UndoRedoHistory
Layer: 1
Undoes
EndUndoes
Redoes
EndRedoes
EndUndoRedoHistory
Fore
SplineSet
260 40 m 2,0,1
 260 26 260 26 245.5 13 c 128,-1,2
 231 0 231 0 217 0 c 2,3,-1
 50 0 l 1,4,-1
 50 687 l 1,5,-1
 110 687 l 1,6,-1
 110 69 l 1,7,-1
 197 63 l 1,8,-1
 176 710 l 1,9,-1
 260 710 l 1,10,-1
 260 40 l 2,0,1
195 -56 m 1,11,-1
 195 -151 l 1,12,-1
 106 -154 l 1,13,-1
 102 -56 l 1,14,-1
 195 -56 l 1,11,-1
EndSplineSet
Validated: 8388609
Substitution2: "Single Substitution lookup 21 subtable" udotbelow
Substitution2: "'aalt' Access All Alternates lookup 0 subtable" udotbelow
Position2: "'cpsp' Capital Spacing lookup 0 subtable" dx=5 dy=0 dh=10 dv=0
EndChar

StartChar: Ugrave
Encoding: 217 217 125
Width: 309
Flags: MW
HStem: 0 66 690 20G<176 260 260 260>
VStem: 50 60<69 687 69 687 69 687> 187 74
LayerCount: 2
UndoRedoHistory
Layer: 0
Undoes
EndUndoes
Redoes
EndRedoes
EndUndoRedoHistory
UndoRedoHistory
Layer: 1
Undoes
EndUndoes
Redoes
EndRedoes
EndUndoRedoHistory
Fore
SplineSet
176 768 m 1,0,-1
 80 852 l 1,1,-1
 126 900 l 1,2,-1
 210 792 l 1,3,-1
 176 768 l 1,0,-1
260 40 m 2,4,5
 260 26 260 26 245.5 13 c 128,-1,6
 231 0 231 0 217 0 c 2,7,-1
 50 0 l 1,8,-1
 50 687 l 1,9,-1
 110 687 l 1,10,-1
 110 69 l 1,11,-1
 197 63 l 1,12,-1
 176 710 l 1,13,-1
 260 710 l 1,14,-1
 260 40 l 2,4,5
EndSplineSet
Validated: 1
Substitution2: "Single Substitution lookup 21 subtable" ugrave
Substitution2: "'aalt' Access All Alternates lookup 0 subtable" ugrave
Position2: "'cpsp' Capital Spacing lookup 0 subtable" dx=5 dy=0 dh=10 dv=0
EndChar

StartChar: Uhungarumlaut
Encoding: 368 368 126
Width: 309
Flags: MW
HStem: 0 66 690 20G<176 260 260 260>
VStem: 50 60<69 687 69 687 69 687> 187 74
LayerCount: 2
UndoRedoHistory
Layer: 0
Undoes
EndUndoes
Redoes
EndRedoes
EndUndoRedoHistory
UndoRedoHistory
Layer: 1
Undoes
EndUndoes
Redoes
EndRedoes
EndUndoRedoHistory
Fore
SplineSet
170 852 m 1,0,-1
 74 768 l 1,1,-1
 40 792 l 1,2,-1
 124 900 l 1,3,-1
 170 852 l 1,0,-1
300 852 m 1,4,-1
 204 768 l 1,5,-1
 170 792 l 1,6,-1
 254 900 l 1,7,-1
 300 852 l 1,4,-1
260 40 m 2,8,9
 260 26 260 26 245.5 13 c 128,-1,10
 231 0 231 0 217 0 c 2,11,-1
 50 0 l 1,12,-1
 50 687 l 1,13,-1
 110 687 l 1,14,-1
 110 69 l 1,15,-1
 197 63 l 1,16,-1
 176 710 l 1,17,-1
 260 710 l 1,18,-1
 260 40 l 2,8,9
EndSplineSet
Validated: 1
Substitution2: "Single Substitution lookup 21 subtable" uhungarumlaut
Substitution2: "'aalt' Access All Alternates lookup 0 subtable" uhungarumlaut
Position2: "'cpsp' Capital Spacing lookup 0 subtable" dx=5 dy=0 dh=10 dv=0
EndChar

StartChar: Umacron
Encoding: 362 362 127
Width: 309
Flags: MW
HStem: 0 66 690 20G<176 260 260 260> 832 60
VStem: 50 60<69 687 69 687 69 687> 187 74
LayerCount: 2
UndoRedoHistory
Layer: 0
Undoes
EndUndoes
Redoes
EndRedoes
EndUndoRedoHistory
UndoRedoHistory
Layer: 1
Undoes
EndUndoes
Redoes
EndRedoes
EndUndoRedoHistory
Fore
SplineSet
293 836 m 1,0,-1
 28 827 l 1,1,-1
 25 891 l 1,2,-1
 293 891 l 1,3,-1
 293 836 l 1,0,-1
260 40 m 2,4,5
 260 26 260 26 245.5 13 c 128,-1,6
 231 0 231 0 217 0 c 2,7,-1
 50 0 l 1,8,-1
 50 687 l 1,9,-1
 110 687 l 1,10,-1
 110 69 l 1,11,-1
 197 63 l 1,12,-1
 176 710 l 1,13,-1
 260 710 l 1,14,-1
 260 40 l 2,4,5
EndSplineSet
Validated: 1
Substitution2: "Single Substitution lookup 21 subtable" umacron
Substitution2: "'aalt' Access All Alternates lookup 0 subtable" umacron
Position2: "'cpsp' Capital Spacing lookup 0 subtable" dx=5 dy=0 dh=10 dv=0
EndChar

StartChar: Uogonek
Encoding: 370 370 128
Width: 309
Flags: MW
HStem: 0 66 690 20G<176 260 260 260>
VStem: 50 60<69 687 69 687 69 687> 187 74
LayerCount: 2
UndoRedoHistory
Layer: 0
Undoes
EndUndoes
Redoes
EndRedoes
EndUndoRedoHistory
UndoRedoHistory
Layer: 1
Undoes
EndUndoes
Redoes
EndRedoes
EndUndoRedoHistory
Fore
SplineSet
260 40 m 2,0,1
 260 26 260 26 245.5 13 c 128,-1,2
 231 0 231 0 217 0 c 2,3,-1
 182 0 l 1,4,-1
 156 -83 l 1,5,-1
 190 -145 l 1,6,-1
 279 -100 l 1,7,-1
 295 -146 l 1,8,-1
 182 -209 l 1,9,-1
 94 -95 l 1,10,-1
 142 0 l 1,11,-1
 50 0 l 1,12,-1
 50 687 l 1,13,-1
 110 687 l 1,14,-1
 110 69 l 1,15,-1
 197 63 l 1,16,-1
 176 710 l 1,17,-1
 260 710 l 1,18,-1
 260 40 l 2,0,1
EndSplineSet
Validated: 1
Substitution2: "Single Substitution lookup 21 subtable" uogonek
Substitution2: "'aalt' Access All Alternates lookup 0 subtable" uogonek
Position2: "'cpsp' Capital Spacing lookup 0 subtable" dx=5 dy=0 dh=10 dv=0
EndChar

StartChar: Uring
Encoding: 366 366 129
Width: 309
Flags: MW
HStem: 0 66 690 20G<176 260 260 260> 765 35<137 178 178 181 137 202> 873 27<137 139>
VStem: 50 60<69 687 69 687 69 687> 88 43<803 804 804 870> 185 42<806 862 862 863> 187 74
LayerCount: 2
UndoRedoHistory
Layer: 0
Undoes
EndUndoes
Redoes
EndRedoes
EndUndoRedoHistory
UndoRedoHistory
Layer: 1
Undoes
EndUndoes
Redoes
EndRedoes
EndUndoRedoHistory
Fore
SplineSet
227 791 m 1,0,-1
 202 765 l 1,1,-1
 88 765 l 1,2,-1
 88 900 l 1,3,-1
 227 900 l 1,4,-1
 227 791 l 1,0,-1
178 800 m 2,5,6
 185 800 185 800 185 806 c 2,7,-1
 185 862 l 2,8,9
 185 865 185 865 179 868 c 1,10,-1
 139 873 l 1,11,12
 131 873 131 873 131 870 c 2,13,-1
 131 804 l 2,14,15
 131 800 131 800 137 800 c 2,16,-1
 178 800 l 2,5,6
260 40 m 2,17,18
 260 26 260 26 245.5 13 c 128,-1,19
 231 0 231 0 217 0 c 2,20,-1
 50 0 l 1,21,-1
 50 687 l 1,22,-1
 110 687 l 1,23,-1
 110 69 l 1,24,-1
 197 63 l 1,25,-1
 176 710 l 1,26,-1
 260 710 l 1,27,-1
 260 40 l 2,17,18
EndSplineSet
Validated: 8388609
Substitution2: "Single Substitution lookup 21 subtable" uring
Substitution2: "'aalt' Access All Alternates lookup 0 subtable" uring
Position2: "'cpsp' Capital Spacing lookup 0 subtable" dx=5 dy=0 dh=10 dv=0
EndChar

StartChar: Utilde
Encoding: 360 360 130
Width: 309
Flags: MW
HStem: 0 66 690 20G<176 260 260 260>
VStem: 50 60<69 687 69 687 69 687> 187 74
LayerCount: 2
UndoRedoHistory
Layer: 0
Undoes
EndUndoes
Redoes
EndRedoes
EndUndoRedoHistory
UndoRedoHistory
Layer: 1
Undoes
EndUndoes
Redoes
EndRedoes
EndUndoRedoHistory
Fore
SplineSet
66 883 m 1,0,1
 84 897 84 897 104 897 c 0,2,3
 129 897 129 897 158 877 c 1,4,-1
 196 852 l 1,5,-1
 268 900 l 1,6,-1
 268 840 l 1,7,-1
 244 817 l 1,8,9
 219 794 219 794 200 794 c 0,10,11
 181 794 181 794 155 813 c 2,12,-1
 111 844 l 1,13,-1
 43 791 l 1,14,-1
 40 860 l 1,15,-1
 66 883 l 1,0,1
260 40 m 2,16,17
 260 26 260 26 245.5 13 c 128,-1,18
 231 0 231 0 217 0 c 2,19,-1
 50 0 l 1,20,-1
 50 687 l 1,21,-1
 110 687 l 1,22,-1
 110 69 l 1,23,-1
 197 63 l 1,24,-1
 176 710 l 1,25,-1
 260 710 l 1,26,-1
 260 40 l 2,16,17
EndSplineSet
Validated: 1
Substitution2: "Single Substitution lookup 21 subtable" utilde
Substitution2: "'aalt' Access All Alternates lookup 0 subtable" utilde
Position2: "'cpsp' Capital Spacing lookup 0 subtable" dx=5 dy=0 dh=10 dv=0
EndChar

StartChar: V
Encoding: 86 86 131
Width: 280
Flags: MW
HStem: -10 21G<123 123> 690 20G<7 86 86 86 209 274 274 274>
VStem: 7 267<710 710>
LayerCount: 2
UndoRedoHistory
Layer: 0
Undoes
EndUndoes
Redoes
EndRedoes
EndUndoRedoHistory
UndoRedoHistory
Layer: 1
Undoes
EndUndoes
Redoes
EndRedoes
EndUndoRedoHistory
Fore
SplineSet
7 710 m 1,0,-1
 86 710 l 1,1,-1
 157 78 l 1,2,-1
 161 78 l 1,3,-1
 209 710 l 1,4,-1
 274 710 l 1,5,-1
 189 0 l 1,6,-1
 123 -10 l 1,7,-1
 7 710 l 1,0,-1
EndSplineSet
Validated: 1
Substitution2: "Single Substitution lookup 20 subtable" v
Substitution2: "'aalt' Access All Alternates lookup 0 subtable" v
Position2: "'cpsp' Capital Spacing lookup 0 subtable" dx=5 dy=0 dh=10 dv=0
EndChar

StartChar: W
Encoding: 87 87 132
Width: 333
Flags: MW
HStem: 0 86<81 85 81 102 47 85 252 257> 690 20G<8 81 81 81 257 327 327 327>
VStem: 8 73<86 710> 257 70<86 710 710 710>
LayerCount: 2
UndoRedoHistory
Layer: 0
Undoes
EndUndoes
Redoes
EndRedoes
EndUndoRedoHistory
UndoRedoHistory
Layer: 1
Undoes
EndUndoes
Redoes
EndRedoes
EndUndoRedoHistory
Fore
SplineSet
291 0 m 1,0,-1
 228 0 l 1,1,-1
 167 417 l 1,2,-1
 163 417 l 1,3,-1
 102 0 l 1,4,-1
 47 0 l 1,5,-1
 8 710 l 1,6,-1
 81 710 l 1,7,-1
 81 86 l 1,8,-1
 85 86 l 1,9,-1
 142 598 l 1,10,-1
 185 598 l 1,11,-1
 252 86 l 1,12,-1
 257 86 l 1,13,-1
 257 710 l 1,14,-1
 327 710 l 1,15,-1
 291 0 l 1,0,-1
EndSplineSet
Validated: 1
Substitution2: "Single Substitution lookup 20 subtable" w
Substitution2: "'aalt' Access All Alternates lookup 0 subtable" w
Position2: "'cpsp' Capital Spacing lookup 0 subtable" dx=5 dy=0 dh=10 dv=0
EndChar

StartChar: Wacute
Encoding: 7810 7810 133
Width: 333
Flags: MW
HStem: 0 86<81 85 81 102 47 85 252 257> 690 20G<8 81 81 81 257 327 327 327>
VStem: 8 73<86 710> 257 70<86 710 710 710>
LayerCount: 2
UndoRedoHistory
Layer: 0
Undoes
EndUndoes
Redoes
EndRedoes
EndUndoRedoHistory
UndoRedoHistory
Layer: 1
Undoes
EndUndoes
Redoes
EndRedoes
EndUndoRedoHistory
Fore
SplineSet
237 852 m 1,0,-1
 141 768 l 1,1,-1
 107 792 l 1,2,-1
 191 900 l 1,3,-1
 237 852 l 1,0,-1
291 0 m 1,4,-1
 228 0 l 1,5,-1
 167 417 l 1,6,-1
 163 417 l 1,7,-1
 102 0 l 1,8,-1
 47 0 l 1,9,-1
 8 710 l 1,10,-1
 81 710 l 1,11,-1
 81 86 l 1,12,-1
 85 86 l 1,13,-1
 142 598 l 1,14,-1
 185 598 l 1,15,-1
 252 86 l 1,16,-1
 257 86 l 1,17,-1
 257 710 l 1,18,-1
 327 710 l 1,19,-1
 291 0 l 1,4,-1
EndSplineSet
Validated: 1
Substitution2: "Single Substitution lookup 20 subtable" wacute
Substitution2: "'aalt' Access All Alternates lookup 0 subtable" wacute
Position2: "'cpsp' Capital Spacing lookup 0 subtable" dx=5 dy=0 dh=10 dv=0
EndChar

StartChar: Wcircumflex
Encoding: 372 372 134
Width: 333
Flags: MW
HStem: 0 86<81 85 81 102 47 85 252 257> 690 20G<8 81 81 81 257 327 327 327>
VStem: 8 73<86 710> 257 70<86 710 710 710>
LayerCount: 2
UndoRedoHistory
Layer: 0
Undoes
EndUndoes
Redoes
EndRedoes
EndUndoRedoHistory
UndoRedoHistory
Layer: 1
Undoes
EndUndoes
Redoes
EndRedoes
EndUndoRedoHistory
Fore
SplineSet
194 897 m 1,0,-1
 268 787 l 1,1,-1
 239 768 l 1,2,-1
 174 830 l 1,3,-1
 109 768 l 1,4,-1
 80 787 l 1,5,-1
 154 900 l 1,6,-1
 194 897 l 1,0,-1
291 0 m 1,7,-1
 228 0 l 1,8,-1
 167 417 l 1,9,-1
 163 417 l 1,10,-1
 102 0 l 1,11,-1
 47 0 l 1,12,-1
 8 710 l 1,13,-1
 81 710 l 1,14,-1
 81 86 l 1,15,-1
 85 86 l 1,16,-1
 142 598 l 1,17,-1
 185 598 l 1,18,-1
 252 86 l 1,19,-1
 257 86 l 1,20,-1
 257 710 l 1,21,-1
 327 710 l 1,22,-1
 291 0 l 1,7,-1
EndSplineSet
Validated: 1
Substitution2: "Single Substitution lookup 20 subtable" wcircumflex
Substitution2: "'aalt' Access All Alternates lookup 0 subtable" wcircumflex
Position2: "'cpsp' Capital Spacing lookup 0 subtable" dx=5 dy=0 dh=10 dv=0
EndChar

StartChar: Wdieresis
Encoding: 7812 7812 135
Width: 333
Flags: MW
HStem: 0 86<81 85 81 102 47 85 252 257> 690 20G<8 81 81 81 257 327 327 327> 815 82
VStem: 8 73<86 710> 50 81 202 78 257 70<86 710 710 710>
LayerCount: 2
UndoRedoHistory
Layer: 0
Undoes
EndUndoes
Redoes
EndRedoes
EndUndoRedoHistory
UndoRedoHistory
Layer: 1
Undoes
EndUndoes
Redoes
EndRedoes
EndUndoRedoHistory
Fore
SplineSet
133 898 m 1,0,-1
 129 815 l 1,1,-1
 50 815 l 1,2,-1
 50 895 l 1,3,-1
 133 898 l 1,0,-1
279 898 m 1,4,-1
 279 818 l 1,5,-1
 203 815 l 1,6,-1
 200 898 l 1,7,-1
 279 898 l 1,4,-1
291 0 m 1,8,-1
 228 0 l 1,9,-1
 167 417 l 1,10,-1
 163 417 l 1,11,-1
 102 0 l 1,12,-1
 47 0 l 1,13,-1
 8 710 l 1,14,-1
 81 710 l 1,15,-1
 81 86 l 1,16,-1
 85 86 l 1,17,-1
 142 598 l 1,18,-1
 185 598 l 1,19,-1
 252 86 l 1,20,-1
 257 86 l 1,21,-1
 257 710 l 1,22,-1
 327 710 l 1,23,-1
 291 0 l 1,8,-1
EndSplineSet
Validated: 8388609
Substitution2: "Single Substitution lookup 20 subtable" wdieresis
Substitution2: "'aalt' Access All Alternates lookup 0 subtable" wdieresis
Position2: "'cpsp' Capital Spacing lookup 0 subtable" dx=5 dy=0 dh=10 dv=0
EndChar

StartChar: Wgrave
Encoding: 7808 7808 136
Width: 333
Flags: MW
HStem: 0 86<81 85 81 102 47 85 252 257> 690 20G<8 81 81 81 257 327 327 327>
VStem: 8 73<86 710> 257 70<86 710 710 710>
LayerCount: 2
UndoRedoHistory
Layer: 0
Undoes
EndUndoes
Redoes
EndRedoes
EndUndoRedoHistory
UndoRedoHistory
Layer: 1
Undoes
EndUndoes
Redoes
EndRedoes
EndUndoRedoHistory
Fore
SplineSet
186 768 m 1,0,-1
 90 852 l 1,1,-1
 136 900 l 1,2,-1
 220 792 l 1,3,-1
 186 768 l 1,0,-1
291 0 m 1,4,-1
 228 0 l 1,5,-1
 167 417 l 1,6,-1
 163 417 l 1,7,-1
 102 0 l 1,8,-1
 47 0 l 1,9,-1
 8 710 l 1,10,-1
 81 710 l 1,11,-1
 81 86 l 1,12,-1
 85 86 l 1,13,-1
 142 598 l 1,14,-1
 185 598 l 1,15,-1
 252 86 l 1,16,-1
 257 86 l 1,17,-1
 257 710 l 1,18,-1
 327 710 l 1,19,-1
 291 0 l 1,4,-1
EndSplineSet
Validated: 1
Substitution2: "Single Substitution lookup 20 subtable" wgrave
Substitution2: "'aalt' Access All Alternates lookup 0 subtable" wgrave
Position2: "'cpsp' Capital Spacing lookup 0 subtable" dx=5 dy=0 dh=10 dv=0
EndChar

StartChar: X
Encoding: 88 88 137
Width: 303
Flags: MW
HStem: 0 21G<23 110 23 23 222 295 222 222> 690 20G<17 99 99 99 221 295 295 295>
VStem: 222 73<0 30 0 55 0 55>
LayerCount: 2
UndoRedoHistory
Layer: 0
Undoes
EndUndoes
Redoes
EndRedoes
EndUndoRedoHistory
UndoRedoHistory
Layer: 1
Undoes
EndUndoes
Redoes
EndRedoes
EndUndoRedoHistory
Fore
SplineSet
122 364 m 1,0,-1
 17 710 l 1,1,-1
 99 710 l 1,2,-1
 171 386 l 1,3,-1
 191 418 l 1,4,-1
 221 710 l 1,5,-1
 295 710 l 1,6,-1
 265 402 l 1,7,-1
 197 334 l 1,8,-1
 282 45 l 1,9,-1
 295 30 l 1,10,-1
 295 0 l 1,11,-1
 222 0 l 1,12,-1
 222 55 l 1,13,-1
 147 300 l 1,14,-1
 119 263 l 1,15,-1
 110 0 l 1,16,-1
 23 0 l 1,17,-1
 51 293 l 1,18,-1
 122 364 l 1,0,-1
EndSplineSet
Validated: 1
Substitution2: "Single Substitution lookup 20 subtable" x
Substitution2: "'aalt' Access All Alternates lookup 0 subtable" x
Position2: "'cpsp' Capital Spacing lookup 0 subtable" dx=5 dy=0 dh=10 dv=0
EndChar

StartChar: Y
Encoding: 89 89 138
Width: 246
Flags: MW
HStem: 690 20G<30 94 94 94 161 217 217 217>
VStem: 30 70 97 67<-20 353 353 353> 152 65
LayerCount: 2
UndoRedoHistory
Layer: 0
Undoes
EndUndoes
Redoes
EndRedoes
EndUndoRedoHistory
UndoRedoHistory
Layer: 1
Undoes
EndUndoes
Redoes
EndRedoes
EndUndoRedoHistory
Fore
SplineSet
97 -20 m 1,0,-1
 97 353 l 1,1,-1
 30 472 l 1,2,-1
 30 710 l 1,3,-1
 94 710 l 1,4,-1
 107 431 l 1,5,-1
 143 428 l 1,6,-1
 161 710 l 1,7,-1
 217 710 l 1,8,-1
 217 451 l 1,9,-1
 164 389 l 1,10,-1
 164 -20 l 1,11,-1
 97 -20 l 1,0,-1
EndSplineSet
Validated: 8388609
Substitution2: "Single Substitution lookup 20 subtable" y
Substitution2: "'aalt' Access All Alternates lookup 0 subtable" y
Position2: "'cpsp' Capital Spacing lookup 0 subtable" dx=5 dy=0 dh=10 dv=0
EndChar

StartChar: Yacute
Encoding: 221 221 139
Width: 246
Flags: MW
HStem: -20 920<162 162 162 164 162 164>
VStem: 101 51
LayerCount: 2
UndoRedoHistory
Layer: 0
Undoes
EndUndoes
Redoes
EndRedoes
EndUndoRedoHistory
UndoRedoHistory
Layer: 1
Undoes
EndUndoes
Redoes
EndRedoes
EndUndoRedoHistory
Fore
SplineSet
208 852 m 1,0,-1
 112 768 l 1,1,-1
 78 792 l 1,2,-1
 162 900 l 1,3,-1
 208 852 l 1,0,-1
217 451 m 1,4,-1
 164 389 l 1,5,-1
 164 -20 l 1,6,-1
 97 -20 l 1,7,-1
 97 353 l 1,8,-1
 30 472 l 1,9,-1
 30 710 l 1,10,-1
 94 710 l 1,11,-1
 107 431 l 1,12,-1
 143 428 l 1,13,-1
 161 710 l 1,14,-1
 217 710 l 1,15,-1
 217 451 l 1,4,-1
EndSplineSet
Validated: 1
Substitution2: "Single Substitution lookup 20 subtable" yacute
Substitution2: "'aalt' Access All Alternates lookup 0 subtable" yacute
Position2: "'cpsp' Capital Spacing lookup 0 subtable" dx=5 dy=0 dh=10 dv=0
EndChar

StartChar: Ycircumflex
Encoding: 374 374 140
Width: 246
Flags: MW
HStem: 690 20G<30 94 94 94 161 217 217 217>
VStem: 30 70 97 67<-20 353 353 353> 152 65
LayerCount: 2
UndoRedoHistory
Layer: 0
Undoes
EndUndoes
Redoes
EndRedoes
EndUndoRedoHistory
UndoRedoHistory
Layer: 1
Undoes
EndUndoes
Redoes
EndRedoes
EndUndoRedoHistory
Fore
SplineSet
149 897 m 1,0,-1
 223 787 l 1,1,-1
 194 768 l 1,2,-1
 129 830 l 1,3,-1
 64 768 l 1,4,-1
 35 787 l 1,5,-1
 109 900 l 1,6,-1
 149 897 l 1,0,-1
97 -20 m 1,7,-1
 97 353 l 1,8,-1
 30 472 l 1,9,-1
 30 710 l 1,10,-1
 94 710 l 1,11,-1
 107 431 l 1,12,-1
 143 428 l 1,13,-1
 161 710 l 1,14,-1
 217 710 l 1,15,-1
 217 451 l 1,16,-1
 164 389 l 1,17,-1
 164 -20 l 1,18,-1
 97 -20 l 1,7,-1
EndSplineSet
Validated: 8388609
Substitution2: "Single Substitution lookup 20 subtable" ycircumflex
Substitution2: "'aalt' Access All Alternates lookup 0 subtable" ycircumflex
Position2: "'cpsp' Capital Spacing lookup 0 subtable" dx=5 dy=0 dh=10 dv=0
EndChar

StartChar: Ydieresis
Encoding: 376 376 141
Width: 246
Flags: MW
HStem: 815 82
VStem: 10 81 101 51 162 78
LayerCount: 2
UndoRedoHistory
Layer: 0
Undoes
EndUndoes
Redoes
EndRedoes
EndUndoRedoHistory
UndoRedoHistory
Layer: 1
Undoes
EndUndoes
Redoes
EndRedoes
EndUndoRedoHistory
Fore
SplineSet
93 898 m 1,0,-1
 89 815 l 1,1,-1
 10 815 l 1,2,-1
 10 895 l 1,3,-1
 93 898 l 1,0,-1
239 898 m 1,4,-1
 239 818 l 1,5,-1
 163 815 l 1,6,-1
 160 898 l 1,7,-1
 239 898 l 1,4,-1
217 451 m 1,8,-1
 164 389 l 1,9,-1
 164 -20 l 1,10,-1
 97 -20 l 1,11,-1
 97 353 l 1,12,-1
 30 472 l 1,13,-1
 30 710 l 1,14,-1
 94 710 l 1,15,-1
 107 431 l 1,16,-1
 143 428 l 1,17,-1
 161 710 l 1,18,-1
 217 710 l 1,19,-1
 217 451 l 1,8,-1
EndSplineSet
Validated: 1
Substitution2: "Single Substitution lookup 20 subtable" ydieresis
Substitution2: "'aalt' Access All Alternates lookup 0 subtable" ydieresis
Position2: "'cpsp' Capital Spacing lookup 0 subtable" dx=5 dy=0 dh=10 dv=0
EndChar

StartChar: Ygrave
Encoding: 7922 7922 142
Width: 246
Flags: MW
HStem: 690 20G<30 94 94 94 161 217 217 217>
VStem: 30 70 97 67<-20 353 353 353> 152 65
LayerCount: 2
UndoRedoHistory
Layer: 0
Undoes
EndUndoes
Redoes
EndRedoes
EndUndoRedoHistory
UndoRedoHistory
Layer: 1
Undoes
EndUndoes
Redoes
EndRedoes
EndUndoRedoHistory
Fore
SplineSet
156 768 m 1,0,-1
 60 852 l 1,1,-1
 106 900 l 1,2,-1
 190 792 l 1,3,-1
 156 768 l 1,0,-1
97 -20 m 1,4,-1
 97 353 l 1,5,-1
 30 472 l 1,6,-1
 30 710 l 1,7,-1
 94 710 l 1,8,-1
 107 431 l 1,9,-1
 143 428 l 1,10,-1
 161 710 l 1,11,-1
 217 710 l 1,12,-1
 217 451 l 1,13,-1
 164 389 l 1,14,-1
 164 -20 l 1,15,-1
 97 -20 l 1,4,-1
EndSplineSet
Validated: 8388609
Substitution2: "Single Substitution lookup 20 subtable" ygrave
Substitution2: "'aalt' Access All Alternates lookup 0 subtable" ygrave
Position2: "'cpsp' Capital Spacing lookup 0 subtable" dx=5 dy=0 dh=10 dv=0
EndChar

StartChar: Ytilde
Encoding: 7928 7928 143
Width: 246
Flags: MW
HStem: -20 920<97 238 164 238>
VStem: 12 227 101 51
LayerCount: 2
UndoRedoHistory
Layer: 0
Undoes
EndUndoes
Redoes
EndRedoes
EndUndoRedoHistory
UndoRedoHistory
Layer: 1
Undoes
EndUndoes
Redoes
EndRedoes
EndUndoRedoHistory
Fore
SplineSet
36 883 m 1,0,1
 54 897 54 897 74 897 c 0,2,3
 99 897 99 897 128 877 c 1,4,-1
 166 852 l 1,5,-1
 238 900 l 1,6,-1
 238 840 l 1,7,-1
 214 817 l 1,8,9
 189 794 189 794 170 794 c 0,10,11
 152 794 152 794 125 813 c 2,12,-1
 81 844 l 1,13,-1
 13 791 l 1,14,-1
 10 860 l 1,15,-1
 36 883 l 1,0,1
217 451 m 1,16,-1
 164 389 l 1,17,-1
 164 -20 l 1,18,-1
 97 -20 l 1,19,-1
 97 353 l 1,20,-1
 30 472 l 1,21,-1
 30 710 l 1,22,-1
 94 710 l 1,23,-1
 107 431 l 1,24,-1
 143 428 l 1,25,-1
 161 710 l 1,26,-1
 217 710 l 1,27,-1
 217 451 l 1,16,-1
EndSplineSet
Validated: 8388609
Substitution2: "Single Substitution lookup 20 subtable" ytilde
Substitution2: "'aalt' Access All Alternates lookup 0 subtable" ytilde
Position2: "'cpsp' Capital Spacing lookup 0 subtable" dx=5 dy=0 dh=10 dv=0
EndChar

StartChar: Z
Encoding: 90 90 144
Width: 301
Flags: MW
HStem: 0 22<30 272 30 48> 670 40<46 241> 679 31
VStem: 30 242<0 22>
LayerCount: 2
UndoRedoHistory
Layer: 0
Undoes
EndUndoes
Redoes
EndRedoes
EndUndoRedoHistory
UndoRedoHistory
Layer: 1
Undoes
EndUndoes
Redoes
EndRedoes
EndUndoRedoHistory
Fore
SplineSet
30 22 m 1,0,-1
 64 88 l 1,1,-1
 182 638 l 1,2,-1
 46 670 l 1,3,-1
 46 710 l 1,4,-1
 241 710 l 1,5,-1
 272 679 l 1,6,-1
 130 84 l 1,7,-1
 264 65 l 1,8,-1
 272 0 l 1,9,-1
 48 0 l 1,10,-1
 30 22 l 1,0,-1
EndSplineSet
Validated: 8388609
Substitution2: "Single Substitution lookup 20 subtable" z
Substitution2: "'aalt' Access All Alternates lookup 0 subtable" z
Position2: "'cpsp' Capital Spacing lookup 0 subtable" dx=5 dy=0 dh=10 dv=0
EndChar

StartChar: Zacute
Encoding: 377 377 145
Width: 301
Flags: MW
HStem: 710 82<105 105 105 241 46 105>
VStem: 30 242<0 22>
LayerCount: 2
UndoRedoHistory
Layer: 0
Undoes
EndUndoes
Redoes
EndRedoes
EndUndoRedoHistory
UndoRedoHistory
Layer: 1
Undoes
EndUndoes
Redoes
EndRedoes
EndUndoRedoHistory
Fore
SplineSet
235 852 m 1,0,-1
 139 768 l 1,1,-1
 105 792 l 1,2,-1
 189 900 l 1,3,-1
 235 852 l 1,0,-1
264 65 m 1,4,-1
 272 0 l 1,5,-1
 48 0 l 1,6,-1
 30 22 l 1,7,-1
 64 88 l 1,8,-1
 182 638 l 1,9,-1
 46 670 l 1,10,-1
 46 710 l 1,11,-1
 241 710 l 1,12,-1
 272 679 l 1,13,-1
 130 84 l 1,14,-1
 264 65 l 1,4,-1
EndSplineSet
Validated: 1
Substitution2: "Single Substitution lookup 20 subtable" zacute
Substitution2: "'locl' Localized Forms in Latin lookup 11 subtable" Zacute.loclPLK
AlternateSubs2: "'aalt' Access All Alternates lookup 1 subtable" Zacute.loclPLK zacute
Position2: "'cpsp' Capital Spacing lookup 0 subtable" dx=5 dy=0 dh=10 dv=0
EndChar

StartChar: Zcaron
Encoding: 381 381 146
Width: 301
Flags: MW
HStem: 0 22<30 272 30 48> 670 40<46 241> 679 31
VStem: 30 242<0 22>
LayerCount: 2
UndoRedoHistory
Layer: 0
Undoes
EndUndoes
Redoes
EndRedoes
EndUndoRedoHistory
UndoRedoHistory
Layer: 1
Undoes
EndUndoes
Redoes
EndRedoes
EndUndoRedoHistory
Fore
SplineSet
139 771 m 1,0,-1
 65 881 l 1,1,-1
 94 900 l 1,2,-1
 159 838 l 1,3,-1
 224 900 l 1,4,-1
 253 881 l 1,5,-1
 179 768 l 1,6,-1
 139 771 l 1,0,-1
30 22 m 1,7,-1
 64 88 l 1,8,-1
 182 638 l 1,9,-1
 46 670 l 1,10,-1
 46 710 l 1,11,-1
 241 710 l 1,12,-1
 272 679 l 1,13,-1
 130 84 l 1,14,-1
 264 65 l 1,15,-1
 272 0 l 1,16,-1
 48 0 l 1,17,-1
 30 22 l 1,7,-1
EndSplineSet
Validated: 8388609
Substitution2: "Single Substitution lookup 20 subtable" zcaron
Substitution2: "'aalt' Access All Alternates lookup 0 subtable" zcaron
Position2: "'cpsp' Capital Spacing lookup 0 subtable" dx=5 dy=0 dh=10 dv=0
EndChar

StartChar: Zdotaccent
Encoding: 379 379 147
Width: 301
Flags: MW
HStem: 804 97
VStem: 110 91
LayerCount: 2
UndoRedoHistory
Layer: 0
Undoes
EndUndoes
Redoes
EndRedoes
EndUndoRedoHistory
UndoRedoHistory
Layer: 1
Undoes
EndUndoes
Redoes
EndRedoes
EndUndoRedoHistory
Fore
SplineSet
201 900 m 1,0,-1
 201 805 l 1,1,-1
 112 802 l 1,2,-1
 108 900 l 1,3,-1
 201 900 l 1,0,-1
264 65 m 1,4,-1
 272 0 l 1,5,-1
 48 0 l 1,6,-1
 30 22 l 1,7,-1
 64 88 l 1,8,-1
 182 638 l 1,9,-1
 46 670 l 1,10,-1
 46 710 l 1,11,-1
 241 710 l 1,12,-1
 272 679 l 1,13,-1
 130 84 l 1,14,-1
 264 65 l 1,4,-1
EndSplineSet
Validated: 1
Substitution2: "Single Substitution lookup 20 subtable" zdotaccent
Substitution2: "'aalt' Access All Alternates lookup 0 subtable" zdotaccent
Position2: "'cpsp' Capital Spacing lookup 0 subtable" dx=5 dy=0 dh=10 dv=0
EndChar

StartChar: Zdotbelow
Encoding: 7826 7826 148
Width: 301
Flags: MW
HStem: -152 97 0 22<30 272 30 48> 670 40<46 241> 679 31
VStem: 112 91
LayerCount: 2
UndoRedoHistory
Layer: 0
Undoes
EndUndoes
Redoes
EndRedoes
EndUndoRedoHistory
UndoRedoHistory
Layer: 1
Undoes
EndUndoes
Redoes
EndRedoes
EndUndoRedoHistory
Fore
SplineSet
30 22 m 1,0,-1
 64 88 l 1,1,-1
 182 638 l 1,2,-1
 46 670 l 1,3,-1
 46 710 l 1,4,-1
 241 710 l 1,5,-1
 272 679 l 1,6,-1
 130 84 l 1,7,-1
 264 65 l 1,8,-1
 272 0 l 1,9,-1
 48 0 l 1,10,-1
 30 22 l 1,0,-1
203 -56 m 1,11,-1
 203 -151 l 1,12,-1
 114 -154 l 1,13,-1
 110 -56 l 1,14,-1
 203 -56 l 1,11,-1
EndSplineSet
Validated: 8388609
Substitution2: "Single Substitution lookup 20 subtable" zdotbelow
Substitution2: "'aalt' Access All Alternates lookup 0 subtable" zdotbelow
Position2: "'cpsp' Capital Spacing lookup 0 subtable" dx=5 dy=0 dh=10 dv=0
EndChar

StartChar: a
Encoding: 97 97 149
Width: 307
Flags: MW
HStem: 0 21G<31 93 31 31 231 275 231 231> 658 52<133 133> 668 42<176 178>
VStem: 31 244<0 0>
LayerCount: 2
UndoRedoHistory
Layer: 0
Undoes
EndUndoes
Redoes
EndRedoes
EndUndoRedoHistory
UndoRedoHistory
Layer: 1
Undoes
EndUndoes
Redoes
EndRedoes
EndUndoRedoHistory
Fore
SplineSet
231 0 m 1,0,-1
 195 266 l 1,1,-1
 115 228 l 1,2,-1
 93 0 l 1,3,-1
 31 0 l 1,4,-1
 76 710 l 1,5,-1
 234 710 l 1,6,-1
 275 0 l 1,7,-1
 231 0 l 1,0,-1
182 662 m 2,8,9
 182 668 182 668 176 668 c 1,10,-1
 133 658 l 1,11,12
 127 655 127 655 127 648 c 2,13,-1
 127 296 l 2,14,15
 127 291 127 291 133 291 c 1,16,-1
 170 297 l 1,17,18
 176 297 176 297 176 303 c 2,19,-1
 182 662 l 2,8,9
EndSplineSet
Validated: 8388609
Substitution2: "Single Substitution lookup 21 subtable" A
Substitution2: "Single Substitution lookup 20 subtable" ordfeminine
AlternateSubs2: "'aalt' Access All Alternates lookup 1 subtable" ordfeminine A
EndChar

StartChar: aacute
Encoding: 225 225 150
Width: 307
Flags: MW
HStem: 0 21G<31 93 31 31 231 275 231 231> 658 52<133 133> 668 42<176 178>
VStem: 31 244<0 0>
LayerCount: 2
UndoRedoHistory
Layer: 0
Undoes
EndUndoes
Redoes
EndRedoes
EndUndoRedoHistory
UndoRedoHistory
Layer: 1
Undoes
EndUndoes
Redoes
EndRedoes
EndUndoRedoHistory
Fore
SplineSet
229 852 m 1,0,-1
 133 768 l 1,1,-1
 99 792 l 1,2,-1
 183 900 l 1,3,-1
 229 852 l 1,0,-1
231 0 m 1,4,-1
 195 266 l 1,5,-1
 115 228 l 1,6,-1
 93 0 l 1,7,-1
 31 0 l 1,8,-1
 76 710 l 1,9,-1
 234 710 l 1,10,-1
 275 0 l 1,11,-1
 231 0 l 1,4,-1
182 662 m 2,12,13
 182 668 182 668 176 668 c 1,14,-1
 133 658 l 1,15,16
 127 655 127 655 127 648 c 2,17,-1
 127 296 l 2,18,19
 127 291 127 291 133 291 c 1,20,-1
 170 297 l 1,21,22
 176 297 176 297 176 303 c 2,23,-1
 182 662 l 2,12,13
EndSplineSet
Validated: 8388609
Substitution2: "Single Substitution lookup 21 subtable" Aacute
Substitution2: "'aalt' Access All Alternates lookup 0 subtable" Aacute
EndChar

StartChar: abreve
Encoding: 259 259 151
Width: 307
Flags: MW
HStem: 0 21G<31 93 31 31 231 275 231 231> 658 52<133 133> 668 42<176 178> 785 47 846 48<98 98>
VStem: 52 48 218 44
LayerCount: 2
UndoRedoHistory
Layer: 0
Undoes
EndUndoes
Redoes
EndRedoes
EndUndoRedoHistory
UndoRedoHistory
Layer: 1
Undoes
EndUndoes
Redoes
EndRedoes
EndUndoRedoHistory
Fore
SplineSet
98 846 m 1,0,-1
 110 835 l 1,1,-1
 220 830 l 1,2,-1
 217 896 l 1,3,-1
 263 900 l 1,4,-1
 263 824 l 1,5,-1
 224 785 l 1,6,-1
 99 785 l 1,7,-1
 54 813 l 1,8,-1
 50 894 l 1,9,-1
 103 894 l 1,10,-1
 98 846 l 1,0,-1
231 0 m 1,11,-1
 195 266 l 1,12,-1
 115 228 l 1,13,-1
 93 0 l 1,14,-1
 31 0 l 1,15,-1
 76 710 l 1,16,-1
 234 710 l 1,17,-1
 275 0 l 1,18,-1
 231 0 l 1,11,-1
182 662 m 2,19,20
 182 668 182 668 176 668 c 1,21,-1
 133 658 l 1,22,23
 127 655 127 655 127 648 c 2,24,-1
 127 296 l 2,25,26
 127 291 127 291 133 291 c 1,27,-1
 170 297 l 1,28,29
 176 297 176 297 176 303 c 2,30,-1
 182 662 l 2,19,20
EndSplineSet
Validated: 8388609
Substitution2: "Single Substitution lookup 21 subtable" Abreve
Substitution2: "'aalt' Access All Alternates lookup 0 subtable" Abreve
EndChar

StartChar: acircumflex
Encoding: 226 226 152
Width: 307
Flags: MW
HStem: 0 21G<31 93 31 31 231 275 231 231> 658 52<133 133> 668 42<176 178>
VStem: 31 244<0 0>
LayerCount: 2
UndoRedoHistory
Layer: 0
Undoes
EndUndoes
Redoes
EndRedoes
EndUndoRedoHistory
UndoRedoHistory
Layer: 1
Undoes
EndUndoes
Redoes
EndRedoes
EndUndoRedoHistory
Fore
SplineSet
179 897 m 1,0,-1
 253 787 l 1,1,-1
 224 768 l 1,2,-1
 159 830 l 1,3,-1
 94 768 l 1,4,-1
 65 787 l 1,5,-1
 139 900 l 1,6,-1
 179 897 l 1,0,-1
231 0 m 1,7,-1
 195 266 l 1,8,-1
 115 228 l 1,9,-1
 93 0 l 1,10,-1
 31 0 l 1,11,-1
 76 710 l 1,12,-1
 234 710 l 1,13,-1
 275 0 l 1,14,-1
 231 0 l 1,7,-1
182 662 m 2,15,16
 182 668 182 668 176 668 c 1,17,-1
 133 658 l 1,18,19
 127 655 127 655 127 648 c 2,20,-1
 127 296 l 2,21,22
 127 291 127 291 133 291 c 1,23,-1
 170 297 l 1,24,25
 176 297 176 297 176 303 c 2,26,-1
 182 662 l 2,15,16
EndSplineSet
Validated: 8388609
Substitution2: "Single Substitution lookup 21 subtable" Acircumflex
Substitution2: "'aalt' Access All Alternates lookup 0 subtable" Acircumflex
EndChar

StartChar: adieresis
Encoding: 228 228 153
Width: 307
Flags: MW
HStem: 0 21G<31 93 31 31 231 275 231 231> 658 52<133 133> 668 42<176 178> 815 82
VStem: 39 81 190 78
LayerCount: 2
UndoRedoHistory
Layer: 0
Undoes
EndUndoes
Redoes
EndRedoes
EndUndoRedoHistory
UndoRedoHistory
Layer: 1
Undoes
EndUndoes
Redoes
EndRedoes
EndUndoRedoHistory
Fore
SplineSet
122 898 m 1,0,-1
 118 815 l 1,1,-1
 39 815 l 1,2,-1
 39 895 l 1,3,-1
 122 898 l 1,0,-1
268 898 m 1,4,-1
 268 818 l 1,5,-1
 192 815 l 1,6,-1
 189 898 l 1,7,-1
 268 898 l 1,4,-1
231 0 m 1,8,-1
 195 266 l 1,9,-1
 115 228 l 1,10,-1
 93 0 l 1,11,-1
 31 0 l 1,12,-1
 76 710 l 1,13,-1
 234 710 l 1,14,-1
 275 0 l 1,15,-1
 231 0 l 1,8,-1
182 662 m 2,16,17
 182 668 182 668 176 668 c 1,18,-1
 133 658 l 1,19,20
 127 655 127 655 127 648 c 2,21,-1
 127 296 l 2,22,23
 127 291 127 291 133 291 c 1,24,-1
 170 297 l 1,25,26
 176 297 176 297 176 303 c 2,27,-1
 182 662 l 2,16,17
EndSplineSet
Validated: 8388609
Substitution2: "Single Substitution lookup 21 subtable" Adieresis
Substitution2: "'aalt' Access All Alternates lookup 0 subtable" Adieresis
EndChar

StartChar: agrave
Encoding: 224 224 154
Width: 307
Flags: MW
HStem: 0 21G<31 93 31 31 231 275 231 231> 658 52<133 133> 668 42<176 178>
VStem: 31 244<0 0>
LayerCount: 2
UndoRedoHistory
Layer: 0
Undoes
EndUndoes
Redoes
EndRedoes
EndUndoRedoHistory
UndoRedoHistory
Layer: 1
Undoes
EndUndoes
Redoes
EndRedoes
EndUndoRedoHistory
Fore
SplineSet
185 768 m 1,0,-1
 89 852 l 1,1,-1
 135 900 l 1,2,-1
 219 792 l 1,3,-1
 185 768 l 1,0,-1
231 0 m 1,4,-1
 195 266 l 1,5,-1
 115 228 l 1,6,-1
 93 0 l 1,7,-1
 31 0 l 1,8,-1
 76 710 l 1,9,-1
 234 710 l 1,10,-1
 275 0 l 1,11,-1
 231 0 l 1,4,-1
182 662 m 2,12,13
 182 668 182 668 176 668 c 1,14,-1
 133 658 l 1,15,16
 127 655 127 655 127 648 c 2,17,-1
 127 296 l 2,18,19
 127 291 127 291 133 291 c 1,20,-1
 170 297 l 1,21,22
 176 297 176 297 176 303 c 2,23,-1
 182 662 l 2,12,13
EndSplineSet
Validated: 8388609
Substitution2: "Single Substitution lookup 21 subtable" Agrave
Substitution2: "'aalt' Access All Alternates lookup 0 subtable" Agrave
EndChar

StartChar: amacron
Encoding: 257 257 155
Width: 307
Flags: MW
HStem: 0 21G<31 93 31 31 231 275 231 231> 658 52<133 133> 668 42<176 178> 832 60
VStem: 20 268<836 891>
LayerCount: 2
UndoRedoHistory
Layer: 0
Undoes
EndUndoes
Redoes
EndRedoes
EndUndoRedoHistory
UndoRedoHistory
Layer: 1
Undoes
EndUndoes
Redoes
EndRedoes
EndUndoRedoHistory
Fore
SplineSet
288 836 m 1,0,-1
 23 827 l 1,1,-1
 20 891 l 1,2,-1
 288 891 l 1,3,-1
 288 836 l 1,0,-1
231 0 m 1,4,-1
 195 266 l 1,5,-1
 115 228 l 1,6,-1
 93 0 l 1,7,-1
 31 0 l 1,8,-1
 76 710 l 1,9,-1
 234 710 l 1,10,-1
 275 0 l 1,11,-1
 231 0 l 1,4,-1
182 662 m 2,12,13
 182 668 182 668 176 668 c 1,14,-1
 133 658 l 1,15,16
 127 655 127 655 127 648 c 2,17,-1
 127 296 l 2,18,19
 127 291 127 291 133 291 c 1,20,-1
 170 297 l 1,21,22
 176 297 176 297 176 303 c 2,23,-1
 182 662 l 2,12,13
EndSplineSet
Validated: 8388609
Substitution2: "Single Substitution lookup 21 subtable" Amacron
Substitution2: "'aalt' Access All Alternates lookup 0 subtable" Amacron
EndChar

StartChar: aogonek
Encoding: 261 261 156
Width: 307
Flags: MW
HStem: 0 21G<31 93 31 31 231 231 271 275 271 271> 658 52<133 133> 668 42<176 178>
VStem: 31 353<-146 0>
LayerCount: 2
UndoRedoHistory
Layer: 0
Undoes
EndUndoes
Redoes
EndRedoes
EndUndoRedoHistory
UndoRedoHistory
Layer: 1
Undoes
EndUndoes
Redoes
EndRedoes
EndUndoRedoHistory
Fore
SplineSet
271 0 m 1,0,-1
 245 -83 l 1,1,-1
 279 -145 l 1,2,-1
 368 -100 l 1,3,-1
 384 -146 l 1,4,-1
 271 -209 l 1,5,-1
 183 -95 l 1,6,-1
 231 0 l 1,7,-1
 195 266 l 1,8,-1
 115 228 l 1,9,-1
 93 0 l 1,10,-1
 31 0 l 1,11,-1
 76 710 l 1,12,-1
 234 710 l 1,13,-1
 275 0 l 1,14,-1
 271 0 l 1,0,-1
182 662 m 2,15,16
 182 668 182 668 176 668 c 1,17,-1
 133 658 l 1,18,19
 127 655 127 655 127 648 c 2,20,-1
 127 296 l 2,21,22
 127 291 127 291 133 291 c 1,23,-1
 170 297 l 1,24,25
 176 297 176 297 176 303 c 2,26,-1
 182 662 l 2,15,16
EndSplineSet
Validated: 8388609
Substitution2: "Single Substitution lookup 21 subtable" Aogonek
Substitution2: "'aalt' Access All Alternates lookup 0 subtable" Aogonek
EndChar

StartChar: aring
Encoding: 229 229 157
Width: 307
Flags: MW
HStem: 0 21G<31 93 31 31 231 275 231 231> 658 52<133 133> 668 42<176 178> 765 35<142 183 183 186 142 207> 873 27<142 144>
VStem: 93 43<803 804 804 870> 190 42<806 862 862 863>
LayerCount: 2
UndoRedoHistory
Layer: 0
Undoes
EndUndoes
Redoes
EndRedoes
EndUndoRedoHistory
UndoRedoHistory
Layer: 1
Undoes
EndUndoes
Redoes
EndRedoes
EndUndoRedoHistory
Fore
SplineSet
232 791 m 1,0,-1
 207 765 l 1,1,-1
 93 765 l 1,2,-1
 93 900 l 1,3,-1
 232 900 l 1,4,-1
 232 791 l 1,0,-1
183 800 m 2,5,6
 190 800 190 800 190 806 c 2,7,-1
 190 862 l 2,8,9
 190 865 190 865 184 868 c 1,10,-1
 144 873 l 1,11,12
 136 873 136 873 136 870 c 2,13,-1
 136 804 l 2,14,15
 136 800 136 800 142 800 c 2,16,-1
 183 800 l 2,5,6
231 0 m 1,17,-1
 195 266 l 1,18,-1
 115 228 l 1,19,-1
 93 0 l 1,20,-1
 31 0 l 1,21,-1
 76 710 l 1,22,-1
 234 710 l 1,23,-1
 275 0 l 1,24,-1
 231 0 l 1,17,-1
182 662 m 2,25,26
 182 668 182 668 176 668 c 1,27,-1
 133 658 l 1,28,29
 127 655 127 655 127 648 c 2,30,-1
 127 296 l 2,31,32
 127 291 127 291 133 291 c 1,33,-1
 170 297 l 1,34,35
 176 297 176 297 176 303 c 2,36,-1
 182 662 l 2,25,26
EndSplineSet
Validated: 8388609
Substitution2: "Single Substitution lookup 21 subtable" Aring
Substitution2: "'aalt' Access All Alternates lookup 0 subtable" Aring
EndChar

StartChar: aringacute
Encoding: 507 507 158
Width: 307
Flags: MW
HStem: 0 21G<31 93 31 31 231 275 231 231> 658 52<133 133> 668 42<176 176> 690 20G<76 84 84 84 130 174 174 176 223 234 234 234> 783 27<132 135>
VStem: 84 43<712 714 714 780> 181 42<716 772 772 773>
LayerCount: 2
UndoRedoHistory
Layer: 0
Undoes
EndUndoes
Redoes
EndRedoes
EndUndoRedoHistory
UndoRedoHistory
Layer: 1
Undoes
EndUndoes
Redoes
EndRedoes
EndUndoRedoHistory
Fore
SplineSet
230 845 m 1,0,-1
 104 823 l 1,1,-1
 88 861 l 1,2,-1
 221 900 l 1,3,-1
 230 845 l 1,0,-1
223 710 m 1,4,-1
 234 710 l 1,5,-1
 275 0 l 1,6,-1
 231 0 l 1,7,-1
 195 266 l 1,8,-1
 115 228 l 1,9,-1
 93 0 l 1,10,-1
 31 0 l 1,11,-1
 76 710 l 1,12,-1
 84 710 l 1,13,-1
 84 810 l 1,14,-1
 223 810 l 1,15,-1
 223 710 l 1,4,-1
174 710 m 2,16,17
 181 710 181 710 181 716 c 2,18,-1
 181 772 l 2,19,20
 181 774 181 774 175 778 c 1,21,-1
 135 783 l 1,22,23
 127 783 127 783 127 780 c 2,24,-1
 127 714 l 2,25,26
 127 710 127 710 130 710 c 2,27,-1
 174 710 l 2,16,17
182 662 m 2,28,29
 182 668 182 668 176 668 c 1,30,-1
 133 658 l 1,31,32
 127 655 127 655 127 648 c 2,33,-1
 127 296 l 2,34,35
 127 291 127 291 133 291 c 1,36,-1
 170 297 l 1,37,38
 176 297 176 297 176 303 c 2,39,-1
 182 662 l 2,28,29
EndSplineSet
Validated: 8388609
Substitution2: "Single Substitution lookup 21 subtable" Aringacute
Substitution2: "'aalt' Access All Alternates lookup 0 subtable" Aringacute
EndChar

StartChar: atilde
Encoding: 227 227 159
Width: 307
Flags: MW
HStem: 0 21G<31 93 31 31 231 275 231 231> 658 52<133 133> 668 42<176 178>
VStem: 42 85
LayerCount: 2
UndoRedoHistory
Layer: 0
Undoes
EndUndoes
Redoes
EndRedoes
EndUndoRedoHistory
UndoRedoHistory
Layer: 1
Undoes
EndUndoes
Redoes
EndRedoes
EndUndoRedoHistory
Fore
SplineSet
66 883 m 1,0,1
 84 897 84 897 104 897 c 0,2,3
 129 897 129 897 158 877 c 1,4,-1
 196 852 l 1,5,-1
 268 900 l 1,6,-1
 268 840 l 1,7,-1
 244 817 l 1,8,9
 219 794 219 794 200 794 c 0,10,11
 181 794 181 794 155 813 c 2,12,-1
 111 844 l 1,13,-1
 43 791 l 1,14,-1
 40 860 l 1,15,-1
 66 883 l 1,0,1
231 0 m 1,16,-1
 195 266 l 1,17,-1
 115 228 l 1,18,-1
 93 0 l 1,19,-1
 31 0 l 1,20,-1
 76 710 l 1,21,-1
 234 710 l 1,22,-1
 275 0 l 1,23,-1
 231 0 l 1,16,-1
182 662 m 2,24,25
 182 668 182 668 176 668 c 1,26,-1
 133 658 l 1,27,28
 127 655 127 655 127 648 c 2,29,-1
 127 296 l 2,30,31
 127 291 127 291 133 291 c 1,32,-1
 170 297 l 1,33,34
 176 297 176 297 176 303 c 2,35,-1
 182 662 l 2,24,25
EndSplineSet
Validated: 8388609
Substitution2: "Single Substitution lookup 21 subtable" Atilde
Substitution2: "'aalt' Access All Alternates lookup 0 subtable" Atilde
EndChar

StartChar: ae
Encoding: 230 230 160
Width: 500
Flags: MW
HStem: 0 79 651 59 668 42<206 208>
VStem: 116 41 202 84 231 72<75 268 268 268>
LayerCount: 2
UndoRedoHistory
Layer: 0
Undoes
EndUndoes
Redoes
EndRedoes
EndUndoRedoHistory
UndoRedoHistory
Layer: 1
Undoes
EndUndoes
Redoes
EndRedoes
EndUndoRedoHistory
Fore
SplineSet
231 0 m 1,0,-1
 231 268 l 1,1,-1
 145 228 l 1,2,-1
 93 0 l 1,3,-1
 31 0 l 1,4,-1
 116 710 l 1,5,-1
 445 710 l 1,6,-1
 445 648 l 1,7,-1
 286 654 l 1,8,-1
 286 427 l 1,9,-1
 445 404 l 1,10,-1
 445 356 l 1,11,-1
 303 362 l 1,12,-1
 303 75 l 1,13,-1
 445 83 l 1,14,-1
 445 0 l 1,15,-1
 231 0 l 1,0,-1
212 662 m 2,16,17
 212 668 212 668 206 668 c 1,18,-1
 163 658 l 1,19,20
 157 655 157 655 157 648 c 2,21,-1
 157 310 l 2,22,23
 157 305 157 305 163 305 c 2,24,-1
 196 305 l 2,25,26
 202 305 202 305 202 311 c 2,27,-1
 212 662 l 2,16,17
EndSplineSet
Validated: 8388609
Substitution2: "Single Substitution lookup 21 subtable" AE
Substitution2: "'aalt' Access All Alternates lookup 0 subtable" AE
EndChar

StartChar: aeacute
Encoding: 509 509 161
Width: 500
Flags: MW
HStem: 0 79 651 59 668 42<206 208>
VStem: 116 41 202 84 231 72<75 268 268 268>
LayerCount: 2
UndoRedoHistory
Layer: 0
Undoes
EndUndoes
Redoes
EndRedoes
EndUndoRedoHistory
UndoRedoHistory
Layer: 1
Undoes
EndUndoes
Redoes
EndRedoes
EndUndoRedoHistory
Fore
SplineSet
343 852 m 1,0,-1
 247 768 l 1,1,-1
 213 792 l 1,2,-1
 297 900 l 1,3,-1
 343 852 l 1,0,-1
231 0 m 1,4,-1
 231 268 l 1,5,-1
 145 228 l 1,6,-1
 93 0 l 1,7,-1
 31 0 l 1,8,-1
 116 710 l 1,9,-1
 445 710 l 1,10,-1
 445 648 l 1,11,-1
 286 654 l 1,12,-1
 286 427 l 1,13,-1
 445 404 l 1,14,-1
 445 356 l 1,15,-1
 303 362 l 1,16,-1
 303 75 l 1,17,-1
 445 83 l 1,18,-1
 445 0 l 1,19,-1
 231 0 l 1,4,-1
212 662 m 2,20,21
 212 668 212 668 206 668 c 1,22,-1
 163 658 l 1,23,24
 157 655 157 655 157 648 c 2,25,-1
 157 310 l 2,26,27
 157 305 157 305 163 305 c 2,28,-1
 196 305 l 2,29,30
 202 305 202 305 202 311 c 2,31,-1
 212 662 l 2,20,21
EndSplineSet
Validated: 8388609
Substitution2: "Single Substitution lookup 21 subtable" AEacute
Substitution2: "'aalt' Access All Alternates lookup 0 subtable" AEacute
EndChar

StartChar: b
Encoding: 98 98 162
Width: 341
Flags: MW
HStem: 0 56<136 136 136 186> 327 70<125 214> 649 61<201 204 50 206>
VStem: 50 63<402 405 405 645> 215 66<645 646> 216 85<282 307 282 321 282 321>
LayerCount: 2
UndoRedoHistory
Layer: 0
Undoes
EndUndoes
Redoes
EndRedoes
EndUndoRedoHistory
UndoRedoHistory
Layer: 1
Undoes
EndUndoes
Redoes
EndRedoes
EndUndoRedoHistory
Fore
SplineSet
240 364 m 1,0,1
 260 359 260 359 280.5 337 c 128,-1,2
 301 315 301 315 301 282 c 1,3,-1
 281 30 l 1,4,5
 281 20 281 20 268.5 13 c 128,-1,6
 256 6 256 6 237 3.5 c 128,-1,7
 218 1 218 1 206.5 0.5 c 128,-1,8
 195 0 195 0 186 0 c 2,9,-1
 50 0 l 1,10,-1
 50 710 l 1,11,-1
 183 710 l 2,12,13
 218 710 218 710 249.5 693 c 128,-1,14
 281 676 281 676 281 648 c 2,15,-1
 281 447 l 1,16,-1
 240 364 l 1,0,1
113 405 m 2,17,18
 113 397 113 397 125 397 c 2,19,-1
 197 397 l 2,20,21
 200 397 200 397 204 401 c 0,22,23
 206 406 l 1,24,-1
 215 645 l 2,25,26
 215 649 215 649 201 649 c 1,27,-1
 113 645 l 1,28,-1
 113 405 l 2,17,18
136 56 m 1,29,30
 159 64 159 64 175.5 72.5 c 128,-1,31
 192 81 192 81 200 86 c 128,-1,32
 208 91 208 91 212.5 96.5 c 128,-1,33
 217 102 217 102 217.5 104.5 c 128,-1,34
 218 107 218 107 218 110 c 0,35,36
 218 116 218 116 216 116 c 1,37,-1
 216 321 l 1,38,39
 219 322 219 322 219 324 c 0,40,41
 219 327 219 327 212 327 c 1,42,-1
 136 337 l 2,43,44
 134 337 134 337 131 335.5 c 128,-1,45
 128 334 128 334 126.5 333 c 128,-1,46
 125 332 125 332 125 331 c 2,47,-1
 125 59 l 1,48,-1
 136 56 l 1,29,30
EndSplineSet
Validated: 8388609
Substitution2: "Single Substitution lookup 20 subtable" B
Substitution2: "'aalt' Access All Alternates lookup 0 subtable" B
EndChar

StartChar: c
Encoding: 99 99 163
Width: 333
Flags: MW
HStem: 20 73<133 232 232 236 133 296 83 232> 630 80<107 160 107 222> 690 20G<107 131>
VStem: 52 75 234 46<528 621> 244 52<99 174 174 174>
LayerCount: 2
UndoRedoHistory
Layer: 0
Undoes
EndUndoes
Redoes
EndRedoes
EndUndoRedoHistory
UndoRedoHistory
Layer: 1
Undoes
EndUndoes
Redoes
EndRedoes
EndUndoRedoHistory
Fore
SplineSet
296 20 m 1,0,-1
 83 20 l 1,1,-1
 42 62 l 1,2,-1
 62 653 l 2,3,4
 63 675 63 675 80.5 692.5 c 128,-1,5
 98 710 98 710 129 710 c 0,6,7
 131 710 131 710 135.5 709.5 c 128,-1,8
 140 709 140 709 142 709 c 2,9,-1
 296 689 l 1,10,-1
 280 528 l 1,11,-1
 234 528 l 1,12,-1
 234 621 l 2,13,14
 234 630 234 630 222 630 c 2,15,-1
 160 630 l 2,16,17
 141 630 141 630 132.5 614.5 c 128,-1,18
 124 599 124 599 124 580 c 0,19,20
 124 568 124 568 127 567 c 1,21,-1
 127 99 l 1,22,23
 124 98 124 98 124 96 c 0,24,25
 124 93 124 93 133 93 c 2,26,-1
 232 93 l 2,27,28
 244 93 244 93 244 99 c 2,29,-1
 244 174 l 1,30,-1
 263 187 l 1,31,-1
 296 187 l 1,32,-1
 296 20 l 1,0,-1
EndSplineSet
Validated: 8388609
Substitution2: "Single Substitution lookup 20 subtable" C
Substitution2: "'aalt' Access All Alternates lookup 0 subtable" C
EndChar

StartChar: cacute
Encoding: 263 263 164
Width: 333
Flags: MW
HStem: 20 73<133 232 232 236 133 296 83 232> 630 80<107 160 107 222> 690 20G<107 131>
VStem: 52 75 234 46<528 621> 244 52<99 174 174 174>
LayerCount: 2
UndoRedoHistory
Layer: 0
Undoes
EndUndoes
Redoes
EndRedoes
EndUndoRedoHistory
UndoRedoHistory
Layer: 1
Undoes
EndUndoes
Redoes
EndRedoes
EndUndoRedoHistory
Fore
SplineSet
287 852 m 1,0,-1
 191 768 l 1,1,-1
 157 792 l 1,2,-1
 241 900 l 1,3,-1
 287 852 l 1,0,-1
296 20 m 1,4,-1
 83 20 l 1,5,-1
 42 62 l 1,6,-1
 62 653 l 2,7,8
 63 675 63 675 80.5 692.5 c 128,-1,9
 98 710 98 710 129 710 c 0,10,11
 131 710 131 710 135.5 709.5 c 128,-1,12
 140 709 140 709 142 709 c 2,13,-1
 296 689 l 1,14,-1
 280 528 l 1,15,-1
 234 528 l 1,16,-1
 234 621 l 2,17,18
 234 630 234 630 222 630 c 2,19,-1
 160 630 l 2,20,21
 141 630 141 630 132.5 614.5 c 128,-1,22
 124 599 124 599 124 580 c 0,23,24
 124 568 124 568 127 567 c 1,25,-1
 127 99 l 1,26,27
 124 98 124 98 124 96 c 0,28,29
 124 93 124 93 133 93 c 2,30,-1
 232 93 l 2,31,32
 244 93 244 93 244 99 c 2,33,-1
 244 174 l 1,34,-1
 263 187 l 1,35,-1
 296 187 l 1,36,-1
 296 20 l 1,4,-1
EndSplineSet
Validated: 8388609
Substitution2: "Single Substitution lookup 20 subtable" Cacute
Substitution2: "'locl' Localized Forms in Latin lookup 11 subtable" cacute.loclPLK
AlternateSubs2: "'aalt' Access All Alternates lookup 1 subtable" cacute.loclPLK Cacute
EndChar

StartChar: ccaron
Encoding: 269 269 165
Width: 333
Flags: MW
HStem: 20 73<133 232 232 236 133 296 83 232> 630 80<107 160 107 222> 690 20G<107 131>
VStem: 52 75 234 46<528 621> 244 52<99 174 174 174>
LayerCount: 2
UndoRedoHistory
Layer: 0
Undoes
EndUndoes
Redoes
EndRedoes
EndUndoRedoHistory
UndoRedoHistory
Layer: 1
Undoes
EndUndoes
Redoes
EndRedoes
EndUndoRedoHistory
Fore
SplineSet
185 771 m 1,0,-1
 111 881 l 1,1,-1
 140 900 l 1,2,-1
 205 838 l 1,3,-1
 270 900 l 1,4,-1
 299 881 l 1,5,-1
 225 768 l 1,6,-1
 185 771 l 1,0,-1
296 20 m 1,7,-1
 83 20 l 1,8,-1
 42 62 l 1,9,-1
 62 653 l 2,10,11
 63 675 63 675 80.5 692.5 c 128,-1,12
 98 710 98 710 129 710 c 0,13,14
 131 710 131 710 135.5 709.5 c 128,-1,15
 140 709 140 709 142 709 c 2,16,-1
 296 689 l 1,17,-1
 280 528 l 1,18,-1
 234 528 l 1,19,-1
 234 621 l 2,20,21
 234 630 234 630 222 630 c 2,22,-1
 160 630 l 2,23,24
 141 630 141 630 132.5 614.5 c 128,-1,25
 124 599 124 599 124 580 c 0,26,27
 124 568 124 568 127 567 c 1,28,-1
 127 99 l 1,29,30
 124 98 124 98 124 96 c 0,31,32
 124 93 124 93 133 93 c 2,33,-1
 232 93 l 2,34,35
 244 93 244 93 244 99 c 2,36,-1
 244 174 l 1,37,-1
 263 187 l 1,38,-1
 296 187 l 1,39,-1
 296 20 l 1,7,-1
EndSplineSet
Validated: 8388609
Substitution2: "Single Substitution lookup 20 subtable" Ccaron
Substitution2: "'aalt' Access All Alternates lookup 0 subtable" Ccaron
EndChar

StartChar: ccedilla
Encoding: 231 231 166
Width: 333
Flags: MW
HStem: -208 58<62 185 62 191> -93 48 20 73<83 232 83 232 195 232 232 236 133 296 195 195> 630 80<107 160 107 222> 690 20G<107 131>
VStem: 52 75 62 187<-162 -150 -150 -150> 234 46<528 621> 244 52<99 174 174 174>
LayerCount: 2
UndoRedoHistory
Layer: 0
Undoes
EndUndoes
Redoes
EndRedoes
EndUndoRedoHistory
UndoRedoHistory
Layer: 1
Undoes
EndUndoes
Redoes
EndRedoes
EndUndoRedoHistory
Fore
SplineSet
296 20 m 1,0,-1
 195 20 l 1,1,-1
 161 -45 l 1,2,-1
 273 -45 l 1,3,-1
 249 -148 l 1,4,5
 249 -169 249 -169 228 -188.5 c 128,-1,6
 207 -208 207 -208 185 -208 c 2,7,-1
 62 -208 l 1,8,-1
 62 -150 l 1,9,-1
 191 -150 l 1,10,-1
 201 -97 l 1,11,-1
 96 -89 l 1,12,-1
 126 20 l 1,13,-1
 83 20 l 1,14,-1
 42 62 l 1,15,-1
 62 653 l 2,16,17
 63 675 63 675 80.5 692.5 c 128,-1,18
 98 710 98 710 129 710 c 0,19,20
 131 710 131 710 135.5 709.5 c 128,-1,21
 140 709 140 709 142 709 c 2,22,-1
 296 689 l 1,23,-1
 280 528 l 1,24,-1
 234 528 l 1,25,-1
 234 621 l 2,26,27
 234 630 234 630 222 630 c 2,28,-1
 160 630 l 2,29,30
 141 630 141 630 132.5 614.5 c 128,-1,31
 124 599 124 599 124 580 c 0,32,33
 124 568 124 568 127 567 c 1,34,-1
 127 99 l 1,35,36
 124 98 124 98 124 96 c 0,37,38
 124 93 124 93 133 93 c 2,39,-1
 232 93 l 2,40,41
 244 93 244 93 244 99 c 2,42,-1
 244 174 l 1,43,-1
 263 187 l 1,44,-1
 296 187 l 1,45,-1
 296 20 l 1,0,-1
EndSplineSet
Validated: 8388609
Substitution2: "Single Substitution lookup 20 subtable" Ccedilla
Substitution2: "'aalt' Access All Alternates lookup 0 subtable" Ccedilla
EndChar

StartChar: ccircumflex
Encoding: 265 265 167
Width: 333
Flags: MW
HStem: 20 73<133 232 232 236 133 296 83 232> 630 80<107 160 107 222> 690 20G<107 131>
VStem: 52 75 234 46<528 621> 244 52<99 174 174 174>
LayerCount: 2
UndoRedoHistory
Layer: 0
Undoes
EndUndoes
Redoes
EndRedoes
EndUndoRedoHistory
UndoRedoHistory
Layer: 1
Undoes
EndUndoes
Redoes
EndRedoes
EndUndoRedoHistory
Fore
SplineSet
225 897 m 1,0,-1
 299 787 l 1,1,-1
 270 768 l 1,2,-1
 205 830 l 1,3,-1
 140 768 l 1,4,-1
 111 787 l 1,5,-1
 185 900 l 1,6,-1
 225 897 l 1,0,-1
296 20 m 1,7,-1
 83 20 l 1,8,-1
 42 62 l 1,9,-1
 62 653 l 2,10,11
 63 675 63 675 80.5 692.5 c 128,-1,12
 98 710 98 710 129 710 c 0,13,14
 131 710 131 710 135.5 709.5 c 128,-1,15
 140 709 140 709 142 709 c 2,16,-1
 296 689 l 1,17,-1
 280 528 l 1,18,-1
 234 528 l 1,19,-1
 234 621 l 2,20,21
 234 630 234 630 222 630 c 2,22,-1
 160 630 l 2,23,24
 141 630 141 630 132.5 614.5 c 128,-1,25
 124 599 124 599 124 580 c 0,26,27
 124 568 124 568 127 567 c 1,28,-1
 127 99 l 1,29,30
 124 98 124 98 124 96 c 0,31,32
 124 93 124 93 133 93 c 2,33,-1
 232 93 l 2,34,35
 244 93 244 93 244 99 c 2,36,-1
 244 174 l 1,37,-1
 263 187 l 1,38,-1
 296 187 l 1,39,-1
 296 20 l 1,7,-1
EndSplineSet
Validated: 8388609
Substitution2: "Single Substitution lookup 20 subtable" Ccircumflex
Substitution2: "'aalt' Access All Alternates lookup 0 subtable" Ccircumflex
EndChar

StartChar: cdotaccent
Encoding: 267 267 168
Width: 333
Flags: MW
HStem: 20 73<133 232 232 236 133 296 83 232> 630 80<107 160 107 222> 690 20G<107 131> 804 97
VStem: 52 75 164 91 234 46<528 621> 244 52<99 174 174 174>
LayerCount: 2
UndoRedoHistory
Layer: 0
Undoes
EndUndoes
Redoes
EndRedoes
EndUndoRedoHistory
UndoRedoHistory
Layer: 1
Undoes
EndUndoes
Redoes
EndRedoes
EndUndoRedoHistory
Fore
SplineSet
255 900 m 1,0,-1
 255 805 l 1,1,-1
 166 802 l 1,2,-1
 162 900 l 1,3,-1
 255 900 l 1,0,-1
296 20 m 1,4,-1
 83 20 l 1,5,-1
 42 62 l 1,6,-1
 62 653 l 2,7,8
 63 675 63 675 80.5 692.5 c 128,-1,9
 98 710 98 710 129 710 c 0,10,11
 131 710 131 710 135.5 709.5 c 128,-1,12
 140 709 140 709 142 709 c 2,13,-1
 296 689 l 1,14,-1
 280 528 l 1,15,-1
 234 528 l 1,16,-1
 234 621 l 2,17,18
 234 630 234 630 222 630 c 2,19,-1
 160 630 l 2,20,21
 141 630 141 630 132.5 614.5 c 128,-1,22
 124 599 124 599 124 580 c 0,23,24
 124 568 124 568 127 567 c 1,25,-1
 127 99 l 1,26,27
 124 98 124 98 124 96 c 0,28,29
 124 93 124 93 133 93 c 2,30,-1
 232 93 l 2,31,32
 244 93 244 93 244 99 c 2,33,-1
 244 174 l 1,34,-1
 263 187 l 1,35,-1
 296 187 l 1,36,-1
 296 20 l 1,4,-1
EndSplineSet
Validated: 8388609
Substitution2: "Single Substitution lookup 20 subtable" Cdotaccent
Substitution2: "'aalt' Access All Alternates lookup 0 subtable" Cdotaccent
EndChar

StartChar: d
Encoding: 100 100 169
Width: 332
Flags: MW
HStem: 0 69<136 168 168 176 136 224> 647 63<133 136 136 206 41 212>
VStem: 51 76 221 62<638 642>
LayerCount: 2
UndoRedoHistory
Layer: 0
Undoes
EndUndoes
Redoes
EndRedoes
EndUndoRedoHistory
UndoRedoHistory
Layer: 1
Undoes
EndUndoes
Redoes
EndRedoes
EndUndoRedoHistory
Fore
SplineSet
283 678 m 1,0,-1
 283 56 l 2,1,2
 283 41 283 41 277.5 30.5 c 128,-1,3
 272 20 272 20 265 14 c 128,-1,4
 258 8 258 8 248.5 4.5 c 128,-1,5
 239 1 239 1 233.5 0.5 c 128,-1,6
 228 0 228 0 224 0 c 2,7,-1
 56 0 l 1,8,-1
 56 56 l 1,9,-1
 62 84 l 1,10,-1
 41 710 l 1,11,-1
 206 710 l 1,12,-1
 283 678 l 1,0,-1
168 69 m 2,13,14
 183 69 183 69 191 81 c 128,-1,15
 199 93 199 93 201 131 c 2,16,-1
 221 638 l 2,17,18
 221 643 221 643 219 645 c 128,-1,19
 217 647 217 647 212 647 c 2,20,-1
 136 647 l 2,21,22
 127 647 127 647 127 638 c 2,23,-1
 127 78 l 2,24,25
 127 69 127 69 136 69 c 2,26,-1
 168 69 l 2,13,14
EndSplineSet
Validated: 1
Substitution2: "Single Substitution lookup 20 subtable" D
Substitution2: "'aalt' Access All Alternates lookup 0 subtable" D
EndChar

StartChar: eth
Encoding: 240 240 170
Width: 332
Flags: MW
HStem: 0 69<136 168 168 176 136 224> 338 50 647 63<133 136 136 206 41 212>
VStem: 58 69 221 62<638 642>
LayerCount: 2
UndoRedoHistory
Layer: 0
Undoes
EndUndoes
Redoes
EndRedoes
EndUndoRedoHistory
UndoRedoHistory
Layer: 1
Undoes
EndUndoes
Redoes
EndRedoes
EndUndoRedoHistory
Fore
SplineSet
283 678 m 1,0,-1
 283 56 l 2,1,2
 283 41 283 41 277.5 30.5 c 128,-1,3
 272 20 272 20 265 14 c 128,-1,4
 258 8 258 8 248.5 4.5 c 128,-1,5
 239 1 239 1 233.5 0.5 c 128,-1,6
 228 0 228 0 224 0 c 2,7,-1
 56 0 l 1,8,-1
 56 56 l 1,9,-1
 62 84 l 1,10,-1
 53 338 l 1,11,-1
 11 338 l 1,12,-1
 8 396 l 1,13,-1
 51 393 l 1,14,-1
 41 710 l 1,15,-1
 206 710 l 1,16,-1
 283 678 l 1,0,-1
168 69 m 2,17,18
 183 69 183 69 191 81 c 128,-1,19
 199 93 199 93 201 131 c 2,20,-1
 221 638 l 2,21,22
 221 643 221 643 219 645 c 128,-1,23
 217 647 217 647 212 647 c 2,24,-1
 136 647 l 2,25,26
 127 647 127 647 127 638 c 2,27,-1
 127 389 l 1,28,-1
 176 387 l 1,29,-1
 176 338 l 1,30,-1
 127 338 l 1,31,-1
 127 78 l 2,32,33
 127 69 127 69 136 69 c 2,34,-1
 168 69 l 2,17,18
EndSplineSet
Validated: 1
Substitution2: "Single Substitution lookup 20 subtable" Eth
Substitution2: "'aalt' Access All Alternates lookup 0 subtable" Eth
EndChar

StartChar: dcaron
Encoding: 271 271 171
Width: 311
Flags: MW
HStem: 0 69<136 168 168 176 136 224> 647 63<133 136 136 206 41 212>
VStem: 51 76 221 62<638 642>
LayerCount: 2
UndoRedoHistory
Layer: 0
Undoes
EndUndoes
Redoes
EndRedoes
EndUndoRedoHistory
UndoRedoHistory
Layer: 1
Undoes
EndUndoes
Redoes
EndRedoes
EndUndoRedoHistory
Fore
SplineSet
185 771 m 1,0,-1
 111 881 l 1,1,-1
 140 900 l 1,2,-1
 205 838 l 1,3,-1
 270 900 l 1,4,-1
 299 881 l 1,5,-1
 225 768 l 1,6,-1
 185 771 l 1,0,-1
283 678 m 1,7,-1
 283 56 l 2,8,9
 283 41 283 41 277.5 30.5 c 128,-1,10
 272 20 272 20 265 14 c 128,-1,11
 258 8 258 8 248.5 4.5 c 128,-1,12
 239 1 239 1 233.5 0.5 c 128,-1,13
 228 0 228 0 224 0 c 2,14,-1
 56 0 l 1,15,-1
 56 56 l 1,16,-1
 62 84 l 1,17,-1
 41 710 l 1,18,-1
 206 710 l 1,19,-1
 283 678 l 1,7,-1
168 69 m 2,20,21
 183 69 183 69 191 81 c 128,-1,22
 199 93 199 93 201 131 c 2,23,-1
 221 638 l 2,24,25
 221 643 221 643 219 645 c 128,-1,26
 217 647 217 647 212 647 c 2,27,-1
 136 647 l 2,28,29
 127 647 127 647 127 638 c 2,30,-1
 127 78 l 2,31,32
 127 69 127 69 136 69 c 2,33,-1
 168 69 l 2,20,21
EndSplineSet
Validated: 1
Substitution2: "Single Substitution lookup 20 subtable" Dcaron
Substitution2: "'aalt' Access All Alternates lookup 0 subtable" Dcaron
EndChar

StartChar: dcroat
Encoding: 273 273 172
Width: 332
Flags: MW
HStem: 0 69<136 168 168 176 136 224> 338 50 647 63<133 136 136 206 41 212>
VStem: 58 69 221 62<638 642>
LayerCount: 2
UndoRedoHistory
Layer: 0
Undoes
EndUndoes
Redoes
EndRedoes
EndUndoRedoHistory
UndoRedoHistory
Layer: 1
Undoes
EndUndoes
Redoes
EndRedoes
EndUndoRedoHistory
Fore
SplineSet
283 678 m 1,0,-1
 283 56 l 2,1,2
 283 41 283 41 277.5 30.5 c 128,-1,3
 272 20 272 20 265 14 c 128,-1,4
 258 8 258 8 248.5 4.5 c 128,-1,5
 239 1 239 1 233.5 0.5 c 128,-1,6
 228 0 228 0 224 0 c 2,7,-1
 56 0 l 1,8,-1
 56 56 l 1,9,-1
 62 84 l 1,10,-1
 53 338 l 1,11,-1
 11 338 l 1,12,-1
 8 396 l 1,13,-1
 51 393 l 1,14,-1
 41 710 l 1,15,-1
 206 710 l 1,16,-1
 283 678 l 1,0,-1
168 69 m 2,17,18
 183 69 183 69 191 81 c 128,-1,19
 199 93 199 93 201 131 c 2,20,-1
 221 638 l 2,21,22
 221 643 221 643 219 645 c 128,-1,23
 217 647 217 647 212 647 c 2,24,-1
 136 647 l 2,25,26
 127 647 127 647 127 638 c 2,27,-1
 127 389 l 1,28,-1
 176 387 l 1,29,-1
 176 338 l 1,30,-1
 127 338 l 1,31,-1
 127 78 l 2,32,33
 127 69 127 69 136 69 c 2,34,-1
 168 69 l 2,17,18
EndSplineSet
Validated: 1
Substitution2: "Single Substitution lookup 20 subtable" Dcroat
Substitution2: "'aalt' Access All Alternates lookup 0 subtable" Dcroat
EndChar

StartChar: ddotbelow
Encoding: 7693 7693 173
Width: 332
Flags: MW
HStem: -152 97 0 69<136 168 168 176 136 224> 647 63<133 136 136 206 41 212>
VStem: 51 76 115 91 221 62<638 642>
LayerCount: 2
UndoRedoHistory
Layer: 0
Undoes
EndUndoes
Redoes
EndRedoes
EndUndoRedoHistory
UndoRedoHistory
Layer: 1
Undoes
EndUndoes
Redoes
EndRedoes
EndUndoRedoHistory
Fore
SplineSet
283 678 m 1,0,-1
 283 56 l 2,1,2
 283 41 283 41 277.5 30.5 c 128,-1,3
 272 20 272 20 265 14 c 128,-1,4
 258 8 258 8 248.5 4.5 c 128,-1,5
 239 1 239 1 233.5 0.5 c 128,-1,6
 228 0 228 0 224 0 c 2,7,-1
 56 0 l 1,8,-1
 56 56 l 1,9,-1
 62 84 l 1,10,-1
 41 710 l 1,11,-1
 206 710 l 1,12,-1
 283 678 l 1,0,-1
168 69 m 2,13,14
 183 69 183 69 191 81 c 128,-1,15
 199 93 199 93 201 131 c 2,16,-1
 221 638 l 2,17,18
 221 643 221 643 219 645 c 128,-1,19
 217 647 217 647 212 647 c 2,20,-1
 136 647 l 2,21,22
 127 647 127 647 127 638 c 2,23,-1
 127 78 l 2,24,25
 127 69 127 69 136 69 c 2,26,-1
 168 69 l 2,13,14
206 -56 m 1,27,-1
 206 -151 l 1,28,-1
 117 -154 l 1,29,-1
 113 -56 l 1,30,-1
 206 -56 l 1,27,-1
EndSplineSet
Validated: 8388609
Substitution2: "Single Substitution lookup 20 subtable" Ddotbelow
Substitution2: "'aalt' Access All Alternates lookup 0 subtable" Ddotbelow
EndChar

StartChar: dz
Encoding: 499 499 174
Width: 625
Flags: MW
HStem: 0 69<136 168 168 176 136 224> 647 63<133 136 136 206 41 212>
VStem: 51 76 221 62<638 642>
LayerCount: 2
UndoRedoHistory
Layer: 0
Undoes
EndUndoes
Redoes
EndRedoes
EndUndoRedoHistory
UndoRedoHistory
Layer: 1
Undoes
EndUndoes
Redoes
EndRedoes
EndUndoRedoHistory
Fore
SplineSet
283 678 m 1,0,-1
 283 56 l 2,1,2
 283 41 283 41 277.5 30.5 c 128,-1,3
 272 20 272 20 265 14 c 128,-1,4
 258 8 258 8 248.5 4.5 c 128,-1,5
 239 1 239 1 233.5 0.5 c 128,-1,6
 228 0 228 0 224 0 c 2,7,-1
 56 0 l 1,8,-1
 56 56 l 1,9,-1
 62 84 l 1,10,-1
 41 710 l 1,11,-1
 206 710 l 1,12,-1
 283 678 l 1,0,-1
600 47 m 1,13,-1
 600 0 l 1,14,-1
 376 0 l 1,15,-1
 358 33 l 1,16,-1
 502 662 l 1,17,-1
 374 646 l 1,18,-1
 374 710 l 1,19,-1
 580 710 l 1,20,-1
 466 56 l 1,21,-1
 600 47 l 1,13,-1
168 69 m 2,22,23
 183 69 183 69 191 81 c 128,-1,24
 199 93 199 93 201 131 c 2,25,-1
 221 638 l 2,26,27
 221 643 221 643 219 645 c 128,-1,28
 217 647 217 647 212 647 c 2,29,-1
 136 647 l 2,30,31
 127 647 127 647 127 638 c 2,32,-1
 127 78 l 2,33,34
 127 69 127 69 136 69 c 2,35,-1
 168 69 l 2,22,23
EndSplineSet
Validated: 1
Substitution2: "Single Substitution lookup 20 subtable" DZ
Substitution2: "'aalt' Access All Alternates lookup 0 subtable" DZ
EndChar

StartChar: dzcaron
Encoding: 454 454 175
Width: 603
Flags: MW
HStem: 0 51 0 68 644 66<129 131 131 165 165 176> 662 48<481 481>
VStem: 50 72<72 638 72 710> 177 97
LayerCount: 2
UndoRedoHistory
Layer: 0
Undoes
EndUndoes
Redoes
EndRedoes
EndUndoRedoHistory
UndoRedoHistory
Layer: 1
Undoes
EndUndoes
Redoes
EndRedoes
EndUndoRedoHistory
Fore
SplineSet
443 771 m 1,0,-1
 369 881 l 1,1,-1
 398 900 l 1,2,-1
 463 838 l 1,3,-1
 528 900 l 1,4,-1
 557 881 l 1,5,-1
 483 768 l 1,6,-1
 443 771 l 1,0,-1
165 710 m 2,7,8
 213 710 213 710 243.5 679 c 128,-1,9
 274 648 274 648 274 600 c 1,10,-1
 244 57 l 1,11,-1
 183 0 l 1,12,-1
 50 0 l 1,13,-1
 50 710 l 1,14,-1
 165 710 l 2,7,8
337 33 m 1,15,-1
 481 662 l 1,16,-1
 353 646 l 1,17,-1
 353 710 l 1,18,-1
 559 710 l 1,19,-1
 445 56 l 1,20,-1
 579 47 l 1,21,-1
 579 0 l 1,22,-1
 355 0 l 1,23,-1
 337 33 l 1,15,-1
188 638 m 2,24,25
 188 644 188 644 176 644 c 2,26,-1
 131 644 l 2,27,28
 129 644 129 644 125.5 642 c 128,-1,29
 122 640 122 640 122 638 c 2,30,-1
 122 72 l 1,31,-1
 131 66 l 1,32,-1
 168 71 l 1,33,34
 177 77 177 77 177 84 c 2,35,-1
 188 638 l 2,24,25
EndSplineSet
Validated: 8388609
Substitution2: "Single Substitution lookup 20 subtable" DZcaron
Substitution2: "'aalt' Access All Alternates lookup 0 subtable" DZcaron
EndChar

StartChar: e
Encoding: 101 101 176
Width: 329
Flags: MW
HStem: 0 79 651 59
VStem: 55 72<75 362 75 710>
LayerCount: 2
UndoRedoHistory
Layer: 0
Undoes
EndUndoes
Redoes
EndRedoes
EndUndoRedoHistory
UndoRedoHistory
Layer: 1
Undoes
EndUndoes
Redoes
EndRedoes
EndUndoRedoHistory
Fore
SplineSet
55 0 m 1,0,-1
 55 710 l 1,1,-1
 269 710 l 1,2,-1
 269 648 l 1,3,-1
 144 654 l 1,4,-1
 144 427 l 1,5,-1
 269 404 l 1,6,-1
 269 356 l 1,7,-1
 127 362 l 1,8,-1
 127 75 l 1,9,-1
 269 83 l 1,10,-1
 269 0 l 1,11,-1
 55 0 l 1,0,-1
EndSplineSet
Validated: 1
Substitution2: "Single Substitution lookup 21 subtable" E
Substitution2: "'aalt' Access All Alternates lookup 0 subtable" E
EndChar

StartChar: eacute
Encoding: 233 233 177
Width: 329
Flags: MW
HStem: 0 79 651 59
VStem: 55 72<75 362 75 710>
LayerCount: 2
UndoRedoHistory
Layer: 0
Undoes
EndUndoes
Redoes
EndRedoes
EndUndoRedoHistory
UndoRedoHistory
Layer: 1
Undoes
EndUndoes
Redoes
EndRedoes
EndUndoRedoHistory
Fore
SplineSet
252 852 m 1,0,-1
 156 768 l 1,1,-1
 122 792 l 1,2,-1
 206 900 l 1,3,-1
 252 852 l 1,0,-1
55 0 m 1,4,-1
 55 710 l 1,5,-1
 269 710 l 1,6,-1
 269 648 l 1,7,-1
 144 654 l 1,8,-1
 144 427 l 1,9,-1
 269 404 l 1,10,-1
 269 356 l 1,11,-1
 127 362 l 1,12,-1
 127 75 l 1,13,-1
 269 83 l 1,14,-1
 269 0 l 1,15,-1
 55 0 l 1,4,-1
EndSplineSet
Validated: 1
Substitution2: "Single Substitution lookup 21 subtable" Eacute
Substitution2: "'aalt' Access All Alternates lookup 0 subtable" Eacute
EndChar

StartChar: ebreve
Encoding: 277 277 178
Width: 329
Flags: MW
HStem: 0 79 651 59 785 47 846 48<110 110>
VStem: 55 72<75 362 75 710> 64 48 230 44
LayerCount: 2
UndoRedoHistory
Layer: 0
Undoes
EndUndoes
Redoes
EndRedoes
EndUndoRedoHistory
UndoRedoHistory
Layer: 1
Undoes
EndUndoes
Redoes
EndRedoes
EndUndoRedoHistory
Fore
SplineSet
110 846 m 1,0,-1
 122 835 l 1,1,-1
 232 830 l 1,2,-1
 229 896 l 1,3,-1
 275 900 l 1,4,-1
 275 824 l 1,5,-1
 236 785 l 1,6,-1
 111 785 l 1,7,-1
 66 813 l 1,8,-1
 62 894 l 1,9,-1
 115 894 l 1,10,-1
 110 846 l 1,0,-1
55 0 m 1,11,-1
 55 710 l 1,12,-1
 269 710 l 1,13,-1
 269 648 l 1,14,-1
 144 654 l 1,15,-1
 144 427 l 1,16,-1
 269 404 l 1,17,-1
 269 356 l 1,18,-1
 127 362 l 1,19,-1
 127 75 l 1,20,-1
 269 83 l 1,21,-1
 269 0 l 1,22,-1
 55 0 l 1,11,-1
EndSplineSet
Validated: 8388609
Substitution2: "Single Substitution lookup 21 subtable" Ebreve
Substitution2: "'aalt' Access All Alternates lookup 0 subtable" Ebreve
EndChar

StartChar: ecaron
Encoding: 283 283 179
Width: 329
Flags: MW
HStem: 0 79 651 59
VStem: 55 72<75 362 75 710>
LayerCount: 2
UndoRedoHistory
Layer: 0
Undoes
EndUndoes
Redoes
EndRedoes
EndUndoRedoHistory
UndoRedoHistory
Layer: 1
Undoes
EndUndoes
Redoes
EndRedoes
EndUndoRedoHistory
Fore
SplineSet
153 771 m 1,0,-1
 79 881 l 1,1,-1
 108 900 l 1,2,-1
 173 838 l 1,3,-1
 238 900 l 1,4,-1
 267 881 l 1,5,-1
 193 768 l 1,6,-1
 153 771 l 1,0,-1
55 0 m 1,7,-1
 55 710 l 1,8,-1
 269 710 l 1,9,-1
 269 648 l 1,10,-1
 144 654 l 1,11,-1
 144 427 l 1,12,-1
 269 404 l 1,13,-1
 269 356 l 1,14,-1
 127 362 l 1,15,-1
 127 75 l 1,16,-1
 269 83 l 1,17,-1
 269 0 l 1,18,-1
 55 0 l 1,7,-1
EndSplineSet
Validated: 1
Substitution2: "Single Substitution lookup 21 subtable" Ecaron
Substitution2: "'aalt' Access All Alternates lookup 0 subtable" Ecaron
EndChar

StartChar: ecircumflex
Encoding: 234 234 180
Width: 329
Flags: MW
HStem: 0 79 651 59
VStem: 55 72<75 362 75 710>
LayerCount: 2
UndoRedoHistory
Layer: 0
Undoes
EndUndoes
Redoes
EndRedoes
EndUndoRedoHistory
UndoRedoHistory
Layer: 1
Undoes
EndUndoes
Redoes
EndRedoes
EndUndoRedoHistory
Fore
SplineSet
185 897 m 1,0,-1
 259 787 l 1,1,-1
 230 768 l 1,2,-1
 165 830 l 1,3,-1
 100 768 l 1,4,-1
 71 787 l 1,5,-1
 145 900 l 1,6,-1
 185 897 l 1,0,-1
55 0 m 1,7,-1
 55 710 l 1,8,-1
 269 710 l 1,9,-1
 269 648 l 1,10,-1
 144 654 l 1,11,-1
 144 427 l 1,12,-1
 269 404 l 1,13,-1
 269 356 l 1,14,-1
 127 362 l 1,15,-1
 127 75 l 1,16,-1
 269 83 l 1,17,-1
 269 0 l 1,18,-1
 55 0 l 1,7,-1
EndSplineSet
Validated: 1
Substitution2: "Single Substitution lookup 21 subtable" Ecircumflex
Substitution2: "'aalt' Access All Alternates lookup 0 subtable" Ecircumflex
EndChar

StartChar: edieresis
Encoding: 235 235 181
Width: 329
Flags: MW
HStem: 0 79 651 59 815 82
VStem: 50 81 55 72<75 362 75 710> 202 78
LayerCount: 2
UndoRedoHistory
Layer: 0
Undoes
EndUndoes
Redoes
EndRedoes
EndUndoRedoHistory
UndoRedoHistory
Layer: 1
Undoes
EndUndoes
Redoes
EndRedoes
EndUndoRedoHistory
Fore
SplineSet
133 898 m 1,0,-1
 129 815 l 1,1,-1
 50 815 l 1,2,-1
 50 895 l 1,3,-1
 133 898 l 1,0,-1
279 898 m 1,4,-1
 279 818 l 1,5,-1
 203 815 l 1,6,-1
 200 898 l 1,7,-1
 279 898 l 1,4,-1
55 0 m 1,8,-1
 55 710 l 1,9,-1
 269 710 l 1,10,-1
 269 648 l 1,11,-1
 144 654 l 1,12,-1
 144 427 l 1,13,-1
 269 404 l 1,14,-1
 269 356 l 1,15,-1
 127 362 l 1,16,-1
 127 75 l 1,17,-1
 269 83 l 1,18,-1
 269 0 l 1,19,-1
 55 0 l 1,8,-1
EndSplineSet
Validated: 8388609
Substitution2: "Single Substitution lookup 21 subtable" Edieresis
Substitution2: "'aalt' Access All Alternates lookup 0 subtable" Edieresis
EndChar

StartChar: edotaccent
Encoding: 279 279 182
Width: 329
Flags: MW
HStem: 0 79 651 59 804 97
VStem: 55 72<75 362 75 710> 128 91
LayerCount: 2
UndoRedoHistory
Layer: 0
Undoes
EndUndoes
Redoes
EndRedoes
EndUndoRedoHistory
UndoRedoHistory
Layer: 1
Undoes
EndUndoes
Redoes
EndRedoes
EndUndoRedoHistory
Fore
SplineSet
219 900 m 1,0,-1
 219 805 l 1,1,-1
 130 802 l 1,2,-1
 126 900 l 1,3,-1
 219 900 l 1,0,-1
55 0 m 1,4,-1
 55 710 l 1,5,-1
 269 710 l 1,6,-1
 269 648 l 1,7,-1
 144 654 l 1,8,-1
 144 427 l 1,9,-1
 269 404 l 1,10,-1
 269 356 l 1,11,-1
 127 362 l 1,12,-1
 127 75 l 1,13,-1
 269 83 l 1,14,-1
 269 0 l 1,15,-1
 55 0 l 1,4,-1
EndSplineSet
Validated: 1
Substitution2: "Single Substitution lookup 21 subtable" Edotaccent
Substitution2: "'aalt' Access All Alternates lookup 0 subtable" Edotaccent
EndChar

StartChar: edotbelow
Encoding: 7865 7865 183
Width: 329
Flags: MW
HStem: -152 97 0 79 651 59
VStem: 55 72<75 362 75 710> 113 91
LayerCount: 2
UndoRedoHistory
Layer: 0
Undoes
EndUndoes
Redoes
EndRedoes
EndUndoRedoHistory
UndoRedoHistory
Layer: 1
Undoes
EndUndoes
Redoes
EndRedoes
EndUndoRedoHistory
Fore
SplineSet
55 0 m 1,0,-1
 55 710 l 1,1,-1
 269 710 l 1,2,-1
 269 648 l 1,3,-1
 144 654 l 1,4,-1
 144 427 l 1,5,-1
 269 404 l 1,6,-1
 269 356 l 1,7,-1
 127 362 l 1,8,-1
 127 75 l 1,9,-1
 269 83 l 1,10,-1
 269 0 l 1,11,-1
 55 0 l 1,0,-1
204 -56 m 1,12,-1
 204 -151 l 1,13,-1
 115 -154 l 1,14,-1
 111 -56 l 1,15,-1
 204 -56 l 1,12,-1
EndSplineSet
Validated: 8388609
Substitution2: "Single Substitution lookup 21 subtable" Edotbelow
Substitution2: "'aalt' Access All Alternates lookup 0 subtable" Edotbelow
EndChar

StartChar: egrave
Encoding: 232 232 184
Width: 329
Flags: MW
HStem: 0 79 651 59
VStem: 55 72<75 362 75 710>
LayerCount: 2
UndoRedoHistory
Layer: 0
Undoes
EndUndoes
Redoes
EndRedoes
EndUndoRedoHistory
UndoRedoHistory
Layer: 1
Undoes
EndUndoes
Redoes
EndRedoes
EndUndoRedoHistory
Fore
SplineSet
173 768 m 1,0,-1
 77 852 l 1,1,-1
 123 900 l 1,2,-1
 207 792 l 1,3,-1
 173 768 l 1,0,-1
55 0 m 1,4,-1
 55 710 l 1,5,-1
 269 710 l 1,6,-1
 269 648 l 1,7,-1
 144 654 l 1,8,-1
 144 427 l 1,9,-1
 269 404 l 1,10,-1
 269 356 l 1,11,-1
 127 362 l 1,12,-1
 127 75 l 1,13,-1
 269 83 l 1,14,-1
 269 0 l 1,15,-1
 55 0 l 1,4,-1
EndSplineSet
Validated: 1
Substitution2: "Single Substitution lookup 21 subtable" Egrave
Substitution2: "'aalt' Access All Alternates lookup 0 subtable" Egrave
EndChar

StartChar: emacron
Encoding: 275 275 185
Width: 329
Flags: MW
HStem: 0 79 651 59 832 60
VStem: 55 72<75 362 75 710>
LayerCount: 2
UndoRedoHistory
Layer: 0
Undoes
EndUndoes
Redoes
EndRedoes
EndUndoRedoHistory
UndoRedoHistory
Layer: 1
Undoes
EndUndoes
Redoes
EndRedoes
EndUndoRedoHistory
Fore
SplineSet
299 836 m 1,0,-1
 34 827 l 1,1,-1
 31 891 l 1,2,-1
 299 891 l 1,3,-1
 299 836 l 1,0,-1
55 0 m 1,4,-1
 55 710 l 1,5,-1
 269 710 l 1,6,-1
 269 648 l 1,7,-1
 144 654 l 1,8,-1
 144 427 l 1,9,-1
 269 404 l 1,10,-1
 269 356 l 1,11,-1
 127 362 l 1,12,-1
 127 75 l 1,13,-1
 269 83 l 1,14,-1
 269 0 l 1,15,-1
 55 0 l 1,4,-1
EndSplineSet
Validated: 1
Substitution2: "Single Substitution lookup 21 subtable" Emacron
Substitution2: "'aalt' Access All Alternates lookup 0 subtable" Emacron
EndChar

